<svg xmlns="http://www.w3.org/2000/svg" xmlns:xlink="http://www.w3.org/1999/xlink" width="291.969" height="406.205"><symbol id="b" viewBox="-146 -203 292 407"><image width="292" height="407" xlink:href="5F8F315.png" transform="matrix(1 0 0 -1 -146 204)" overflow="visible" opacity=".3"/><radialGradient id="a" cx="-3.05" cy="3.04" r="163.894" gradientTransform="matrix(0 1 -1.0315 0 .085 6.09)" gradientUnits="userSpaceOnUse"><stop offset="0" stop-color="#c889ba"/><stop offset=".207" stop-color="#bf83ba"/><stop offset=".544" stop-color="#a774ba"/><stop offset=".967" stop-color="#7f5cba"/><stop offset="1" stop-color="#7c5aba"/></radialGradient><path d="M-129.63-186.96a6.177 6.177 0 00-6.17 6.17v367.661a6.177 6.177 0 006.17 6.169h253.16a6.176 6.176 0 006.169-6.169V-180.79a6.177 6.177 0 00-6.169-6.17h-253.16z" fill="url(#a)"/><path d="M119.7 183.04v-360h-245.5v360h245.5m3.83 20h-253.16c-8.931 0-16.17-7.238-16.17-16.169V-180.79c0-8.93 7.239-16.17 16.17-16.17h253.16c8.93 0 16.169 7.24 16.169 16.17v367.661c.001 8.931-7.239 16.169-16.169 16.169z" fill="#c99ee8"/><path d="M123.53 193.04a6.176 6.176 0 006.169-6.169V-180.79a6.177 6.177 0 00-6.169-6.17h-253.16a6.177 6.177 0 00-6.17 6.17v367.661a6.177 6.177 0 006.17 6.169h253.16m0 10h-253.16c-8.931 0-16.17-7.238-16.17-16.169V-180.79c0-8.93 7.239-16.17 16.17-16.17h253.16c8.93 0 16.169 7.24 16.169 16.17v367.661c.001 8.931-7.239 16.169-16.169 16.169z" fill="#414042"/></symbol><use xlink:href="#b" width="292" height="407" x="-146" y="-203" transform="matrix(1 0 0 -1 145.969 203.205)" overflow="visible"/><circle cx="143.278" cy="199.429" r="103.102" fill="#cceffe"/><radialGradient id="c" cx="143.278" cy="199.43" r="109.102" gradientUnits="userSpaceOnUse"><stop offset="0" stop-color="#3ba2c6"/><stop offset=".237" stop-color="#3799c1"/><stop offset=".623" stop-color="#2b81b5"/><stop offset="1" stop-color="#1d63a6"/></radialGradient><path d="M143.278 96.327c56.941 0 103.102 46.16 103.102 103.102 0 56.942-46.16 103.103-103.102 103.103-56.942 0-103.103-46.16-103.103-103.103.001-56.942 46.161-103.102 103.103-103.102m0-6c-29.143 0-56.541 11.349-77.147 31.955-20.606 20.606-31.955 48.004-31.955 77.146s11.349 56.541 31.955 77.147c20.607 20.606 48.005 31.955 77.147 31.955 29.142 0 56.54-11.349 77.146-31.955s31.955-48.005 31.955-77.147c0-29.142-11.349-56.54-31.955-77.146s-48.004-31.955-77.146-31.955z" fill="url(#c)"/><linearGradient id="d" gradientUnits="userSpaceOnUse" x1="143.278" y1="199.429" x2="143.278" y2="106.327"><stop offset="0" stop-color="#8adbe0"/><stop offset=".222" stop-color="#82d2dd"/><stop offset=".584" stop-color="#6cbad5"/><stop offset="1" stop-color="#4b96ca"/></linearGradient><path d="M236.38 199.429H50.176c0-51.418 41.684-93.102 93.103-93.102 51.417 0 93.101 41.684 93.101 93.102z" fill="url(#d)"/><linearGradient id="e" gradientUnits="userSpaceOnUse" x1="143.278" y1="292.531" x2="143.278" y2="199.429"><stop offset="0" stop-color="#b5db4b"/><stop offset=".209" stop-color="#acd648"/><stop offset=".549" stop-color="#94c93f"/><stop offset=".977" stop-color="#6cb332"/><stop offset="1" stop-color="#6ab231"/></linearGradient><path d="M236.38 199.429H50.176c0 51.419 41.684 93.103 93.103 93.103 51.417-.001 93.101-41.684 93.101-93.103z" fill="url(#e)"/><path d="M95.343 257.844l106.35-106.35a3.323 3.323 0 000-4.7l-7.395-7.396a3.323 3.323 0 00-4.7 0L83.247 245.749a3.323 3.323 0 000 4.7l7.396 7.395a3.323 3.323 0 004.7 0z" fill="#b4510e" stroke="#4f1607" stroke-width="3" stroke-miterlimit="10"/><path d="M94.717 256.615l104.244-104.244c2.883-2.419 2.32-4.106 1.436-4.804L92.271 255.692c-2.735.95.637 2.971 2.446.923z" opacity=".42" fill="#6d330c"/><g><path d="M201.939 192.641a4.323 4.323 0 01-3.032-1.23l-26.482-22.751-21.13-24.862a4.357 4.357 0 01.046-6.105l10.854-10.854a4.323 4.323 0 013.077-1.274c1.141 0 2.214.436 3.031 1.229l24.855 21.242 22.755 26.368a4.324 4.324 0 011.231 3.033 4.324 4.324 0 01-1.274 3.077l-10.854 10.854a4.33 4.33 0 01-3.077 1.273z" fill="#ccd7cf"/><path d="M165.271 127.063c.73 0 1.459.278 2.016.835l24.809 21.202 22.713 26.319a2.852 2.852 0 010 4.032l-10.854 10.854c-.557.557-1.286.835-2.016.835s-1.459-.278-2.016-.835l-26.432-22.708-21.09-24.813a2.852 2.852 0 010-4.032l10.854-10.854a2.845 2.845 0 012.016-.835m0-3a5.808 5.808 0 00-4.137 1.714l-10.854 10.854a5.86 5.86 0 00-.1 8.173l21.024 24.737.153.179.178.153 26.36 22.646a5.808 5.808 0 004.042 1.621 5.808 5.808 0 004.137-1.714l10.854-10.854a5.86 5.86 0 00.091-8.183l-22.653-26.25-.149-.173-.173-.147-24.735-21.14a5.814 5.814 0 00-4.038-1.616z" fill="#6d6e71"/></g><g><path d="M203.955 190.306l10.854-10.854a2.852 2.852 0 000-4.032l-22.713-26.319-18.604 18.497 26.432 22.708a2.85 2.85 0 004.031 0z" fill="#a7a9ac"/></g></svg>