<svg xmlns="http://www.w3.org/2000/svg" xmlns:xlink="http://www.w3.org/1999/xlink" width="291.969" height="406.205"><symbol id="b" viewBox="-146 -203 292 407"><image width="292" height="407" xlink:href="6E8C2E0F.png" transform="matrix(1 0 0 -1 -146 204)" overflow="visible" opacity=".3"/><radialGradient id="a" cx="-3.05" cy="3.04" r="163.894" gradientTransform="matrix(0 1 -1.0315 0 .085 6.09)" gradientUnits="userSpaceOnUse"><stop offset="0" stop-color="#c889ba"/><stop offset=".207" stop-color="#bf83ba"/><stop offset=".544" stop-color="#a774ba"/><stop offset=".967" stop-color="#7f5cba"/><stop offset="1" stop-color="#7c5aba"/></radialGradient><path d="M-129.63-186.96a6.177 6.177 0 00-6.17 6.17v367.661a6.177 6.177 0 006.17 6.169h253.16a6.176 6.176 0 006.169-6.169V-180.79a6.177 6.177 0 00-6.169-6.17h-253.16z" fill="url(#a)"/><path d="M119.7 183.04v-360h-245.5v360h245.5m3.83 20h-253.16c-8.931 0-16.17-7.238-16.17-16.169V-180.79c0-8.93 7.239-16.17 16.17-16.17h253.16c8.93 0 16.169 7.24 16.169 16.17v367.661c.001 8.931-7.239 16.169-16.169 16.169z" fill="#c99ee8"/><path d="M123.53 193.04a6.176 6.176 0 006.169-6.169V-180.79a6.177 6.177 0 00-6.169-6.17h-253.16a6.177 6.177 0 00-6.17 6.17v367.661a6.177 6.177 0 006.17 6.169h253.16m0 10h-253.16c-8.931 0-16.17-7.238-16.17-16.169V-180.79c0-8.93 7.239-16.17 16.17-16.17h253.16c8.93 0 16.169 7.24 16.169 16.17v367.661c.001 8.931-7.239 16.169-16.169 16.169z" fill="#414042"/></symbol><use xlink:href="#b" width="292" height="407" x="-146" y="-203" transform="matrix(1 0 0 -1 145.969 203.205)" overflow="visible"/><path d="M110.182 320.967a3.393 3.393 0 01-3.39-3.388v-6.636a3.393 3.393 0 013.39-3.388h69.728c1.869 0 3.39 1.52 3.39 3.388v6.636a3.393 3.393 0 01-3.39 3.388h-69.728z" fill="#cceffe"/><path d="M179.909 309.556c.766 0 1.39.621 1.39 1.388v6.636a1.39 1.39 0 01-1.39 1.388h-69.728a1.39 1.39 0 01-1.39-1.388v-6.636c0-.767.622-1.388 1.39-1.388h69.728m0-4h-69.728a5.395 5.395 0 00-5.39 5.388v6.636a5.395 5.395 0 005.39 5.388h69.728a5.395 5.395 0 005.39-5.388v-6.636a5.395 5.395 0 00-5.39-5.388z" fill="#223948"/><path d="M106.285 337.345a5.186 5.186 0 01-5.18-5.18v-8.32a5.186 5.186 0 015.18-5.18h77.521a5.184 5.184 0 015.178 5.18v8.32a5.184 5.184 0 01-5.178 5.18h-77.521z" fill="#cceffe"/><path d="M183.806 320.665a3.18 3.18 0 013.178 3.18v8.32a3.18 3.18 0 01-3.178 3.18h-77.521a3.18 3.18 0 01-3.18-3.18v-8.32a3.18 3.18 0 013.18-3.18h77.521m0-4h-77.521c-3.959 0-7.18 3.221-7.18 7.18v8.32c0 3.959 3.221 7.18 7.18 7.18h77.521c3.958 0 7.178-3.221 7.178-7.18v-8.32c-.001-3.959-3.22-7.18-7.178-7.18z" fill="#223948"/><path d="M99.206 354.879a5.694 5.694 0 01-5.687-5.688v-.381l3.824-9.684a3.392 3.392 0 013.355-2.927h88.689a3.391 3.391 0 013.356 2.927l3.825 9.684v.381a5.695 5.695 0 01-5.688 5.688H99.206z" fill="#cceffe"/><path d="M189.389 338.2c.766 0 1.388.62 1.388 1.386l3.794 9.605a3.688 3.688 0 01-3.688 3.688H99.206a3.688 3.688 0 01-3.687-3.688l3.793-9.605c0-.766.62-1.386 1.387-1.386h88.69m0-4H100.7a5.396 5.396 0 00-5.295 4.392l-3.605 9.131-.279.708v.761c0 4.239 3.448 7.688 7.687 7.688h91.677c4.239 0 7.688-3.448 7.688-7.688v-.762l-.279-.708-3.606-9.13a5.404 5.404 0 00-5.299-4.392z" fill="#223948"/><path d="M101.36 278.444c-1.516 0-2.96-.784-4.298-1.645l-58.529-31.067c-4.374-2.498-7.13-7.122-7.246-12.098l-.683-29.316-.001-6.069c0-5.446 4.432-9.877 9.879-9.877h60.064c5.446 0 9.878 4.431 9.878 9.877v3.199c0 3.248-1.666 4.688-3.063 5.323-1.556.708-3.414.766-5.507.766l-49.368-.003a2.722 2.722 0 00-2.722 2.716v18.881c0 .2.089.386.241.512l49.361 24.471.096.062a7.003 7.003 0 013.06 4.444 7.014 7.014 0 01-.488 4.436l3.823 12.164-.512.789c-1.046 1.616-2.387 2.435-3.985 2.435z" fill="#cceffe"/><path d="M100.547 190.372c4.333 0 7.878 3.544 7.878 7.877v3.199c0 3.889-2.854 4.089-6.57 4.089-.426 0-.862-.003-1.308-.003H52.486a4.72 4.72 0 00-4.722 4.716v18.881c0 .902.458 1.744 1.215 2.235l49.397 24.488c2.336 1.51 3.007 4.656 1.494 6.989l3.796 12.077c-.705 1.089-1.462 1.523-2.307 1.523-.964 0-2.041-.566-3.285-1.371L39.47 243.965a12.287 12.287 0 01-6.185-10.378l-.683-29.316v-6.022c0-4.333 3.545-7.877 7.879-7.877h60.066m0-4H40.482c-6.55 0-11.879 5.328-11.879 11.877v6.069l.001.046.683 29.316c.133 5.673 3.274 10.944 8.199 13.758l.054.031.056.029 58.456 31.029c1.576 1.008 3.31 1.916 5.309 1.916 1.595 0 3.871-.581 5.664-3.35l1.022-1.579-.563-1.794-3.325-10.579a8.99 8.99 0 00.32-4.941 8.986 8.986 0 00-3.931-5.706l-.19-.123-.204-.102-48.389-23.988V210.25a.72.72 0 01.722-.716h48.061l.656.001.651.002c2.244 0 4.417-.072 6.335-.945 1.582-.72 4.235-2.604 4.235-7.144v-3.199c0-6.549-5.328-11.877-11.878-11.877z" fill="#223948"/><g><path d="M186.423 278.444c-1.598 0-2.938-.82-3.984-2.438l-.51-.789 3.82-12.163a7.006 7.006 0 01-.488-4.433 7 7 0 013.06-4.447l.096-.062 49.361-24.471a.663.663 0 00.241-.512V210.25a2.721 2.721 0 00-2.72-2.716l-49.368.003c-3.206 0-8.571 0-8.571-6.089v-3.199c0-5.446 4.432-9.877 9.879-9.877h60.063c5.448 0 9.88 4.431 9.88 9.877v6.022l-.686 29.363a14.346 14.346 0 01-7.191 12.067L190.722 276.8c-1.338.86-2.784 1.644-4.299 1.644z" fill="#cceffe"/><path d="M247.302 190.372c4.334 0 7.88 3.544 7.88 7.877v6.022l-.685 29.316a12.28 12.28 0 01-6.185 10.378l-58.604 31.107c-1.244.805-2.322 1.371-3.286 1.371-.844 0-1.601-.435-2.305-1.523l3.793-12.077c-1.511-2.333-.839-5.479 1.495-6.989l49.396-24.488a2.662 2.662 0 001.216-2.235V210.25a4.718 4.718 0 00-4.72-4.716h-48.061c-.445 0-.882.003-1.308.003-3.717 0-6.571-.2-6.571-4.089v-3.199c0-4.333 3.545-7.877 7.879-7.877h60.066m0-4h-60.064c-6.55 0-11.879 5.328-11.879 11.877v3.199c0 4.539 2.653 6.424 4.235 7.144 1.918.873 4.092.945 6.336.945l.651-.002.656-.001h48.061a.72.72 0 01.72.716v18.032l-48.389 23.988-.205.102-.191.124a8.99 8.99 0 00-3.928 5.708 9.007 9.007 0 00.319 4.938l-3.323 10.58-.563 1.793 1.021 1.577c1.791 2.771 4.068 3.352 5.663 3.352 1.999 0 3.733-.908 5.31-1.916l58.455-31.029.055-.029.055-.03c4.926-2.814 8.068-8.086 8.199-13.759l.685-29.315.001-.047v-6.069c0-6.55-5.329-11.878-11.88-11.878z" fill="#223948"/></g><g><path d="M112.423 311.556l.677-2.519c.971-3.611 1.7-5.648 2.184-6.997.751-2.098.751-2.098-.072-5.903-.197-.914-.437-2.019-.716-3.376-25.681-13.234-42.218-42.629-42.218-75.2v-21.459c0-4.262 3.467-7.729 7.729-7.729h126.96c4.245.034 7.686 3.502 7.686 7.729v21.459c0 32.571-16.537 61.966-42.217 75.2-.28 1.36-.52 2.466-.717 3.381-.823 3.803-.823 3.803-.071 5.902.483 1.348 1.213 3.384 2.184 6.992l.677 2.52h-62.086z" fill="#cceffe"/><path d="M80.007 190.372h126.96a5.73 5.73 0 015.686 5.729v21.459c0 33.144-17.3 61.583-41.982 73.853-2.503 12.37-2.096 5.775 1.229 18.143h-56.868c3.323-12.369 3.732-5.773 1.229-18.143-24.683-12.27-41.983-40.709-41.983-73.853v-21.459a5.73 5.73 0 015.729-5.729m0-4a9.666 9.666 0 00-6.878 2.849 9.664 9.664 0 00-2.852 6.881v21.459c0 32.953 16.599 62.753 42.452 76.533.199.951.375 1.765.526 2.466.359 1.657.618 2.855.618 3.303 0 .172-.171.658-.474 1.504-.494 1.378-1.24 3.461-2.232 7.151l-1.354 5.038h67.303l-1.355-5.039c-.991-3.687-1.737-5.77-2.231-7.147-.275-.77-.475-1.324-.475-1.505 0-.446.259-1.644.617-3.3.152-.702.328-1.517.528-2.471 25.853-13.78 42.451-43.58 42.451-76.533v-21.459c0-5.322-4.33-9.687-9.653-9.729H80.007v-.001z" fill="#223948"/></g><g><path d="M109.373 319.967a1.582 1.582 0 01-1.581-1.581v-8.249c0-.872.709-1.581 1.581-1.581h71.344c.872 0 1.582.709 1.582 1.581v8.249c0 .872-.71 1.581-1.582 1.581h-71.344z" fill="#cceffe"/><path d="M180.717 309.556c.32 0 .582.262.582.581v8.249a.582.582 0 01-.582.581h-71.344a.581.581 0 01-.581-.581v-8.249c0-.319.261-.581.581-.581h71.344m0-2h-71.344a2.584 2.584 0 00-2.581 2.581v8.249a2.584 2.584 0 002.581 2.581h71.344a2.584 2.584 0 002.582-2.581v-8.249a2.584 2.584 0 00-2.582-2.581z" fill="#223948"/></g><g><path d="M104.436 336.345a2.332 2.332 0 01-2.33-2.329v-12.021a2.332 2.332 0 012.33-2.33h81.219a2.332 2.332 0 012.329 2.33v12.021a2.332 2.332 0 01-2.329 2.329h-81.219z" fill="#cceffe"/><path d="M185.654 320.665c.732 0 1.329.596 1.329 1.33v12.021a1.33 1.33 0 01-1.329 1.329h-81.219a1.33 1.33 0 01-1.33-1.329v-12.021c0-.734.596-1.33 1.33-1.33h81.219m0-2h-81.219a3.334 3.334 0 00-3.33 3.33v12.021a3.333 3.333 0 003.33 3.329h81.219a3.332 3.332 0 003.329-3.329v-12.021a3.333 3.333 0 00-3.329-3.33z" fill="#223948"/></g><g><path d="M99.206 353.879a4.693 4.693 0 01-4.687-4.688v-.19l3.803-9.63a2.389 2.389 0 012.377-2.171h88.689a2.39 2.39 0 012.378 2.171l3.804 9.63v.19a4.693 4.693 0 01-4.688 4.688H99.206z" fill="#cceffe"/><path d="M189.389 338.2c.768 0 1.388.62 1.388 1.386l3.794 9.605a3.688 3.688 0 01-3.688 3.688H99.206a3.688 3.688 0 01-3.687-3.688l3.793-9.605c0-.766.62-1.386 1.387-1.386h88.69m0-2H100.7a3.39 3.39 0 00-3.355 2.927l-3.685 9.33-.14.354v.381a5.694 5.694 0 005.687 5.688h91.677a5.695 5.695 0 005.688-5.688v-.381l-.14-.354-3.686-9.33a3.394 3.394 0 00-3.357-2.927z" fill="#223948"/></g><g><path d="M168.582 278.871a2.82 2.82 0 01-1.323-.33l-23.449-14.083a.865.865 0 00-.74.028l-23.35 14.027a2.876 2.876 0 01-1.374.358 2.854 2.854 0 01-2.185-1.023 2.827 2.827 0 01-.621-2.31l4.469-26.056a.848.848 0 00-.244-.75l-18.031-20.012c-.735-.714-1.012-1.832-.676-2.869a2.833 2.833 0 012.297-1.941l.072-.011h25.205a.846.846 0 00.579-.453l11.685-25.96c.499-1.011 1.478-1.619 2.568-1.619 1.092 0 2.07.608 2.553 1.587l11.716 26.026a.83.83 0 00.563.419h27.094l.072.011a2.834 2.834 0 012.296 1.94 2.834 2.834 0 01-.719 2.917l-19.864 19.954a.857.857 0 00-.255.764l4.468 26.054a2.851 2.851 0 01-2.806 3.332z" fill="#fff"/><path d="M143.465 196.867c.659 0 1.318.344 1.656 1.029l11.7 25.994c.269.544.789.922 1.39 1.009h27.106c1.513.223 2.118 2.083 1.023 3.152l-19.874 19.965a1.852 1.852 0 00-.532 1.635l4.469 26.057c.206 1.194-.745 2.163-1.821 2.163-.283 0-.576-.067-.858-.216L144.325 263.6a1.838 1.838 0 00-1.718 0l-23.399 14.055a1.847 1.847 0 01-.859.216c-1.077 0-2.026-.969-1.82-2.163l4.469-26.057a1.85 1.85 0 00-.531-1.635l-17.986-19.965c-1.097-1.069-.49-2.93 1.023-3.152h25.218a1.849 1.849 0 001.39-1.009l11.7-25.994a1.82 1.82 0 011.653-1.029m0-2a3.82 3.82 0 00-3.449 2.144l-.016.032-.016.032-11.623 25.824h-25.006l-.145.021a3.83 3.83 0 00-3.103 2.622 3.823 3.823 0 00.92 3.887l17.95 19.926.033.036-4.456 25.979a3.853 3.853 0 003.792 4.501c.615 0 1.233-.153 1.788-.444l.051-.027.051-.029 23.229-13.953 23.229 13.953.05.029.051.026a3.864 3.864 0 001.788.445 3.85 3.85 0 002.95-1.38 3.82 3.82 0 00.842-3.122l-4.455-25.978 19.839-19.929a3.814 3.814 0 00.951-3.921 3.826 3.826 0 00-3.101-2.621l-.145-.021h-26.895l-11.623-25.824-.015-.032-.016-.031a3.823 3.823 0 00-3.45-2.145z" fill="#223948"/></g><g><g opacity=".3"><path d="M178.73 147.442a1 1 0 01-1-1v-78.31l-18.188 5.158a1 1 0 01-1.234-.688l-3.865-13.526a1.002 1.002 0 01.629-1.218l25.395-8.969c.107-.037.22-.057.333-.057h13.802a1 1 0 011 1v96.609a1 1 0 01-1 1H178.73z"/><path d="M194.602 49.833v96.609H178.73V66.809l-19.46 5.52-3.865-13.526 25.395-8.969h13.802m0-2.001H180.8c-.227 0-.452.039-.666.114l-25.395 8.969a2 2 0 00-1.257 2.436l3.865 13.526a2.002 2.002 0 002.469 1.374l16.914-4.797v76.987a2 2 0 002 2h15.871a2 2 0 002-2V49.833a2 2 0 00-1.999-2z"/></g><path d="M176.73 145.442a1 1 0 01-1-1v-78.31l-18.188 5.158a1 1 0 01-1.234-.688l-3.865-13.526a1.002 1.002 0 01.629-1.218l25.395-8.969c.107-.037.22-.057.333-.057h13.802a1 1 0 011 1v96.609a1 1 0 01-1 1H176.73z" fill="#cceffe"/><path d="M192.602 47.833v96.609H176.73V64.809l-19.46 5.52-3.865-13.526 25.395-8.969h13.802m0-2.001H178.8c-.227 0-.452.039-.666.114l-25.395 8.969a2 2 0 00-1.257 2.436l3.865 13.526a2.002 2.002 0 002.469 1.374l16.914-4.797v76.987a2 2 0 002 2h15.871a2 2 0 002-2V47.833a2 2 0 00-1.999-2z" fill="#223948"/><g><g opacity=".3"><path d="M108.618 129.499a1 1 0 01-1-1v-22.323H85.294a1 1 0 01-1-1V91.1a1 1 0 011-1h22.324V67.774a1 1 0 011-1h14.078a1 1 0 011 1V90.1h22.324a1 1 0 011 1v14.076a1 1 0 01-1 1h-22.324v22.323a1 1 0 01-1 1h-14.078z"/><path d="M122.696 67.774V91.1h23.324v14.076h-23.324v23.323h-14.078v-23.323H85.294V91.1h23.324V67.774h14.078m0-2h-14.078a2 2 0 00-2 2V89.1H85.294a2 2 0 00-2 2v14.076a2 2 0 002 2h21.324v21.323a2 2 0 002 2h14.078a2 2 0 002-2v-21.323h21.324a2 2 0 002-2V91.1a2 2 0 00-2-2h-21.324V67.774a2 2 0 00-2-2z"/></g><path d="M106.618 127.499a1 1 0 01-1-1v-22.323H83.294a1 1 0 01-1-1V89.1a1 1 0 011-1h22.324V65.774a1 1 0 011-1h14.078a1 1 0 011 1V88.1h22.324a1 1 0 011 1v14.076a1 1 0 01-1 1h-22.324v22.323a1 1 0 01-1 1h-14.078z" fill="#cceffe"/><path d="M120.696 65.774V89.1h23.324v14.076h-23.324v23.323h-14.078v-23.323H83.294V89.1h23.324V65.774h14.078m0-2h-14.078a2 2 0 00-2 2V87.1H83.294a2 2 0 00-2 2v14.076a2 2 0 002 2h21.324v21.323a2 2 0 002 2h14.078a2 2 0 002-2v-21.323h21.324a2 2 0 002-2V89.1a2 2 0 00-2-2h-21.324V65.774a2 2 0 00-2-2z" fill="#223948"/></g></g></svg>