<svg xmlns="http://www.w3.org/2000/svg" xmlns:xlink="http://www.w3.org/1999/xlink" width="291.969" height="406.205"><symbol id="b" viewBox="-146 -203 292 407"><image width="292" height="407" xlink:href="5B121AEA.png" transform="matrix(1 0 0 -1 -146 204)" overflow="visible" opacity=".3"/><radialGradient id="a" cx="-3.05" cy="3.04" r="163.894" gradientTransform="matrix(0 1 -1.0315 0 .085 6.09)" gradientUnits="userSpaceOnUse"><stop offset="0" stop-color="#c889ba"/><stop offset=".207" stop-color="#bf83ba"/><stop offset=".544" stop-color="#a774ba"/><stop offset=".967" stop-color="#7f5cba"/><stop offset="1" stop-color="#7c5aba"/></radialGradient><path d="M-129.63-186.96a6.177 6.177 0 00-6.17 6.17v367.661a6.177 6.177 0 006.17 6.169h253.16a6.176 6.176 0 006.169-6.169V-180.79a6.177 6.177 0 00-6.169-6.17h-253.16z" fill="url(#a)"/><path d="M119.7 183.04v-360h-245.5v360h245.5m3.83 20h-253.16c-8.931 0-16.17-7.238-16.17-16.169V-180.79c0-8.93 7.239-16.17 16.17-16.17h253.16c8.93 0 16.169 7.24 16.169 16.17v367.661c.001 8.931-7.239 16.169-16.169 16.169z" fill="#c99ee8"/><path d="M123.53 193.04a6.176 6.176 0 006.169-6.169V-180.79a6.177 6.177 0 00-6.169-6.17h-253.16a6.177 6.177 0 00-6.17 6.17v367.661a6.177 6.177 0 006.17 6.169h253.16m0 10h-253.16c-8.931 0-16.17-7.238-16.17-16.169V-180.79c0-8.93 7.239-16.17 16.17-16.17h253.16c8.93 0 16.169 7.24 16.169 16.17v367.661c.001 8.931-7.239 16.169-16.169 16.169z" fill="#414042"/></symbol><use xlink:href="#b" width="292" height="407" x="-146" y="-203" transform="matrix(1 0 0 -1 145.969 203.205)" overflow="visible"/><linearGradient id="x" gradientUnits="userSpaceOnUse" x1="3259.293" y1="2090.921" x2="3212.197" y2="2090.921" gradientTransform="matrix(0 -1 -1 0 2182.36 3420.908)"><stop offset=".162" stop-color="#55ec36"/><stop offset=".327" stop-color="#45d627"/><stop offset=".511" stop-color="#39c61c"/><stop offset=".718" stop-color="#32bd15"/><stop offset="1" stop-color="#30ba13"/></linearGradient><path d="M93.558 162.578l17.843 20.461c1.587 1.819.295 4.662-2.119 4.662h-7.003v18.662a2.347 2.347 0 01-2.347 2.348H82.944a2.347 2.347 0 01-2.347-2.348v-18.662h-7.002c-2.415 0-3.707-2.843-2.12-4.662l17.843-20.461a2.815 2.815 0 014.24 0z" fill="url(#x)" stroke="#162f0d" stroke-width="2" stroke-linecap="round" stroke-miterlimit="10"/><linearGradient id="y" gradientUnits="userSpaceOnUse" x1="3259.293" y1="2038.423" x2="3212.197" y2="2038.423" gradientTransform="matrix(0 -1 -1 0 2182.36 3420.908)"><stop offset=".162" stop-color="#55ec36"/><stop offset=".327" stop-color="#45d627"/><stop offset=".511" stop-color="#39c61c"/><stop offset=".718" stop-color="#32bd15"/><stop offset="1" stop-color="#30ba13"/></linearGradient><path d="M146.057 162.578l17.843 20.461c1.587 1.819.294 4.662-2.12 4.662h-7.002v18.662a2.347 2.347 0 01-2.347 2.348h-16.987a2.347 2.347 0 01-2.347-2.348v-18.662h-7.003c-2.414 0-3.707-2.843-2.12-4.662l17.843-20.461a2.815 2.815 0 014.24 0z" fill="url(#y)" stroke="#162f0d" stroke-width="2" stroke-linecap="round" stroke-miterlimit="10"/><linearGradient id="z" gradientUnits="userSpaceOnUse" x1="3259.293" y1="1987.991" x2="3212.197" y2="1987.991" gradientTransform="matrix(0 -1 -1 0 2182.36 3420.908)"><stop offset=".162" stop-color="#55ec36"/><stop offset=".327" stop-color="#45d627"/><stop offset=".511" stop-color="#39c61c"/><stop offset=".718" stop-color="#32bd15"/><stop offset="1" stop-color="#30ba13"/></linearGradient><path d="M196.488 162.578l17.843 20.461c1.586 1.819.294 4.662-2.12 4.662h-7.003v18.662a2.347 2.347 0 01-2.347 2.348h-16.987a2.347 2.347 0 01-2.347-2.348v-18.662h-7.003c-2.414 0-3.707-2.843-2.12-4.662l17.843-20.461a2.816 2.816 0 014.241 0z" fill="url(#z)" stroke="#162f0d" stroke-width="2" stroke-linecap="round" stroke-miterlimit="10"/><g><image width="110" height="129" xlink:href="299DE425.png" transform="translate(34.063 33.795)" overflow="visible" opacity=".3"/><radialGradient id="A" cx="85.897" cy="95.183" r="53.424" gradientTransform="matrix(0 -1 .9399 0 -3.57 181.08)" gradientUnits="userSpaceOnUse"><stop offset="0" stop-color="#32b4ba"/><stop offset=".163" stop-color="#30abba"/><stop offset=".429" stop-color="#2b93ba"/><stop offset=".762" stop-color="#236bba"/><stop offset="1" stop-color="#1d4bba"/></radialGradient><path d="M69.296 153.216a1.283 1.283 0 01-1.218-.883l-30.494-92.5a1.272 1.272 0 01.073-.979c.089-.178.305-.496.744-.641l63.693-20.997a1.283 1.283 0 011.62.817l30.494 92.5c.145.438.017.802-.073.979a1.275 1.275 0 01-.744.641l-63.692 20.998a1.332 1.332 0 01-.403.065z" fill="url(#A)"/><path d="M101.402 40.603l29.419 89.237-60.431 19.923-29.418-89.239 60.43-19.921m1.094-6.453c-.444 0-.896.069-1.341.216L37.463 55.363a4.282 4.282 0 00-2.727 5.409l30.494 92.499a4.285 4.285 0 005.409 2.727L134.331 135a4.282 4.282 0 002.727-5.408l-30.494-92.499a4.285 4.285 0 00-4.068-2.943z" fill="#66c2e2"/><path d="M102.497 37.149a1.284 1.284 0 011.218.884l30.494 92.499c.145.438.017.802-.073.979a1.275 1.275 0 01-.745.641L69.699 153.15a1.283 1.283 0 01-1.621-.819L37.585 59.833a1.272 1.272 0 01.073-.979c.089-.178.305-.496.745-.641l63.691-20.997a1.3 1.3 0 01.403-.067m-.001-2.999c-.444 0-.896.069-1.341.216L37.463 55.363a4.282 4.282 0 00-2.727 5.409l30.494 92.499a4.285 4.285 0 005.409 2.727L134.331 135a4.282 4.282 0 002.727-5.408l-30.494-92.499a4.285 4.285 0 00-4.068-2.943z" fill="#414042"/><g><image width="41" height="60" xlink:href="299DE427.png" transform="translate(61.063 63.795)" overflow="visible" opacity=".3"/><linearGradient id="B" gradientUnits="userSpaceOnUse" x1="90.455" y1="117.968" x2="90.455" y2="104.944"><stop offset="0" stop-color="#70aefe"/><stop offset=".16" stop-color="#83bcfe"/><stop offset=".527" stop-color="#abd7fe"/><stop offset=".82" stop-color="#c3e9fe"/><stop offset="1" stop-color="#cceffe"/></linearGradient><path d="M90.47 117.968c-.428 0-.855-.043-1.27-.129-2.337-.484-4.173-2.11-4.912-4.349-.739-2.239-.229-4.64 1.362-6.42a6.416 6.416 0 016.059-1.997c2.337.484 4.173 2.11 4.912 4.349.739 2.239.229 4.64-1.362 6.42a6.421 6.421 0 01-4.789 2.126z" fill="url(#B)"/><path d="M90.439 105.944c.357 0 .714.035 1.067.108 4.223.875 5.881 5.906 3.007 9.123-1.023 1.145-2.524 1.792-4.044 1.792-.356 0-.714-.035-1.066-.108-4.224-.875-5.882-5.906-3.007-9.123 1.023-1.145 2.523-1.792 4.043-1.792m0-2a7.42 7.42 0 00-5.535 2.46c-1.833 2.05-2.418 4.816-1.566 7.399.852 2.582 2.967 4.456 5.659 5.014a7.422 7.422 0 007.007-2.309c1.833-2.051 2.418-4.817 1.566-7.4-.852-2.582-2.967-4.456-5.658-5.014-.481-.1-.976-.15-1.473-.15z" fill="#223948"/><g><linearGradient id="C" gradientUnits="userSpaceOnUse" x1="80.811" y1="101.538" x2="80.811" y2="67.551"><stop offset="0" stop-color="#70aefe"/><stop offset=".16" stop-color="#83bcfe"/><stop offset=".527" stop-color="#abd7fe"/><stop offset=".82" stop-color="#c3e9fe"/><stop offset="1" stop-color="#cceffe"/></linearGradient><path d="M82.273 101.538c-.519 0-.969-.332-1.12-.827-1.21-3.967.414-8.535 2.337-11.488 2.22-3.405 3.17-6.574 2.542-8.477-.535-1.625-1.679-2.448-3.399-2.448-.726 0-1.541.146-2.42.437-3.007.991-4.585 3.224-4.822 6.823a1.163 1.163 0 01-1.155 1.087h-.106l-8.451-1.748a1.184 1.184 0 01-.928-1.228c.503-7.107 5.148-12.783 12.426-15.183 1.882-.621 3.773-.936 5.623-.936 1.931 0 3.871.343 5.766 1.02 3.745 1.336 6.322 4.072 7.659 8.133 1.845 5.593-.622 10.186-2.604 13.876-1.4 2.607-2.609 4.859-2.049 6.777a1.151 1.151 0 01-.751 1.426l-8.334 2.748-.214.008z" fill="url(#C)"/><path d="M82.8 68.551c1.836 0 3.645.324 5.43.961 3.479 1.241 5.808 3.748 7.045 7.504 2.998 9.088-6.236 15.239-4.664 20.621a.155.155 0 01-.099.194l-8.187 2.699a.17.17 0 01-.215-.11c-1.099-3.601.434-7.911 2.219-10.651 1.813-2.782 3.547-6.629 2.654-9.336-.686-2.08-2.231-3.135-4.349-3.135-.829 0-1.746.161-2.733.486-3.394 1.119-5.244 3.715-5.508 7.708a.16.16 0 01-.157.152c-.011 0-.021-.002-.033-.004l-8.322-1.724a.171.171 0 01-.133-.177c.488-6.896 5.14-12.128 11.741-14.305 1.799-.591 3.567-.883 5.311-.883m0-2c-1.956 0-3.954.331-5.937.985-7.676 2.531-12.577 8.536-13.11 16.063a2.158 2.158 0 001.684 2.269l8.36 1.731.201.042.238.004a2.165 2.165 0 002.153-2.021c.211-3.19 1.526-5.078 4.139-5.939.777-.256 1.486-.386 2.106-.386 1.293 0 2.048.543 2.45 1.761.525 1.593-.406 4.512-2.43 7.618-2.047 3.142-3.768 8.03-2.457 12.327a2.157 2.157 0 002.076 1.534c.225 0 .448-.034.662-.104l8.204-2.704a2.144 2.144 0 001.393-2.654c-.446-1.525.674-3.609 1.97-6.023 2.073-3.859 4.653-8.662 2.673-14.664-1.439-4.368-4.223-7.315-8.273-8.761a18.102 18.102 0 00-6.102-1.078z" fill="#223948"/></g></g><g><image width="110" height="129" xlink:href="299DE424.png" transform="translate(90.063 33.795)" overflow="visible" opacity=".3"/><radialGradient id="D" cx="142.032" cy="95.183" r="53.424" gradientTransform="matrix(0 -1 .9399 0 52.566 237.215)" gradientUnits="userSpaceOnUse"><stop offset="0" stop-color="#32b4ba"/><stop offset=".163" stop-color="#30abba"/><stop offset=".429" stop-color="#2b93ba"/><stop offset=".762" stop-color="#236bba"/><stop offset="1" stop-color="#1d4bba"/></radialGradient><path d="M125.432 153.216a1.283 1.283 0 01-1.218-.883l-30.494-92.5a1.272 1.272 0 01.073-.979c.089-.178.305-.496.744-.641l63.693-20.997a1.283 1.283 0 011.62.817l30.494 92.5c.145.439.017.802-.073.979a1.275 1.275 0 01-.744.641l-63.692 20.998a1.332 1.332 0 01-.403.065z" fill="url(#D)"/><path d="M157.538 40.603l29.419 89.237-60.431 19.923-29.419-89.239 60.431-19.921m1.094-6.453c-.444 0-.896.069-1.341.216L93.599 55.363a4.282 4.282 0 00-2.727 5.409l30.494 92.499a4.285 4.285 0 005.409 2.727L190.466 135a4.282 4.282 0 002.727-5.408l-30.494-92.499a4.284 4.284 0 00-4.067-2.943z" fill="#66c2e2"/><path d="M158.632 37.149a1.284 1.284 0 011.218.884l30.494 92.5a1.27 1.27 0 01-.073.978 1.275 1.275 0 01-.745.641l-63.691 20.999a1.283 1.283 0 01-1.621-.819L93.721 59.833a1.272 1.272 0 01.073-.979c.089-.178.305-.496.745-.641l63.691-20.997c.131-.044.267-.066.402-.067m0-2.999c-.444 0-.896.069-1.341.216L93.599 55.363a4.282 4.282 0 00-2.727 5.409l30.494 92.499a4.285 4.285 0 005.409 2.727L190.466 135a4.282 4.282 0 002.727-5.408l-30.494-92.499a4.284 4.284 0 00-4.067-2.943z" fill="#414042"/><g><image width="42" height="60" xlink:href="299DE43C.png" transform="translate(117.063 63.795)" overflow="visible" opacity=".3"/><linearGradient id="E" gradientUnits="userSpaceOnUse" x1="146.59" y1="117.968" x2="146.59" y2="104.944"><stop offset="0" stop-color="#70aefe"/><stop offset=".16" stop-color="#83bcfe"/><stop offset=".527" stop-color="#abd7fe"/><stop offset=".82" stop-color="#c3e9fe"/><stop offset="1" stop-color="#cceffe"/></linearGradient><path d="M146.605 117.968c-.428 0-.855-.043-1.27-.129-2.337-.484-4.173-2.11-4.912-4.349-.739-2.239-.229-4.64 1.362-6.42a6.416 6.416 0 016.059-1.997c2.337.484 4.173 2.11 4.912 4.349.739 2.239.229 4.64-1.362 6.42a6.418 6.418 0 01-4.789 2.126z" fill="url(#E)"/><path d="M146.575 105.944c.357 0 .714.035 1.067.108 4.223.875 5.881 5.906 3.007 9.123-1.023 1.145-2.524 1.792-4.044 1.792-.356 0-.714-.035-1.066-.108-4.224-.875-5.882-5.906-3.007-9.123 1.023-1.145 2.523-1.792 4.043-1.792m0-2a7.42 7.42 0 00-5.535 2.46c-1.833 2.05-2.418 4.816-1.566 7.399.852 2.582 2.967 4.456 5.659 5.014a7.422 7.422 0 007.007-2.309c1.833-2.051 2.418-4.817 1.566-7.4-.852-2.582-2.967-4.456-5.658-5.014-.481-.1-.977-.15-1.473-.15z" fill="#223948"/><g><linearGradient id="F" gradientUnits="userSpaceOnUse" x1="136.947" y1="101.538" x2="136.947" y2="67.551"><stop offset="0" stop-color="#70aefe"/><stop offset=".16" stop-color="#83bcfe"/><stop offset=".527" stop-color="#abd7fe"/><stop offset=".82" stop-color="#c3e9fe"/><stop offset="1" stop-color="#cceffe"/></linearGradient><path d="M138.409 101.538c-.519 0-.969-.332-1.12-.827-1.21-3.967.414-8.535 2.337-11.488 2.22-3.405 3.17-6.574 2.542-8.477-.536-1.625-1.679-2.448-3.399-2.448-.727 0-1.541.146-2.42.437-3.007.991-4.585 3.224-4.822 6.823a1.164 1.164 0 01-1.155 1.087h-.106l-8.451-1.748a1.184 1.184 0 01-.928-1.228c.503-7.107 5.148-12.783 12.426-15.183 1.882-.621 3.773-.936 5.623-.936 1.931 0 3.871.343 5.766 1.02 3.745 1.336 6.322 4.072 7.659 8.133 1.845 5.593-.622 10.186-2.604 13.876-1.4 2.607-2.609 4.859-2.049 6.777a1.151 1.151 0 01-.751 1.426l-8.334 2.748-.214.008z" fill="url(#F)"/><path d="M138.936 68.551c1.836 0 3.645.324 5.43.961 3.479 1.241 5.808 3.748 7.045 7.504 2.997 9.088-6.236 15.239-4.664 20.621a.155.155 0 01-.099.194l-8.187 2.699a.17.17 0 01-.215-.11c-1.099-3.601.434-7.911 2.219-10.651 1.813-2.782 3.547-6.629 2.654-9.336-.686-2.08-2.231-3.135-4.349-3.135-.829 0-1.746.161-2.733.486-3.394 1.119-5.244 3.715-5.508 7.708a.16.16 0 01-.157.152c-.011 0-.021-.002-.033-.004l-8.322-1.724a.171.171 0 01-.133-.177c.488-6.896 5.14-12.128 11.741-14.305 1.799-.591 3.567-.883 5.311-.883m0-2c-1.956 0-3.954.331-5.937.985-7.676 2.531-12.577 8.536-13.11 16.063a2.158 2.158 0 001.684 2.269l8.36 1.731.201.042.238.004a2.165 2.165 0 002.153-2.021c.211-3.19 1.526-5.078 4.139-5.939.777-.256 1.486-.386 2.106-.386 1.292 0 2.048.543 2.45 1.761.525 1.593-.406 4.512-2.43 7.618-2.047 3.142-3.768 8.03-2.457 12.327a2.157 2.157 0 002.076 1.534c.225 0 .448-.034.662-.104l8.204-2.704a2.143 2.143 0 001.393-2.653c-.446-1.526.674-3.611 1.97-6.024 2.073-3.859 4.652-8.662 2.673-14.663-1.439-4.369-4.223-7.316-8.273-8.762a18.102 18.102 0 00-6.102-1.078z" fill="#223948"/></g></g></g><g><image width="110" height="129" xlink:href="299DE43D.png" transform="translate(148.063 30.795)" overflow="visible" opacity=".3"/><radialGradient id="G" cx="200.138" cy="92.228" r="53.423" gradientTransform="matrix(0 -1 .9399 0 113.448 292.366)" gradientUnits="userSpaceOnUse"><stop offset="0" stop-color="#32b4ba"/><stop offset=".163" stop-color="#30abba"/><stop offset=".429" stop-color="#2b93ba"/><stop offset=".762" stop-color="#236bba"/><stop offset="1" stop-color="#1d4bba"/></radialGradient><path d="M183.539 150.261a1.282 1.282 0 01-1.219-.883l-30.494-92.5a1.285 1.285 0 01.818-1.621l63.691-20.995a1.282 1.282 0 011.621.817l30.494 92.499c.145.439.017.803-.073.979a1.275 1.275 0 01-.744.641l-63.692 20.998a1.3 1.3 0 01-.402.065z" fill="url(#G)"/><path d="M215.644 37.647l29.418 89.238-60.431 19.923-29.419-89.239 60.432-19.922m1.094-6.452c-.445 0-.897.07-1.342.217l-63.691 20.996a4.283 4.283 0 00-2.727 5.409l30.494 92.5a4.284 4.284 0 005.409 2.727l63.691-20.998a4.282 4.282 0 002.727-5.409l-30.494-92.499a4.286 4.286 0 00-4.067-2.943z" fill="#66c2e2"/><path d="M216.738 34.195c.461 0 1.017.272 1.218.883l30.494 92.499c.145.439.017.802-.073.979a1.278 1.278 0 01-.745.641l-63.69 20.998a1.282 1.282 0 01-1.622-.818l-30.494-92.5a1.284 1.284 0 01.817-1.62l63.692-20.997c.132-.042.268-.065.403-.065m0-3c-.445 0-.897.07-1.342.217l-63.691 20.996a4.283 4.283 0 00-2.727 5.409l30.494 92.5a4.284 4.284 0 005.409 2.727l63.691-20.998a4.282 4.282 0 002.727-5.409l-30.494-92.499a4.286 4.286 0 00-4.067-2.943z" fill="#414042"/><g><image width="42" height="60" xlink:href="299DE43F.png" transform="translate(175.063 60.795)" overflow="visible" opacity=".3"/><linearGradient id="H" gradientUnits="userSpaceOnUse" x1="204.696" y1="115.014" x2="204.696" y2="101.989"><stop offset="0" stop-color="#70aefe"/><stop offset=".16" stop-color="#83bcfe"/><stop offset=".527" stop-color="#abd7fe"/><stop offset=".82" stop-color="#c3e9fe"/><stop offset="1" stop-color="#cceffe"/></linearGradient><path d="M204.71 115.014c-.428 0-.854-.043-1.269-.129-2.337-.484-4.174-2.11-4.912-4.349-.738-2.239-.229-4.64 1.363-6.42a6.42 6.42 0 016.059-1.998c2.337.484 4.173 2.11 4.912 4.349.739 2.239.229 4.64-1.362 6.42a6.43 6.43 0 01-4.791 2.127c-.001 0 0 0 0 0z" fill="url(#H)"/><path d="M204.682 102.989c.356 0 .714.035 1.066.108 4.223.875 5.881 5.906 3.007 9.123-1.023 1.145-2.525 1.793-4.045 1.793-.356 0-.713-.035-1.065-.108-4.224-.875-5.882-5.906-3.007-9.123a5.458 5.458 0 014.044-1.793m0-2a7.42 7.42 0 00-5.536 2.461c-1.833 2.05-2.418 4.816-1.566 7.399.852 2.582 2.967 4.456 5.659 5.014a7.423 7.423 0 007.007-2.31c1.833-2.051 2.418-4.817 1.566-7.4-.852-2.582-2.967-4.456-5.658-5.014a7.33 7.33 0 00-1.472-.15z" fill="#223948"/><g><linearGradient id="I" gradientUnits="userSpaceOnUse" x1="195.052" y1="98.584" x2="195.052" y2="64.597"><stop offset="0" stop-color="#70aefe"/><stop offset=".16" stop-color="#83bcfe"/><stop offset=".527" stop-color="#abd7fe"/><stop offset=".82" stop-color="#c3e9fe"/><stop offset="1" stop-color="#cceffe"/></linearGradient><path d="M196.513 98.584c-.512 0-.973-.342-1.12-.831-1.209-3.963.415-8.531 2.338-11.484 2.22-3.405 3.17-6.574 2.542-8.478-.536-1.624-1.679-2.448-3.399-2.448-.727 0-1.541.147-2.42.438-3.008.99-4.585 3.223-4.823 6.822a1.166 1.166 0 01-1.154 1.087h-.111l-8.447-1.748a1.178 1.178 0 01-.928-1.227c.503-7.108 5.148-12.784 12.426-15.184 1.882-.62 3.774-.935 5.624-.935 1.93 0 3.87.342 5.765 1.018 3.745 1.338 6.322 4.074 7.659 8.134 1.845 5.593-.623 10.187-2.604 13.877-1.4 2.607-2.61 4.859-2.049 6.777a1.154 1.154 0 01-.739 1.422l-8.346 2.751-.214.009z" fill="url(#I)"/><path d="M197.042 65.597c1.835 0 3.644.323 5.429.96 3.479 1.242 5.808 3.748 7.045 7.504 2.997 9.089-6.236 15.24-4.664 20.622a.156.156 0 01-.099.194l-8.187 2.698a.169.169 0 01-.215-.11c-1.099-3.6.434-7.91 2.219-10.65 1.813-2.782 3.547-6.629 2.654-9.337-.686-2.079-2.231-3.135-4.349-3.135-.829 0-1.747.162-2.733.487-3.394 1.118-5.244 3.714-5.508 7.707a.16.16 0 01-.156.152.137.137 0 01-.034-.004l-8.322-1.724a.17.17 0 01-.133-.177c.488-6.895 5.14-12.128 11.741-14.304 1.8-.591 3.568-.883 5.312-.883m0-2c-1.957 0-3.954.331-5.938.985-7.562 2.492-12.585 8.647-13.11 16.062a2.18 2.18 0 001.707 2.273l8.337 1.727.201.042.239.004a2.167 2.167 0 002.151-2.013c.211-3.199 1.526-5.087 4.139-5.947.778-.257 1.487-.387 2.107-.387 1.292 0 2.048.543 2.449 1.761.525 1.594-.406 4.513-2.43 7.619-2.047 3.143-3.768 8.03-2.457 12.326a2.154 2.154 0 002.075 1.535c.232 0 .462-.037.683-.11l8.183-2.697a2.155 2.155 0 001.393-2.653c-.446-1.526.674-3.611 1.97-6.024 2.073-3.859 4.652-8.663 2.673-14.664-1.438-4.367-4.222-7.315-8.272-8.762a18.106 18.106 0 00-6.1-1.077z" fill="#223948"/></g></g></g></g><g><image width="202" height="163" xlink:href="299DE459.png" transform="translate(45.063 216.795)" overflow="visible" opacity=".3"/><path d="M201.091 342.137c-24.919 0-35.996-3.111-37.038-10.403-.437-3.058-.297-8.091-.149-13.42.075-2.687.152-5.464.152-7.986 0-7.999 9.463-24.204 22.947-26.242l1.188-.18.474.639c.669.257 3.428 1.066 12.355 1.453 9.192-.397 11.937-1.243 12.553-1.487l.499-.592 1.106.167c13.484 2.038 22.947 18.243 22.947 26.242 0 2.522.077 5.302.152 7.988.148 5.328.288 10.361-.148 13.417-1.041 7.292-12.118 10.404-37.038 10.404z" fill="#fff"/><path d="M214.88 286.063c12.276 1.855 21.246 16.842 21.246 24.265 0 7.418.652 16.722.023 21.123-.695 4.87-8.168 8.687-35.058 8.687s-34.362-3.816-35.058-8.687c-.628-4.401.023-13.705.023-21.123 0-7.423 8.97-22.409 21.246-24.265 0 0 1.035 1.394 13.718 1.937 12.686-.544 13.86-1.937 13.86-1.937m-25.798-4.315l-2.376.359c-14.064 2.126-24.648 18.585-24.648 28.22 0 2.494-.077 5.258-.151 7.931-.15 5.417-.292 10.533.168 13.758 1.23 8.609 12.534 12.121 39.018 12.121s37.789-3.512 39.018-12.121c.46-3.225.318-8.34.167-13.755-.074-2.674-.151-5.438-.151-7.934 0-9.635-10.584-26.094-24.648-28.22l-2.213-.335-.852 1.011c-1.014.277-3.999.889-11.392 1.212-7.083-.311-10.057-.884-11.137-1.166l-.803-1.081z" fill="#223948"/><path d="M200.797 288.061c-1.544 0-5.302-.033-6.843-.342-6.923-1.381-23.03-7.696-23.03-36.442 0-20.923 10.579-32.446 29.787-32.446 19.413 0 30.547 11.826 30.547 32.446 0 26.876-13.071 34.687-24.036 36.506-1.225.204-4.123.278-6.425.278z" fill="#fff"/><path d="M200.711 220.83c21.314 0 28.547 14.134 28.547 30.446 0 22.975-9.57 32.41-22.363 34.533-.975.163-3.519.251-6.099.251-2.688 0-5.416-.096-6.45-.303-11.145-2.223-21.423-11.884-21.423-34.481.001-16.312 6.568-30.446 27.788-30.446m0-4c-20.498 0-31.787 12.233-31.787 34.446 0 30.227 17.232 36.927 24.641 38.404 1.65.331 5.24.38 7.232.38 1.481 0 5.106-.029 6.759-.306 11.723-1.945 25.703-10.201 25.703-38.479 0-21.89-11.863-34.445-32.548-34.445z" fill="#223948"/><g><path d="M84.405 342.137c-24.92 0-35.997-3.111-37.038-10.404-.437-3.056-.296-8.089-.148-13.417.075-2.687.152-5.466.152-7.988 0-7.999 9.463-24.204 22.947-26.242l1.188-.18.474.639c.668.258 3.427 1.066 12.355 1.453 9.192-.397 11.936-1.243 12.552-1.487l.499-.592 1.106.167c13.484 2.038 22.947 18.243 22.947 26.242 0 2.522.077 5.3.152 7.986.148 5.329.288 10.362-.149 13.419-1.042 7.292-12.118 10.404-37.037 10.404z" fill="#fff"/><path d="M98.193 286.063c12.276 1.855 21.246 16.842 21.246 24.265 0 7.418.651 16.722.023 21.123-.696 4.87-8.168 8.687-35.058 8.687s-34.363-3.816-35.058-8.687c-.628-4.401.023-13.705.023-21.123 0-7.423 8.97-22.409 21.246-24.265 0 0 1.034 1.394 13.719 1.937 12.685-.544 13.859-1.937 13.859-1.937m-25.798-4.315l-2.377.359c-14.064 2.126-24.648 18.585-24.648 28.22 0 2.495-.077 5.26-.151 7.934-.151 5.415-.293 10.53.167 13.755 1.229 8.609 12.534 12.121 39.018 12.121 26.483 0 37.788-3.512 39.018-12.121.46-3.225.318-8.341.168-13.758-.074-2.673-.151-5.437-.151-7.931 0-9.635-10.584-26.094-24.648-28.22l-2.213-.335-.852 1.011c-1.014.277-3.998.889-11.392 1.212-7.082-.31-10.057-.884-11.137-1.166l-.802-1.081z" fill="#223948"/><g><path d="M84.109 288.061c-1.544 0-5.302-.033-6.843-.342-6.923-1.381-23.029-7.696-23.029-36.442 0-20.923 10.579-32.446 29.787-32.446 19.414 0 30.548 11.826 30.548 32.446 0 26.876-13.071 34.687-24.036 36.506-1.227.204-4.124.278-6.427.278z" fill="#fff"/><path d="M84.024 220.83c21.314 0 28.548 14.134 28.548 30.446 0 22.975-9.571 32.41-22.363 34.533-.975.163-3.519.251-6.099.251-2.688 0-5.416-.096-6.45-.303-11.145-2.223-21.422-11.884-21.422-34.481-.001-16.312 6.566-30.446 27.786-30.446m0-4c-20.498 0-31.787 12.233-31.787 34.446 0 30.227 17.231 36.927 24.64 38.404 1.651.331 5.24.38 7.232.38 1.481 0 5.106-.029 6.759-.306 11.723-1.945 25.704-10.201 25.704-38.479 0-21.89-11.864-34.445-32.548-34.445z" fill="#223948"/></g></g><g><path d="M142.653 371.667c-24.919 0-35.996-3.111-37.038-10.402-.436-3.058-.296-8.091-.148-13.42.074-2.687.151-5.464.151-7.986 0-8 9.463-24.205 22.947-26.242l1.188-.18.474.639c.669.257 3.428 1.066 12.356 1.453 9.193-.397 11.937-1.243 12.553-1.487l.499-.592 1.106.167c13.484 2.037 22.947 18.242 22.947 26.242 0 2.522.077 5.302.152 7.988.148 5.328.288 10.361-.148 13.417-1.043 7.292-12.119 10.403-37.039 10.403z" fill="#fff"/><path d="M156.442 315.594c12.276 1.854 21.246 16.842 21.246 24.265 0 7.418.652 16.722.023 21.123-.696 4.869-8.168 8.686-35.058 8.686s-34.362-3.816-35.058-8.686c-.628-4.401.023-13.705.023-21.123 0-7.423 8.971-22.41 21.246-24.265 0 0 1.035 1.394 13.719 1.937 12.684-.544 13.859-1.937 13.859-1.937m-25.799-4.315l-2.376.359c-14.064 2.125-24.648 18.584-24.648 28.22 0 2.494-.077 5.258-.151 7.931-.15 5.417-.292 10.532.168 13.758 1.23 8.608 12.535 12.12 39.018 12.12s37.788-3.512 39.018-12.12c.46-3.225.318-8.34.167-13.755-.074-2.674-.151-5.438-.151-7.934 0-9.636-10.584-26.095-24.648-28.22l-2.213-.334-.852 1.01c-1.013.277-3.998.889-11.392 1.212-7.083-.311-10.058-.884-11.138-1.166l-.802-1.081z" fill="#223948"/><g><path d="M142.358 317.592c-1.544 0-5.302-.033-6.843-.342-6.923-1.381-23.029-7.696-23.029-36.442 0-20.923 10.579-32.446 29.787-32.446 19.413 0 30.547 11.826 30.547 32.446 0 26.876-13.071 34.687-24.036 36.506-1.226.205-4.124.278-6.426.278z" fill="#fff"/><path d="M142.273 250.361c21.314 0 28.547 14.133 28.547 30.446 0 22.974-9.57 32.41-22.363 34.533-.975.163-3.519.251-6.099.251-2.688 0-5.416-.096-6.45-.303-11.145-2.223-21.422-11.885-21.422-34.481 0-16.313 6.567-30.446 27.787-30.446m0-4c-20.498 0-31.787 12.233-31.787 34.446 0 30.227 17.231 36.927 24.64 38.404 1.651.331 5.24.38 7.232.38 1.481 0 5.105-.029 6.758-.306 11.723-1.945 25.704-10.201 25.704-38.479 0-21.89-11.863-34.445-32.547-34.445z" fill="#223948"/></g></g></g></svg>