<svg xmlns="http://www.w3.org/2000/svg" xmlns:xlink="http://www.w3.org/1999/xlink" width="291.969" height="406.205"><image width="292" height="407" xlink:href="17F1F520.png" transform="translate(.031)" overflow="visible" opacity=".3"/><radialGradient id="a" cx="143.214" cy="200.357" r="163.894" gradientTransform="matrix(0 -1 1.0315 0 -63.458 343.572)" gradientUnits="userSpaceOnUse"><stop offset="0" stop-color="#d4ff40"/><stop offset=".181" stop-color="#cbfa3a"/><stop offset=".476" stop-color="#b3ed29"/><stop offset=".847" stop-color="#8bd80d"/><stop offset="1" stop-color="#79ce00"/></radialGradient><path d="M16.635 390.357a6.177 6.177 0 01-6.17-6.17V16.525a6.176 6.176 0 016.17-6.168h253.16a6.176 6.176 0 016.169 6.168v367.662a6.177 6.177 0 01-6.169 6.17H16.635z" fill="url(#a)"/><path d="M265.964 20.357v360H20.465v-360h245.499m3.831-20H16.635C7.703.357.465 7.595.465 16.525v367.662c0 8.932 7.238 16.17 16.17 16.17h253.16c8.93 0 16.169-7.238 16.169-16.17V16.525c0-8.929-7.239-16.168-16.169-16.168z" fill="#b6e05c"/><path d="M269.795 10.357a6.176 6.176 0 016.169 6.168v367.662a6.177 6.177 0 01-6.169 6.17H16.635a6.177 6.177 0 01-6.17-6.17V16.525a6.176 6.176 0 016.17-6.168h253.16m0-10H16.635C7.703.357.465 7.595.465 16.525v367.662c0 8.932 7.238 16.17 16.17 16.17h253.16c8.93 0 16.169-7.238 16.169-16.17V16.525c0-8.929-7.239-16.168-16.169-16.168z" fill="#414042"/><g><image width="236" height="176" xlink:href="17F1F521.png" transform="translate(29.031 114)" overflow="visible" opacity=".3"/><path d="M258.086 162.825c-.74-5.339-3.983-9.829-6.358-12.742-.563-.691-1.104-1.382-1.64-2.063-2.021-2.579-4.113-5.246-7.051-7.495-.173-.132-.363-.284-.569-.448-.454-.361-.962-.76-1.503-1.148 1.402-1.428 1.971-2.746 2.56-4.134l.112-.265c1.127-2.648 1.326-7.009-4.131-12.749-2.826-2.973-6.506-4.499-9.732-5.6-4.198-1.432-8.67-2.157-13.291-2.157-9.208 0-17.97 2.877-24.67 8.102-2.434 1.897-4.645 4.015-6.782 6.063-2.719 2.604-5.286 5.063-8.164 6.979-3.299 2.197-7.188 3.135-13.002 3.135-1.999 0-4.029-.1-6.179-.205-2.204-.108-4.482-.22-6.784-.22-2.827 0-5.303.175-7.569.534a82.227 82.227 0 00-2.975.544c-2.073.404-4.031.786-5.888.786l-.175-.001c-2.21-.029-4.011-.414-6.096-.859-1.817-.388-3.696-.789-5.988-.987-4.408-.382-7.1-.769-9.064-1.051-1.708-.245-2.941-.423-4.206-.423-1.844 0-3.447.387-5.594 1.055-1.177.365-2.905.629-4.577.883-1.897.289-3.858.588-5.544 1.098-3.438 1.041-7.131 1.433-11.039 1.847-5.757.61-11.71 1.241-17.233 4.071-5.273 2.703-9.487 6.018-13.948 9.527-.835.657-1.677 1.319-2.532 1.982a237.42 237.42 0 01-3.08 2.331c-3.054 2.284-6.211 4.646-9.085 7.506-6.195 6.164-8.785 19.17-5.544 27.833.987 2.639 3.839 4.481 6.935 4.481.838 0 1.65-.142 2.397-.415-.387 6.5.231 13.474 1.883 20.494.909 3.867 2.072 7.607 3.197 11.224 2.333 7.499 4.536 14.583 4.356 22.108-.027 1.16-.186 2.667-.354 4.263-.629 5.98-1.411 13.422 2.862 17.594 2.313 2.259 6.396 3.662 10.651 3.662 4.738 0 8.697-1.714 10.862-4.7.493-.682.816-1.436 1.038-2.225a7.03 7.03 0 001.221 1.188c1.541 1.159 3.303 1.499 4.822 1.678a29.854 29.854 0 004.916.173c1.261-.061 2.733-.231 4.102-1.04 1.615-.955 3.549-3.065 3.592-7.694.008-.805.033-1.67.06-2.571.123-4.123.242-8.752-1.015-12.544 3.472-1.502 6.733-3.563 9.715-6.158a32.889 32.889 0 003.079-.643 24.716 24.716 0 001.966-.608c15.263 3.681 30.868 4.335 45.569 4.408a16.713 16.713 0 002.622 2.939c.45 1.113.705 2.172.83 3.408l.012.133.012.137.002.024.002.024c.024.304.035.627.047.95l.014.303c.005.085.01.17.012.255.007.585-.003 1.187-.029 1.839-.055 1.317-.169 2.513-.279 3.668-.2 2.09-.407 4.249-.209 6.817-.079 2.186-.08 4.705.719 7.251.094.3.201.558.287.753.349 1.473.835 2.682 1.482 3.689 2.314 3.607 7.519 4.561 9.946 4.561l.226-.003c2.43-.052 7.483-.161 9.813-3.512.245-.354.467-.746.668-1.171.646.249 1.269.398 1.761.513.156.036.382.089.5.122l.225.108.354.095c1.45.385 4.938.541 6.149.541.47 0 .831-.016 1.138-.049 2.042-.222 5.537-1.869 6.79-4.386.766-1.54.971-3.351 1.024-4.294.126-2.185.273-4.203.416-6.155.146-1.979.295-4.025.424-6.267.042-.732.103-1.502.163-2.289.19-2.439.405-5.205.171-7.722l-.023-.26c-.465-5.309-.809-7.807-1.808-9.207 10.462-9.105 20.468-19.784 25.122-36.418.377-1.345.691-2.633.996-3.879.79-3.232 1.539-6.297 3.274-9.89l.259-.194c1.488-1.118 1.928-1.868 2.588-3.541l.073-.081c.518-.572.99-1.096 1.316-1.729.351-.574.899-1.518 1.021-1.729l1.179-2.031c.433.03.87.056 1.329.056 3.203 0 6.602-.777 9.6-1.463 1.459-.334 2.838-.649 4.079-.854 1.862-.308 3.41-.799 4.733-1.505 4.664-2.487 7.249-8.098 6.437-13.961z" fill="#8e8e8e"/><path d="M84.141 272.711c-1.112 0-2.236-.066-3.341-.197-1.335-.158-2.872-.449-4.146-1.407-2.195-1.651-2.666-4.451-2.837-6.971a87.19 87.19 0 01.105-13.129l.107.004c.055-.284.172-.614.423-.92.544-.658 1.316-.735 1.607-.764a61.76 61.76 0 018.799-.231c.218-.102.609-.323.883-.478 1.117-.631 1.837-1.018 2.554-1.018.371 0 .72.107 1.008.312.853.598 1.22 1.529 1.438 2.086 1.432 3.647 1.29 8.471 1.164 12.726-.027.912-.053 1.789-.061 2.604-.03 3.148-1.034 5.396-2.905 6.503-1.101.651-2.312.792-3.455.847-.446.023-.895.033-1.343.033z" fill="#fff"/><path d="M88.296 249.102c.059 0 .107.012.143.037.465.326.7.882.908 1.41 1.621 4.129 1.039 10.332.999 14.768-.019 1.975-.47 4.221-2.169 5.226-.822.486-1.81.594-2.764.64a27.035 27.035 0 01-4.439-.157c-1.205-.143-2.45-.387-3.42-1.116-1.73-1.302-2.096-3.714-2.242-5.874a85.359 85.359 0 01.104-12.902l.025 13.796.038-13.329c.001-.193.007-.404.13-.554.14-.169.381-.203.598-.225a59.997 59.997 0 018.809-.214h.013c.524-.001 2.594-1.506 3.267-1.506m0-3c-1.147 0-2.141.562-3.292 1.212-.142.08-.322.182-.48.269a63.26 63.26 0 00-8.609.253c-.418.042-1.681.167-2.617 1.299a3.576 3.576 0 00-.768 1.752l-.103-.004a88.739 88.739 0 00-.107 13.355c.117 1.73.392 5.782 3.432 8.069 1.559 1.173 3.337 1.517 4.871 1.698a30 30 0 004.934.174c1.274-.061 2.762-.234 4.148-1.054 1.637-.968 3.598-3.104 3.642-7.779.007-.808.033-1.673.06-2.575.13-4.399.278-9.386-1.266-13.317-.263-.669-.752-1.91-1.978-2.77a3.212 3.212 0 00-1.867-.582z" fill="#6d6e71"/><path d="M188.019 277.922c-1.849 0-5.605-.205-6.807-.477l-.123-.028-.117-.048c-1.106-.455-2.497-1.145-3.444-2.457-1.26-1.747-1.258-3.923-1.257-5.512l.016-16.547c0-5.672.379-6.348.583-6.71.616-1.095 2.163-1.481 5.303-2.046.613-.11 1.452-.261 1.667-.341l6.701-2.659c.515-.205 1.122-.423 1.806-.423.397 0 .776.076 1.125.225 1.233.526 1.568 2.124 1.892 6.359.021.271.036.481.049.599.359 3.292.137 6.576-.078 9.75l-.96 14.215c-.068 1.021-.154 2.292-.828 3.448-.852 1.458-2.529 2.435-4.488 2.617-.24.023-.6.035-1.04.035z" fill="#fff"/><path d="M192.346 242.175c.183 0 .362.03.535.104.735.313.953 4.947 1.04 5.742.344 3.147.131 6.326-.083 9.486l-.96 14.215c-.064.961-.142 1.961-.627 2.793-.668 1.144-2.012 1.757-3.33 1.879-.208.019-.52.028-.902.028-1.887 0-5.472-.212-6.476-.44-1.086-.446-2.122-1.011-2.798-1.947-.939-1.303-.975-3.027-.974-4.633l.016-16.547c0-.775.011-5.301.391-5.978.507-.901 5.251-1.344 6.212-1.726l6.704-2.66c.399-.158.834-.316 1.252-.316m0-3c-.904 0-1.668.254-2.359.528l-3.352 1.33-3.293 1.307c-.242.066-.928.19-1.435.281-3.295.593-5.365 1.045-6.344 2.786-.346.617-.776 1.382-.776 7.448l-.008 8.271-.008 8.274c-.001 1.693-.002 4.25 1.541 6.39 1.169 1.621 2.8 2.437 4.09 2.967l.233.096.246.055c1.469.333 5.486.514 7.138.514.497 0 .881-.013 1.177-.041 2.441-.226 4.551-1.479 5.646-3.353.853-1.461.955-2.99 1.03-4.105l.011-.167.949-14.046c.219-3.239.446-6.59.072-10.014-.012-.109-.026-.302-.045-.551-.315-4.122-.619-6.695-2.801-7.625a4.317 4.317 0 00-1.712-.345z" fill="#6d6e71"/><path d="M168.089 282.112c-2.413 0-6.635-.986-8.378-3.703-.553-.861-.971-1.934-1.275-3.274l-.017-.038a6.096 6.096 0 01-.269-.686c-.723-2.306-.706-4.68-.629-6.729-.2-2.45-.007-4.467.198-6.6.113-1.18.23-2.4.286-3.767a36.03 36.03 0 00.03-1.967l-.025-.567c-.013-.358-.025-.71-.053-1.042l-.032-.377a13.848 13.848 0 00-1.138-4.328 14.816 14.816 0 01-3.128-3.621l-.085-.049c-15.037-.05-31.054-.66-46.632-4.493a23.29 23.29 0 01-2.333.75 32.93 32.93 0 01-3.433.689c-6.592 5.9-14.656 9.014-23.362 9.014-1.352 0-2.727-.076-4.108-.226a171.533 171.533 0 01-.363 4.775c-.176 2.058-.359 4.185-.458 6.775-.021.542.039 1.338.101 2.182.191 2.565.407 5.472-.944 7.337-1.809 2.497-5.217 3.929-9.351 3.929-3.788 0-7.37-1.2-9.349-3.131-3.627-3.541-2.897-10.484-2.311-16.064.172-1.634.334-3.178.363-4.413.187-7.834-2.061-15.06-4.441-22.71-1.115-3.585-2.269-7.292-3.163-11.094-2.013-8.56-2.454-17.028-1.375-24.591-.614.982-1.456 1.986-2.293 2.463-.702.4-1.541.611-2.426.611-2.334 0-4.468-1.345-5.188-3.271-3.016-8.062-.627-20.144 5.112-25.856 2.783-2.769 5.889-5.092 8.893-7.339 1.034-.774 2.071-1.549 3.1-2.346.858-.665 1.702-1.329 2.539-1.987 4.39-3.454 8.536-6.715 13.65-9.336 5.215-2.672 10.993-3.285 16.58-3.877 3.823-.405 7.776-.824 11.383-1.916 1.557-.471 3.451-.759 5.283-1.039 1.74-.265 3.54-.539 4.851-.947 2.022-.629 3.425-.97 5.04-.97 1.132 0 2.249.161 3.941.404 1.987.286 4.708.677 9.168 1.063 2.178.188 4 .578 5.761.954 2.091.447 4.066.869 6.461.9l.194.001c2.038 0 4.082-.399 6.245-.821.971-.189 1.941-.378 2.915-.533 2.168-.344 4.548-.511 7.276-.511 2.256 0 4.512.111 6.693.218 2.173.107 4.226.208 6.271.208 4.381 0 9.475-.41 14.035-3.448 3.016-2.008 5.641-4.522 8.42-7.185 2.104-2.016 4.281-4.1 6.64-5.939 6.375-4.97 14.728-7.707 23.522-7.707 4.416 0 8.686.692 12.69 2.058 3.012 1.027 6.434 2.438 8.982 5.119 3.821 4.018 5.088 7.629 3.766 10.733l-.115.272c-.611 1.44-1.093 2.577-2.509 3.888-1.387 1.284-3.598 1.374-5.374 1.445-.408.017-.792.031-1.119.063-.504.05-1.017.074-1.57.074h-.001c-1.74 0-3.485-.245-5.173-.481-1.223-.171-2.378-.333-3.479-.398-.861 0-3.106.85-4.174 1.479-.517.902-1.938 3.639-2.807 5.365-.179 1.574-.029 3.212.13 4.941.129 1.406.263 2.859.221 4.35.042 2.199-1.53 4.031-2.918 5.649-.789.919-1.973 2.299-1.942 2.941.096.431.201.86.318 1.288.233.346.667.675 1.064.963 1.844 1.335 2.147 3.371 2.392 5.006.15 1.002.291 1.949.734 2.437.644.708 3.34 3.507 3.859 3.938.457.38.731.409 1.097.409.202 0 .403-.014.607-.027.293-.019.59-.036.896-.036.689 0 1.709.076 2.89.685.644.1 1.627.32 2.938.657l2.557.658-1.325 2.282s-.698 1.202-1.046 1.769c-.21.431-.568.827-1.06 1.372-.111.123-.22.241-.305.339-.656 1.701-.893 2.141-2.094 3.044-.167.126-.371.279-.625.481-1.959 3.938-2.757 7.203-3.601 10.653a121.02 121.02 0 01-.979 3.817c-5.067 18.104-16.747 29.041-28.275 38.692-1.557 1.302-3.246 1.724-4.604 2.062-.341.085-.672.166-.985.262l-.055.034c-.21.132-.421.264-.637.384-.325.18-.654.355-.985.531-1.416.752-2.753 1.462-3.543 2.504-.785 1.036-1.118 2.554-1.369 3.896a62.694 62.694 0 00-1.028 9.505l-.004.245c.057 1.481.144 2.895.22 4.151l.083 1.399c.367 6.478-.151 10.485-1.628 12.612-1.577 2.267-5.091 2.643-8.321 2.712l-.186.003z" fill="#fff"/><path d="M216.482 117.888c4.119 0 8.222.647 12.044 1.951 2.99 1.02 6.001 2.313 8.178 4.604 2.178 2.29 4.614 5.664 3.376 8.571-.648 1.521-.97 2.39-2.144 3.477-1.104 1.021-3.784.832-5.331.985-.452.044-.911.064-1.374.064-2.807 0-5.786-.714-8.534-.875a2.87 2.87 0 00-.135-.004c-1.464 0-4.49 1.241-5.602 2.032-.206.146-2.59 4.793-3.303 6.219-.47 3.281.394 6.581.29 9.881.106 2.974-5.227 5.942-4.839 8.893l.01.057c.123.561.261 1.119.419 1.675.009.018.011.038.02.055.377.751 1.062 1.294 1.741 1.786 2.188 1.585 1.003 5.168 2.818 7.168.58.638 3.397 3.58 4.061 4.132.874.727 1.629.872 2.376.872.495 0 .985-.063 1.502-.063.682 0 1.411.11 2.259.623.55.008 3.07.656 3.07.656s-.822 1.418-1.101 1.854c-.035.235-1.268 1.44-1.352 1.662-.888 2.317-.648 1.637-2.542 3.212-2.953 5.782-3.499 10.161-4.912 15.212-4.716 16.85-15.12 27.223-27.633 37.697-1.663 1.392-3.628 1.508-5.155 2.031-.271.165-.535.342-.812.495-1.844 1.021-3.878 1.896-5.151 3.575-1.026 1.354-1.43 3.068-1.741 4.737a64.501 64.501 0 00-1.062 9.81c-.003.109-.003.219-.006.328.079 2.095.218 4.058.308 5.643.185 3.262.329 9.05-1.274 11.357-1.121 1.611-4.44 1.805-6.722 1.854l-.143.001c-2.033 0-5.477-.884-6.694-2.783-.507-.789-.824-1.773-1.047-2.813-.096-.233-.213-.458-.287-.697-.614-1.959-.617-4.054-.539-6.105l.004-.066c-.318-3.651.316-6.319.479-10.249.03-.737.04-1.424.031-2.076-.005-.205-.019-.411-.026-.616-.014-.386-.028-.77-.059-1.132-.008-.123-.021-.246-.031-.369-.199-1.991-.686-3.681-1.508-5.432a12.75 12.75 0 01-3.504-4.209l-.396.033c-.117-.067-.221-.154-.332-.23-16.045-.038-31.982-.714-47.37-4.589a22.93 22.93 0 01-2.706.909c-1.257.33-2.535.553-3.821.734-6.305 5.831-14.029 8.904-22.468 8.904a36.77 36.77 0 01-6-.503c-.2 5.281-.726 8.471-.927 13.752-.085 2.225.843 6.618-.464 8.421-1.574 2.173-4.642 3.103-7.731 3.103-3.146 0-6.314-.964-7.952-2.562-3.876-3.783-1.474-13.584-1.345-18.998.286-11.996-4.909-22.629-7.656-34.31-2.746-11.681-2.949-25.446 2.293-36.24l-1.145-.492c-3.417 2.057-4.336 6.512-5.552 10.311-.277.867-1.41 2.563-2.202 3.014-.419.239-.919.349-1.436.349-1.372 0-2.867-.774-3.315-1.972-2.64-7.055-.69-18.424 4.649-23.737 3.613-3.595 7.777-6.4 11.807-9.521 5.252-4.069 9.964-8.095 15.876-11.125 8.406-4.308 18.589-2.923 27.63-5.658 2.878-.871 7.277-1.097 10.148-1.99 2.042-.635 3.19-.88 4.446-.88 2.196 0 4.72.748 12.937 1.459 4.638.401 7.715 1.8 12.368 1.861l.22.001c3.192 0 6.317-.878 9.473-1.378 2.312-.367 4.639-.487 6.963-.486 4.377 0 8.739.425 12.963.425 5.356 0 10.491-.684 15.144-3.783 5.567-3.708 9.905-9.098 15.181-13.211 6.203-4.84 14.281-7.291 22.297-7.291m0-4c-9.238 0-18.028 2.887-24.752 8.13-2.439 1.902-4.653 4.021-6.793 6.072-2.713 2.599-5.277 5.054-8.145 6.964-3.275 2.182-7.141 3.112-12.927 3.112-1.996 0-4.024-.1-6.171-.205-2.206-.108-4.486-.22-6.792-.22-2.833 0-5.316.175-7.59.536-1.02.162-2.018.356-2.984.545-2.066.403-4.018.784-5.862.784l-.17-.001c-2.194-.029-3.989-.413-6.067-.856-1.737-.371-3.705-.792-6.007-.991a145.87 145.87 0 01-9.057-1.049c-1.713-.246-2.95-.424-4.225-.424-1.861 0-3.475.389-5.634 1.061-1.167.363-2.891.625-4.558.879-1.901.29-3.867.589-5.561 1.102-3.427 1.037-7.112 1.427-11.014 1.841-5.77.611-11.735 1.244-17.281 4.086-5.287 2.709-9.507 6.029-13.975 9.544-.833.656-1.673 1.316-2.527 1.978a233.705 233.705 0 01-3.071 2.325c-3.06 2.289-6.223 4.655-9.106 7.523-6.227 6.197-8.832 19.269-5.575 27.975 1.006 2.69 3.91 4.57 7.062 4.57.782 0 1.543-.122 2.251-.356-.363 6.456.26 13.37 1.896 20.331.91 3.871 2.074 7.612 3.2 11.23 2.33 7.489 4.53 14.563 4.351 22.068-.027 1.154-.186 2.658-.353 4.251-.632 6.009-1.418 13.487 2.903 17.704 2.374 2.317 6.391 3.7 10.746 3.7 4.782 0 8.781-1.734 10.97-4.756 1.78-2.457 1.524-5.895 1.319-8.659-.056-.75-.114-1.527-.097-1.956.097-2.544.269-4.554.452-6.681.077-.903.156-1.82.229-2.785a39.54 39.54 0 002.25.065c9.012 0 17.37-3.152 24.25-9.13a33.508 33.508 0 003.056-.64 24.538 24.538 0 001.938-.597c15.239 3.669 30.816 4.328 45.491 4.402a16.733 16.733 0 002.579 2.884 11.82 11.82 0 01.81 3.344l.011.129.009.108.002.037.003.043c.025.301.036.62.047.94l.014.301c.004.089.009.179.011.268a34 34 0 01-.029 1.817c-.054 1.312-.168 2.504-.279 3.658-.201 2.094-.408 4.257-.209 6.833-.08 2.203-.078 4.729.725 7.291.092.298.2.557.287.756.354 1.483.845 2.703 1.499 3.72 2.344 3.654 7.605 4.621 10.06 4.621l.228-.002c2.451-.052 7.55-.162 9.919-3.568 1.771-2.549 2.383-6.826 1.985-13.868-.025-.442-.054-.913-.084-1.408-.075-1.229-.16-2.618-.216-4.051l.001-.068.002-.111a60.52 60.52 0 01.995-9.183c.208-1.117.475-2.366.996-3.054.524-.691 1.672-1.301 2.888-1.946.341-.181.681-.362 1.015-.547.186-.103.367-.212.546-.323.196-.054.417-.109.646-.166 1.474-.368 3.494-.871 5.403-2.468 11.77-9.853 23.697-21.032 28.918-39.687.377-1.347.692-2.636.996-3.881.787-3.217 1.532-6.268 3.252-9.835l.232-.175c1.509-1.135 1.958-1.894 2.623-3.577l.059-.065c.525-.582 1.006-1.113 1.338-1.761.353-.578.893-1.507 1.014-1.716l2.647-4.566-5.111-1.315c-1.35-.347-2.231-.539-2.822-.646a8.139 8.139 0 00-3.504-.759c-.349 0-.688.019-1.023.04-.121.008-.24.017-.359.021-.597-.546-2.852-2.88-3.544-3.634-.111-.257-.217-.967-.288-1.444-.268-1.793-.673-4.502-3.196-6.331-.2-.145-.336-.25-.429-.326a10.16 10.16 0 01-.05-.204c.287-.463.931-1.214 1.382-1.74 1.534-1.788 3.437-4.006 3.401-6.941.042-1.593-.096-3.093-.229-4.544-.137-1.49-.268-2.908-.167-4.193.72-1.42 1.743-3.394 2.315-4.446.827-.403 2.116-.885 2.706-.959.989.064 2.067.216 3.206.375 1.756.246 3.571.5 5.451.5.611 0 1.205-.028 1.766-.083.248-.025.615-.04 1.005-.055 1.993-.081 4.724-.191 6.651-1.976 1.731-1.604 2.344-3.047 2.992-4.576l.114-.268c1.144-2.687 1.352-7.104-4.157-12.896-2.846-2.994-6.543-4.528-9.785-5.633-4.215-1.434-8.702-2.163-13.338-2.163z" fill="#6d6e71"/><path d="M236.627 124.597c-.371-.622-1.69-1.556-1.298 1.58.579 4.635 2.434 5.678-1.623 7.88-.608.33-10.09-.167-12.283.231-3.824.695-5.038 2.729-6.953 5.795-1.738 2.781-4.394 11.287-3.477 13.906 1.931 5.513-7.195 2.769-5.887 9.008 1.108 5.283 1.744 10.598 1.482 15.56-.198 3.78 7.931 3.814 8.345 7.417.859 7.494-6.313 17.832-6.026 23.177.333 6.222-7.686 11.305-8.808 12.052-10.271 6.842-6.585 8.844-18.773 10.777-1.18.188-4.419 10.693-8.228 12.979-.377.226.735 26.629-.927 28.623-3.477 4.172-5.974 1.747-8.923 1.573-1.562-.091-2.409-29.607-3.13-29.617-1.259-.018-7.414-9.262-8.111-9.271-4.654-.062-9.386-.989-14.022-1.391-12.915-1.118-16.17-4.297-21.786-2.55-2.872.893-14.273.983-17.151 1.854-9.041 2.735-13.829 12.708-23.177 9.618-.885-.293-5.215 2.318-6.953 4.52-.446.565-.787 19.808-1.738 21.207-3.712 5.461-11.536 2.877-13.211-.348-.29-.558-.191-15.092.811-26.189.716-7.926-4.401-13.424-4.52-13.907-1.691-6.923-2.513-20.842-4.172-27.928-2.559-10.937 3.544-24.871 1.507-23.293-4.028 3.121-4.73 7.066-8.344 10.661-5.34 5.313-7.584-2.227-4.944 4.828.617 1.65 3.221 2.495 4.751 1.623.792-.451 1.925-2.146 2.202-3.014 1.216-3.798 2.135-8.254 5.552-10.311l1.145.492c-5.242 10.794-5.039 24.561-2.293 36.24 2.747 11.681 7.942 22.314 7.656 34.31-.129 5.415-2.531 15.215 1.345 18.998 3.245 3.167 12.505 3.845 15.683-.541 1.307-1.803.379-6.196.464-8.421.201-5.281.727-8.47.927-13.752 10.766 1.785 20.695-1.213 28.468-8.4 1.285-.182 2.564-.404 3.821-.733.919-.241 1.82-.556 2.706-.909 15.388 3.874 31.325 4.55 47.37 4.588.111.076.215.163.332.23l.396-.033a12.75 12.75 0 003.504 4.209c.822 1.751 1.309 3.44 1.508 5.432.01.123.022.246.031.37.03.362.045.745.059 1.132.008.205.021.41.026.615a38.1 38.1 0 01-.032 2.076c-.161 3.93-.796 6.598-.478 10.249l-.004.067c-.078 2.052-.076 4.146.538 6.105.075.238.192.464.288.697.223 1.04.54 2.023 1.046 2.813 1.248 1.944 4.827 2.825 6.838 2.781 2.281-.049 5.601-.242 6.721-1.854 1.604-2.308 1.46-8.096 1.275-11.357-.09-1.584-.229-3.548-.308-5.643.003-.109.003-.219.006-.327a64.514 64.514 0 011.062-9.811c.312-1.669.715-3.384 1.741-4.736 1.273-1.68 3.308-2.555 5.151-3.576.276-.153.541-.33.812-.495 1.527-.522 3.492-.64 5.155-2.031 12.513-10.475 22.917-20.848 27.633-37.697 1.413-5.051 1.959-9.43 4.912-15.211 1.893-1.575 1.654-.895 2.541-3.213.085-.222 1.317-1.427 1.353-1.661.278-.437 1.101-1.854 1.101-1.854s-2.521-.648-3.07-.656c-2.462-1.487-3.961.026-6.176-1.816-.663-.552-3.443-3.108-4.022-3.746-1.816-2-.631-5.583-2.818-7.168-.681-.492-1.364-1.035-1.742-1.785-.009-.018-.01-.038-.019-.056a27.888 27.888 0 01-.42-1.675l-.009-.057c-.388-2.95 4.945-5.919 4.839-8.893.104-3.3-.76-6.6-.29-9.881.713-1.426 3.097-6.072 3.303-6.219 1.146-.816 4.331-2.111 5.736-2.028 3.202.188 6.716 1.126 9.908.812 1.547-.153 4.228.036 5.331-.985 1.174-1.087 1.495-1.955 2.144-3.477 1.235-2.905-1.762-5.854-3.379-8.569z" fill="#d1d3d4"/><path d="M233.236 179.209c-2.013 0-3.716-.32-5.206-.977-.538-.237-1.483-.543-2.484-.867-1.909-.617-3.883-1.256-4.963-1.99-4.105-2.79-8.792-8.537-9.633-16.3-.301-2.777.167-7.981 1.022-11.364.838-3.319 3.699-8.086 3.82-8.288l.313-.519.585-.156c2.022-.54 6.856-1.793 8.065-1.793h.097l.182.017c1.834.238 3.16.886 4.329 1.458 1.108.542 1.983.969 3.098.969.146 0 .298-.007.455-.023.324-.031.664-.181 1.058-.354.6-.265 1.346-.594 2.289-.594l.16.003c1.823.073 3.68 1.55 5.172 2.737.213.17.413.329.593.466 2.797 2.143 4.742 4.623 6.8 7.249.54.688 1.086 1.385 1.656 2.084 2.269 2.783 5.366 7.061 6.057 12.049.722 5.204-1.625 10.359-5.708 12.537-1.185.632-2.593 1.076-4.303 1.358-1.285.211-2.684.532-4.165.87-3.07.702-6.243 1.428-9.289 1.428.001 0 .001 0 0 0z" fill="#a7a9ac"/><path d="M224.755 138.456c.034 0 .063.001.086.004 3.302.428 4.8 2.439 7.619 2.439.193 0 .394-.01.601-.03 1.199-.117 2.018-.941 3.201-.941.033 0 .067 0 .101.002 1.569.063 3.678 1.951 4.912 2.896 3.374 2.584 5.538 5.817 8.205 9.089 2.719 3.335 5.149 7.092 5.733 11.308.585 4.217-1.091 8.96-4.929 11.007-1.185.632-2.509.982-3.841 1.202-3.959.652-8.878 2.278-13.208 2.278-1.647 0-3.209-.235-4.601-.849-1.611-.711-5.76-1.739-7.21-2.725-4.204-2.857-8.238-8.339-8.984-15.221-.274-2.534.156-7.554.985-10.835.793-3.142 3.65-7.881 3.65-7.881s6.538-1.743 7.68-1.743m0-3c-1.019 0-3.862.62-8.451 1.844l-1.17.313-.626 1.038c-.316.524-3.113 5.222-3.99 8.695-.906 3.585-1.381 8.92-1.059 11.892.896 8.271 5.898 14.401 10.28 17.379 1.168.793 2.952 1.403 5.346 2.177.921.298 1.873.605 2.34.812 1.685.743 3.586 1.104 5.812 1.104 3.214 0 6.618-.778 9.622-1.465 1.458-.333 2.835-.648 4.074-.853 1.875-.309 3.433-.805 4.765-1.515 4.7-2.507 7.308-8.16 6.488-14.066-.743-5.362-3.997-9.868-6.38-12.791-.563-.691-1.104-1.38-1.638-2.062-2.026-2.584-4.121-5.255-7.068-7.513-.174-.133-.366-.286-.572-.45-1.575-1.253-3.733-2.97-6.045-3.062a5.48 5.48 0 00-.22-.004c-1.259 0-2.243.434-2.895.721-.2.088-.503.222-.599.234-.105.01-.208.016-.309.016-.734 0-1.341-.28-2.439-.817-1.21-.592-2.717-1.328-4.795-1.597a3.461 3.461 0 00-.471-.03z" fill="#6d6e71"/><g><path d="M89.037 251.535c-.438-.307-3.52.6-4.056.573a59.414 59.414 0 00-8.666.208c-.215.021-.451.055-.589.22-.121.146-.127.352-.128.54l-.037 13.015-.025-13.47a82.77 82.77 0 00-.102 12.597c.144 2.109.504 4.465 2.206 5.735.954.713 2.149-.066 3.335.072a27.53 27.53 0 004.438.156c.938-.045 1.954-.165 2.764-.64 1.672-.981 2.028-2.145 2.047-4.073.04-4.33.612-10.387-.982-14.418-.205-.515.252-.196-.205-.515z" fill="#d1d3d4"/></g><g><path d="M187.785 278.806c-1.365 0-4.554-.182-5.671-.479l-.182-.048-.17-.082c-.12-.053-.517-.146-.78-.207-1.106-.258-2.62-.61-3.408-1.892-.886-1.442-.742-3.238-.626-4.682.033-.412.068-.812.068-1.173.002-2.553-.036-3.947-.077-5.423-.04-1.436-.081-2.921-.079-5.522 0-.082.684-9.709 1.286-10.963.849-1.773 6.891-5.08 6.948-5.107 1.03-.48 1.754-.689 2.393-.874.571-.165 1.065-.308 1.814-.657.077-.04.22-.126.391-.228 1.209-.713 2.136-1.217 3.05-1.217.371 0 .719.081 1.037.24 1.16.58 1.592 1.4 2.25 8.919l.024.272c.219 2.355.02 4.917-.172 7.396-.062.803-.123 1.587-.166 2.333-.128 2.218-.274 4.22-.42 6.222a385.6 385.6 0 00-.419 6.202c-.046.801-.216 2.328-.833 3.569-.895 1.797-3.749 3.191-5.32 3.362a8.874 8.874 0 01-.938.039z" fill="#d1d3d4"/><path d="M192.742 242.251c.055 0 .102.009.139.027.586.293 1.111 6.847 1.181 7.59.273 2.941-.175 6.478-.344 9.43-.256 4.428-.585 7.996-.84 12.424-.052.897-.24 2.016-.627 2.793-.532 1.068-2.696 2.15-3.746 2.265a7.37 7.37 0 01-.72.026c-1.503 0-4.357-.199-5.157-.412-.865-.416-2.813-.469-3.352-1.345-.748-1.217-.263-3.305-.262-4.806.005-5.153-.159-5.791-.155-10.945 0-.725.786-9.469 1.089-10.1.403-.843 5.224-3.803 5.989-4.159 1.779-.829 2.427-.701 4.207-1.53.419-.195 1.992-1.258 2.598-1.258m0-4c-1.417 0-2.629.647-4.066 1.495-.111.065-.209.125-.289.169-.568.26-.944.368-1.456.517a16.76 16.76 0 00-2.683.982c-.063.029-6.669 3.469-7.908 6.058-.856 1.783-1.481 11.739-1.481 11.826-.002 2.626.04 4.126.079 5.576.041 1.461.079 2.842.076 5.365 0 .252-.03.623-.062 1.016-.132 1.643-.312 3.892.916 5.889 1.227 1.993 3.375 2.494 4.659 2.793.15.035.366.085.483.118l.224.108.365.097c1.463.389 4.97.546 6.186.546.474 0 .84-.016 1.151-.05 2.073-.226 5.621-1.9 6.895-4.458.777-1.562.985-3.394 1.04-4.346.126-2.191.274-4.215.417-6.172.144-1.974.293-4.015.422-6.251.042-.736.103-1.507.164-2.296.189-2.442.404-5.21.17-7.735l-.023-.263c-.647-7.39-1.061-9.39-3.351-10.535a4.28 4.28 0 00-1.928-.449z" fill="#6d6e71"/></g><g><path d="M192.16 161.637c-.352 0-.672-.033-.981-.102-1.63-.365-2.98-1.792-3.614-3.816-.642-2.053-.577-4.469.188-6.985.716-2.355 1.904-4.362 3.434-5.802.267-.251.689-.586 1.27-.586h.091l.17.024c.483.091.626.287 1.734 1.814.864 1.19 2.047 2.819 2.892 3.649l.367.355c.781.751 1.588 1.529 2.137 2.565.312.589.484 1.173.512 1.734.077 1.496-.839 2.738-1.535 3.542-1.339 1.545-3.519 3.423-6.298 3.596a5.577 5.577 0 01-.367.012z" fill="#a7a9ac"/><path d="M192.457 145.346a.44.44 0 01.08.007c.223.042 2.6 3.714 4.107 5.193.847.83 1.766 1.627 2.32 2.675.216.408.374.855.397 1.317.055 1.064-.596 2.031-1.293 2.837-1.453 1.677-3.39 3.114-5.604 3.252-.102.006-.204.01-.306.01-.256 0-.513-.022-.763-.078-1.451-.325-2.434-1.719-2.878-3.139-.646-2.066-.439-4.324.19-6.396.611-2.01 1.634-3.926 3.163-5.365.168-.155.369-.313.587-.313m0-2c-1.044 0-1.73.646-1.955.858-1.657 1.56-2.938 3.717-3.706 6.239-.824 2.71-.888 5.329-.186 7.575.741 2.369 2.367 4.049 4.349 4.493.377.084.78.126 1.2.126.144 0 .288-.005.431-.014 2.473-.154 4.89-1.516 6.989-3.938.81-.936 1.875-2.394 1.779-4.25-.036-.708-.247-1.431-.627-2.149-.624-1.179-1.529-2.05-2.328-2.819l-.361-.35c-.785-.771-1.987-2.426-2.783-3.522-1.199-1.651-1.484-2.044-2.354-2.208a2.448 2.448 0 00-.448-.041z" fill="#6d6e71"/></g><g><path d="M215.952 160.21c3.143 5.923 10.179 8.596 16.784 9.748 4.258.742 8.723 1.046 12.832-.295 4.108-1.342 7.802-4.618 8.611-8.863 2.028 3.272 1.703 7.832-.77 10.784-2.592 3.096-6.859 4.147-10.862 4.674-3.281.433-6.254 1.485-9.563 1.45-2.796-.029-5.956-1.144-8.599-2.06-5.413-1.876-6.136-4.299-8.729-8.032-1.958-2.818-3.81-5.802-1.515-6.979" fill="#8e8e8e"/></g></g></svg>