<svg xmlns="http://www.w3.org/2000/svg" xmlns:xlink="http://www.w3.org/1999/xlink" width="291.969" height="406.205"><image width="292" height="407" xlink:href="73EB37B6.png" transform="translate(.031 -.205)" overflow="visible" opacity=".3"/><radialGradient id="a" cx="143.215" cy="200.357" r="163.894" gradientTransform="matrix(0 -1 1.0315 0 -63.458 343.572)" gradientUnits="userSpaceOnUse"><stop offset="0" stop-color="#32b4ba"/><stop offset=".163" stop-color="#30abba"/><stop offset=".429" stop-color="#2b93ba"/><stop offset=".762" stop-color="#236bba"/><stop offset="1" stop-color="#1d4bba"/></radialGradient><path d="M16.635 390.357a6.177 6.177 0 01-6.17-6.17V16.525a6.176 6.176 0 016.17-6.168h253.159a6.176 6.176 0 016.17 6.168v367.662a6.177 6.177 0 01-6.17 6.17H16.635z" fill="url(#a)"/><path d="M265.964 20.357v360H20.465v-360h245.499m3.83-20H16.635C7.703.357.465 7.595.465 16.525v367.662c0 8.93 7.238 16.17 16.17 16.17h253.159c8.93 0 16.17-7.24 16.17-16.17V16.525c0-8.929-7.24-16.168-16.17-16.168z" fill="#66c2e2"/><path d="M269.794 10.357a6.176 6.176 0 016.17 6.168v367.662a6.177 6.177 0 01-6.17 6.17H16.635a6.177 6.177 0 01-6.17-6.17V16.525a6.176 6.176 0 016.17-6.168h253.159m0-10H16.635C7.703.357.465 7.595.465 16.525v367.662c0 8.93 7.238 16.17 16.17 16.17h253.159c8.93 0 16.17-7.24 16.17-16.17V16.525c0-8.929-7.24-16.168-16.17-16.168z" fill="#414042"/><g><image width="131" height="203" xlink:href="73EB37BA.png" transform="translate(79.156 93)" overflow="visible" opacity=".3"/><linearGradient id="b" gradientUnits="userSpaceOnUse" x1="140.322" y1="287.399" x2="140.322" y2="240.775"><stop offset="0" stop-color="#70aefe"/><stop offset=".16" stop-color="#83bcfe"/><stop offset=".527" stop-color="#abd7fe"/><stop offset=".82" stop-color="#c3e9fe"/><stop offset="1" stop-color="#cceffe"/></linearGradient><path d="M140.323 287.399c-4.039 0-7.983-1.042-11.405-3.015-7.408-4.271-11.831-11.858-11.831-20.296s4.423-16.025 11.831-20.296c3.422-1.973 7.366-3.016 11.405-3.016s7.983 1.043 11.405 3.017c7.407 4.271 11.83 11.858 11.83 20.296s-4.423 16.025-11.83 20.296c-3.421 1.972-7.366 3.014-11.405 3.014z" fill="url(#b)"/><path d="M140.323 243.275c3.528 0 7.056.894 10.156 2.682 14.105 8.133 14.105 28.128 0 36.261-3.101 1.788-6.628 2.681-10.156 2.681s-7.056-.894-10.156-2.681c-14.107-8.133-14.107-28.128 0-36.261 3.101-1.788 6.628-2.682 10.156-2.682m0-5c-4.478 0-8.853 1.159-12.654 3.351-8.191 4.723-13.083 13.12-13.083 22.462s4.892 17.739 13.084 22.462c3.801 2.191 8.176 3.35 12.653 3.35s8.853-1.158 12.653-3.35c8.191-4.723 13.082-13.12 13.082-22.462s-4.891-17.739-13.082-22.462c-3.8-2.192-8.175-3.351-12.653-3.351z" fill="#223948"/><g><linearGradient id="c" gradientUnits="userSpaceOnUse" x1="141.384" y1="217.807" x2="141.384" y2="95.615"><stop offset="0" stop-color="#70aefe"/><stop offset=".16" stop-color="#83bcfe"/><stop offset=".527" stop-color="#abd7fe"/><stop offset=".82" stop-color="#c3e9fe"/><stop offset="1" stop-color="#cceffe"/></linearGradient><path d="M124.087 217.807a3.145 3.145 0 01-3.138-3.202c.337-15.215 11.316-29.328 21.479-37.462 12.281-9.822 19.613-20.433 19.613-28.382 0-13.366-12.381-15.361-19.762-15.361-12.533 0-21.213 6.397-26.536 19.559a3.107 3.107 0 01-2.885 1.951 3.084 3.084 0 01-1.539-.413l-27.796-16.021a3.14 3.14 0 01-1.331-3.908c10.001-24.389 32.922-38.953 61.312-38.953 14.997 0 28.437 4.539 39.947 13.49 11.518 8.96 17.357 21.478 17.357 37.204 0 21.688-14.053 35.03-25.344 45.75-8.305 7.885-15.477 14.694-15.754 22.755a3.081 3.081 0 01-3.08 2.993h-32.543z" fill="url(#c)"/><path d="M143.505 98.115c14.676 0 27.402 4.401 38.412 12.964 11.008 8.563 16.393 20.307 16.393 35.23 0 36.129-40.369 47.266-41.096 68.419a.586.586 0 01-.582.579h-32.545a.644.644 0 01-.639-.646c.314-14.206 10.906-27.854 20.543-35.566 9.789-7.829 20.551-19.572 20.551-30.334 0-11.5-8.316-17.861-22.262-17.861-13.49 0-23.189 7.116-28.854 21.121a.619.619 0 01-.567.389.582.582 0 01-.29-.078l-27.797-16.021a.639.639 0 01-.268-.789c9.899-24.141 32.763-37.407 59.001-37.407m0-5c-14.038 0-27.269 3.596-38.259 10.399-11.416 7.066-20.188 17.478-25.367 30.109-1.069 2.594-.039 5.616 2.399 7.02l27.794 16.02a5.597 5.597 0 007.984-2.754c4.902-12.124 12.824-18.01 24.224-18.01 7.875 0 17.262 2.231 17.262 12.861 0 7.197-6.98 17.078-18.674 26.429-10.605 8.488-22.063 23.285-22.419 39.36a5.662 5.662 0 001.606 4.058 5.671 5.671 0 004.031 1.699h32.545a5.572 5.572 0 005.579-5.398c.242-7.048 7.07-13.531 14.977-21.037 11.638-11.049 26.122-24.801 26.122-47.563 0-16.538-6.165-29.719-18.322-39.177-11.96-9.3-25.917-14.016-41.482-14.016z" fill="#223948"/></g></g></svg>