<svg xmlns="http://www.w3.org/2000/svg" xmlns:xlink="http://www.w3.org/1999/xlink" width="291.969" height="406.205"><symbol id="b" viewBox="-146 -203 292 407"><image width="292" height="407" xlink:href="94AD0638.png" transform="matrix(1 0 0 -1 -146 204)" overflow="visible" opacity=".3"/><radialGradient id="a" cx="-3.05" cy="3.04" r="163.894" gradientTransform="matrix(0 1 -1.0315 0 .085 6.09)" gradientUnits="userSpaceOnUse"><stop offset="0" stop-color="#c889ba"/><stop offset=".207" stop-color="#bf83ba"/><stop offset=".544" stop-color="#a774ba"/><stop offset=".967" stop-color="#7f5cba"/><stop offset="1" stop-color="#7c5aba"/></radialGradient><path d="M-129.63-186.96a6.177 6.177 0 00-6.17 6.17v367.661a6.177 6.177 0 006.17 6.169h253.16a6.176 6.176 0 006.169-6.169V-180.79a6.177 6.177 0 00-6.169-6.17h-253.16z" fill="url(#a)"/><path d="M119.7 183.04v-360h-245.5v360h245.5m3.83 20h-253.16c-8.931 0-16.17-7.238-16.17-16.169V-180.79c0-8.93 7.239-16.17 16.17-16.17h253.16c8.93 0 16.169 7.24 16.169 16.17v367.661c.001 8.931-7.239 16.169-16.169 16.169z" fill="#c99ee8"/><path d="M123.53 193.04a6.176 6.176 0 006.169-6.169V-180.79a6.177 6.177 0 00-6.169-6.17h-253.16a6.177 6.177 0 00-6.17 6.17v367.661a6.177 6.177 0 006.17 6.169h253.16m0 10h-253.16c-8.931 0-16.17-7.238-16.17-16.169V-180.79c0-8.93 7.239-16.17 16.17-16.17h253.16c8.93 0 16.169 7.24 16.169 16.17v367.661c.001 8.931-7.239 16.169-16.169 16.169z" fill="#414042"/></symbol><use xlink:href="#b" width="292" height="407" x="-146" y="-203" transform="matrix(1 0 0 -1 145.969 203.205)" overflow="visible"/><path d="M241.813 306.228c0 21.763-42.548 41.599-95.034 41.599-52.487 0-95.034-19.836-95.034-41.599 0-21.761 42.547-39.401 95.034-39.401 52.486-.001 95.034 17.64 95.034 39.401z" opacity=".37" fill="#231f20"/><path d="M145.419 326.137c-41.833 0-67.728-21.311-67.728-41.055 0-29.371 29.117-51.52 67.728-51.52 19.163 0 36.505 5.129 48.833 14.44 12.411 9.375 19.245 22.543 19.245 37.079 0 19.745-26.028 41.056-68.078 41.056z" fill="#bababa"/><path d="M145.419 235.563c38.902 0 66.078 20.924 66.078 49.52 0 19.835-27.175 39.055-66.078 39.055-38.901 0-65.728-19.22-65.728-39.055.001-27.202 26.827-49.52 65.728-49.52m0-4c-39.751 0-69.728 23.009-69.728 53.52 0 11.228 7.342 22.29 20.145 30.351 13.012 8.192 30.621 12.704 49.583 12.704 18.978 0 36.645-4.509 49.747-12.697 12.92-8.074 20.331-19.139 20.331-30.357 0-15.178-7.117-28.913-20.04-38.675-12.672-9.575-30.442-14.846-50.038-14.846z" fill="#414042"/><path d="M210.434 276.522c1.342 10.711 4.322 23.203-23.712 38.994-1.546.872 8.506-3.171 7.575-15.094-.476-6.118-4.233-11.278-6.043-10.927-5.976 1.158-19.994 9.764-42.835 9.531-30.523-.312-55.27-12.959-55.27-28.944 0-15.983 24.745-28.939 55.27-28.939 30.527.001 62.168 12.664 65.015 35.379z" fill="#7a7a7a"/><path d="M145.419 286.381c-19.301 0-43.475-6.144-52.333-17.886-10.359-13.728-15.395-34.759-15.395-64.295 0-25.513 7.956-46.28 23.009-60.057 11.973-10.958 28.336-17.242 44.894-17.242 12.571 0 30.947 1.374 45.339 13.252 14.972 12.356 22.563 33.904 22.563 64.047 0 31.071-6.704 55.354-18.393 66.624-9.948 9.596-28.986 15.557-49.684 15.557z" fill="#bababa"/><path d="M145.595 128.901c29.641 0 65.902 9.019 65.902 75.299 0 28.931-6.005 53.831-17.781 65.185-9.763 9.416-28.557 14.996-48.296 14.996-19.183 0-42.367-5.996-50.736-17.09-10.236-13.564-14.992-34.779-14.992-63.091 0-55.817 37.656-75.299 65.903-75.299m0-4c-17.052 0-33.907 6.476-46.245 17.768-15.477 14.165-23.658 35.442-23.658 61.531 0 29.987 5.168 51.412 15.799 65.5 9.682 12.835 34.742 18.681 53.929 18.681 21.196 0 40.766-6.176 51.073-16.117 12.077-11.644 19.004-36.452 19.004-68.063 0-30.768-7.836-52.835-23.29-65.59-14.889-12.289-33.733-13.71-46.612-13.71z" fill="#414042"/><path d="M211.497 204.2c1.353 46.02-17.781 65.185-17.781 65.185s9.067-33.822 9.086-53.035c.021-23.109-10.244-49.43-17.104-44.252-19.878 14.994-43.59 11.158-58.933 9.414-16.884-1.916-33.909-25.236-31.618-28.738 16.314-24.931 22.202-23.872 50.448-23.872 29.64-.001 63.814 4.141 65.902 75.298z" fill="#7a7a7a"/><g><path d="M145.419 170.26c-41.722 0-57.27-35.128-57.27-57.27 0-52.235 31.239-63.2 57.445-63.2 17.635 0 30.838 4.348 40.364 13.292 11.102 10.424 16.731 27.216 16.731 49.908.001 21.271-12.061 57.27-57.27 57.27z" fill="#bababa"/><path d="M145.595 51.79c30.526 0 55.096 13.6 55.096 61.2 0 23.19-13.6 55.27-55.271 55.27-41.67 0-55.27-35.568-55.27-55.27-.001-46.552 24.919-61.2 55.445-61.2m0-4c-27.119 0-59.445 11.312-59.445 65.2 0 22.915 16.091 59.27 59.27 59.27 19.803 0 35.849-7.075 46.403-20.462 8.178-10.371 12.868-24.517 12.868-38.808-.001-43.263-19.883-65.2-59.096-65.2z" fill="#414042"/></g><path d="M200.69 112.99c0 13.045-4.302 28.901-15.485 40.281-8.697 8.847 24.028-38.192-4.862-71.248-30.243-34.603-75.478-15.538-75.478-15.538s11.786-14.695 40.729-14.695c30.527 0 55.096 13.6 55.096 61.2z" fill="#7a7a7a"/></svg>