<svg xmlns="http://www.w3.org/2000/svg" xmlns:xlink="http://www.w3.org/1999/xlink" width="291.969" height="406.205"><symbol id="b" viewBox="-146 -203 292 407"><image width="292" height="407" xlink:href="B2F7D7B3.png" transform="matrix(1 0 0 -1 -146 204)" overflow="visible" opacity=".3"/><radialGradient id="a" cx="-3.05" cy="3.04" r="163.894" gradientTransform="matrix(0 1 -1.0315 0 .085 6.09)" gradientUnits="userSpaceOnUse"><stop offset="0" stop-color="#c889ba"/><stop offset=".207" stop-color="#bf83ba"/><stop offset=".544" stop-color="#a774ba"/><stop offset=".967" stop-color="#7f5cba"/><stop offset="1" stop-color="#7c5aba"/></radialGradient><path d="M-129.63-186.96a6.177 6.177 0 00-6.17 6.17v367.661a6.177 6.177 0 006.17 6.169h253.16a6.176 6.176 0 006.169-6.169V-180.79a6.177 6.177 0 00-6.169-6.17h-253.16z" fill="url(#a)"/><path d="M119.7 183.04v-360h-245.5v360h245.5m3.83 20h-253.16c-8.931 0-16.17-7.238-16.17-16.169V-180.79c0-8.93 7.239-16.17 16.17-16.17h253.16c8.93 0 16.169 7.24 16.169 16.17v367.661c.001 8.931-7.239 16.169-16.169 16.169z" fill="#c99ee8"/><path d="M123.53 193.04a6.176 6.176 0 006.169-6.169V-180.79a6.177 6.177 0 00-6.169-6.17h-253.16a6.177 6.177 0 00-6.17 6.17v367.661a6.177 6.177 0 006.17 6.169h253.16m0 10h-253.16c-8.931 0-16.17-7.238-16.17-16.169V-180.79c0-8.93 7.239-16.17 16.17-16.17h253.16c8.93 0 16.169 7.24 16.169 16.17v367.661c.001 8.931-7.239 16.169-16.169 16.169z" fill="#414042"/></symbol><use xlink:href="#b" width="292" height="407" x="-146" y="-203" transform="matrix(1 0 0 -1 145.969 203.205)" overflow="visible"/><g opacity=".3"><path d="M156.856 140.581a1 1 0 01-1-1V127.23a1 1 0 01.286-.7l33.484-34.171c7.916-7.917 11.926-14.79 11.926-20.435 0-8.525-5.295-13.821-13.819-13.821-7.705 0-13.246 3.721-16.941 11.374a.999.999 0 01-1.407.427l-13.313-7.822a1.001 1.001 0 01-.397-1.29c6.034-12.748 17.669-20.06 31.922-20.06 8.822 0 16.342 2.765 22.352 8.219 6.227 5.517 9.389 13.064 9.389 22.425 0 9.921-5.591 20.683-16.618 31.985l-19.981 19.984h37.382a1 1 0 011 1v15.234a1 1 0 01-1 1h-63.265z"/><path d="M187.597 41.733c8.506 0 15.781 2.606 21.68 7.959 6.041 5.353 9.061 12.627 9.061 21.685 0 9.744-5.491 20.173-16.334 31.287l-21.68 21.683h39.796v15.234h-63.263V127.23l33.484-34.171c8.096-8.097 12.212-15.233 12.212-21.135 0-9.33-6.037-14.821-14.819-14.821-8.098 0-14 3.981-17.842 11.939l-13.313-7.822c6.04-12.761 17.704-19.487 31.018-19.487m0-2c-14.655 0-26.62 7.52-32.825 20.632a1.999 1.999 0 00.795 2.58l13.313 7.822a2 2 0 002.814-.856c3.512-7.273 8.759-10.809 16.041-10.809 7.907 0 12.819 4.913 12.819 12.821 0 5.295-4.021 12.114-11.626 19.721l-33.499 34.186a1.998 1.998 0 00-.571 1.399v12.351a2 2 0 002 2h63.263a2 2 0 002-2v-15.234a2 2 0 00-2-2h-34.968l18.266-18.269c11.233-11.514 16.92-22.51 16.92-32.701 0-9.659-3.275-17.459-9.734-23.182-6.184-5.608-13.93-8.461-23.008-8.461zM97.52 122.74a1 1 0 01-1-1V99.548H74.327a1 1 0 01-1-1V84.551a1 1 0 011-1H96.52V61.359a1 1 0 011-1h13.999a1 1 0 011 1V83.55h22.192a1 1 0 011 1v13.997a1 1 0 01-1 1h-22.192v22.192a1 1 0 01-1 1H97.52z"/><path d="M111.519 61.359V84.55h23.192v13.997h-23.192v23.192H97.52V98.548H74.327V84.551H97.52V61.359h13.999m0-2H97.52a2 2 0 00-2 2V82.55H74.327a2 2 0 00-2 2v13.997a2 2 0 002 2H95.52v21.192a2 2 0 002 2h13.999a2 2 0 002-2v-21.192h21.192a2 2 0 002-2V84.551a2 2 0 00-2-2h-21.192V61.359a2 2 0 00-2-2z"/></g><path d="M154.856 138.581a1 1 0 01-1-1V125.23a1 1 0 01.286-.7l33.484-34.171c7.916-7.917 11.926-14.79 11.926-20.435 0-8.525-5.295-13.821-13.819-13.821-7.705 0-13.246 3.721-16.941 11.374a.999.999 0 01-1.407.427l-13.313-7.822a1.001 1.001 0 01-.397-1.29c6.034-12.748 17.669-20.06 31.922-20.06 8.822 0 16.342 2.765 22.352 8.219 6.227 5.517 9.389 13.064 9.389 22.425 0 9.921-5.591 20.683-16.618 31.985l-19.981 19.984h37.382a1 1 0 011 1v15.234a1 1 0 01-1 1h-63.265z" fill="#cceffe"/><path d="M185.597 39.733c8.506 0 15.781 2.606 21.68 7.959 6.041 5.353 9.061 12.627 9.061 21.685 0 9.744-5.491 20.173-16.334 31.287l-21.68 21.683h39.796v15.234h-63.263V125.23l33.484-34.171c8.096-8.097 12.212-15.233 12.212-21.135 0-9.33-6.037-14.821-14.819-14.821-8.098 0-14 3.981-17.842 11.939l-13.313-7.822c6.04-12.761 17.704-19.487 31.018-19.487m0-2c-14.655 0-26.62 7.52-32.825 20.632a1.999 1.999 0 00.795 2.58l13.313 7.822a2 2 0 002.814-.856c3.512-7.273 8.759-10.809 16.041-10.809 7.907 0 12.819 4.913 12.819 12.821 0 5.295-4.021 12.114-11.626 19.721l-33.499 34.186a1.998 1.998 0 00-.571 1.399v12.351a2 2 0 002 2h63.263a2 2 0 002-2v-15.234a2 2 0 00-2-2h-34.968l18.266-18.269c11.233-11.514 16.92-22.51 16.92-32.701 0-9.659-3.275-17.459-9.734-23.182-6.184-5.608-13.93-8.461-23.008-8.461z" fill="#223948"/><g><path d="M95.52 120.74a1 1 0 01-1-1V97.548H72.327a1 1 0 01-1-1V82.551a1 1 0 011-1H94.52V59.359a1 1 0 011-1h13.999a1 1 0 011 1V81.55h22.192a1 1 0 011 1v13.997a1 1 0 01-1 1h-22.192v22.192a1 1 0 01-1 1H95.52z" fill="#cceffe"/><path d="M109.519 59.359V82.55h23.192v13.997h-23.192v23.192H95.52V96.548H72.327V82.551H95.52V59.359h13.999m0-2H95.52a2 2 0 00-2 2V80.55H72.327a2 2 0 00-2 2v13.997a2 2 0 002 2H93.52v21.192a2 2 0 002 2h13.999a2 2 0 002-2V98.548h21.192a2 2 0 002-2V82.551a2 2 0 00-2-2h-21.192V59.359a2 2 0 00-2-2z" fill="#223948"/></g><g><image width="163" height="194" xlink:href="B2F7D7BF.png" transform="translate(35.156 160.795)" overflow="visible" opacity=".3"/><radialGradient id="o" cx="114.045" cy="254.776" r="81.972" gradientTransform="matrix(0 -1 .9145 0 -118.952 368.821)" gradientUnits="userSpaceOnUse"><stop offset="0" stop-color="#32b4ba"/><stop offset=".163" stop-color="#30abba"/><stop offset=".429" stop-color="#2b93ba"/><stop offset=".762" stop-color="#236bba"/><stop offset="1" stop-color="#1d4bba"/></radialGradient><path d="M87.116 344.046a2.564 2.564 0 01-2.458-1.813L40.204 199.461a2.58 2.58 0 011.693-3.226l98.312-30.61a2.57 2.57 0 013.224 1.695l44.453 142.772a2.582 2.582 0 01-1.694 3.227l-98.308 30.607c-.253.08-.511.12-.768.12z" fill="url(#o)"/><path d="M140.037 169.868l43.606 140.055-95.59 29.762-43.607-140.054 95.591-29.763m.937-8.361a6.607 6.607 0 00-1.954.299l-98.312 30.61a6.577 6.577 0 00-4.323 8.234l44.454 142.771a6.582 6.582 0 006.276 4.624 6.57 6.57 0 001.958-.3l98.309-30.608a6.58 6.58 0 004.323-8.234l-44.453-142.772a6.582 6.582 0 00-6.278-4.624z" fill="#66c2e2"/><path d="M140.974 165.508c1.134 0 2.121.729 2.459 1.813l44.453 142.771a2.581 2.581 0 01-1.693 3.227l-98.31 30.609a2.564 2.564 0 01-3.225-1.695L40.204 199.462a2.58 2.58 0 011.693-3.227l98.311-30.61a2.58 2.58 0 01.766-.117m0-4c-.646 0-1.305.096-1.954.298l-98.312 30.61a6.577 6.577 0 00-4.323 8.234l44.454 142.771a6.582 6.582 0 006.276 4.624 6.57 6.57 0 001.958-.3l98.309-30.608a6.58 6.58 0 004.323-8.234l-44.453-142.772a6.58 6.58 0 00-6.278-4.623z" fill="#414042"/><g><image width="57" height="85" xlink:href="B2F7D7B2.png" transform="translate(79.156 209.795)" overflow="visible" opacity=".3"/><linearGradient id="p" gradientUnits="userSpaceOnUse" x1="120.628" y1="289.336" x2="120.628" y2="270.41"><stop offset="0" stop-color="#70aefe"/><stop offset=".16" stop-color="#83bcfe"/><stop offset=".527" stop-color="#abd7fe"/><stop offset=".82" stop-color="#c3e9fe"/><stop offset="1" stop-color="#cceffe"/></linearGradient><path d="M120.646 289.336a9.045 9.045 0 01-1.988-.219c-3.388-.761-6.019-3.166-7.037-6.436-1.02-3.271-.221-6.747 2.137-9.299 1.743-1.889 4.241-2.973 6.854-2.973.671 0 1.339.073 1.986.219 3.388.762 6.018 3.169 7.036 6.439 1.019 3.271.22 6.748-2.138 9.299-1.742 1.888-4.238 2.97-6.85 2.97 0 0 .001 0 0 0z" fill="url(#p)"/><path d="M120.612 271.41c.591 0 1.185.063 1.768.194 6.462 1.453 8.878 9.219 4.383 14.084-1.567 1.697-3.829 2.647-6.116 2.647a8.086 8.086 0 01-1.77-.194c-6.464-1.451-8.88-9.214-4.385-14.08 1.569-1.7 3.83-2.651 6.12-2.651m0-2c-2.892 0-5.657 1.201-7.59 3.295-2.603 2.817-3.483 6.658-2.356 10.274 1.127 3.614 4.032 6.273 7.772 7.113.721.162 1.463.243 2.208.243 2.889 0 5.653-1.199 7.585-3.29 2.603-2.817 3.484-6.658 2.357-10.275-1.126-3.615-4.03-6.276-7.771-7.117a10.108 10.108 0 00-2.205-.243z" fill="#223948"/><g><linearGradient id="q" gradientUnits="userSpaceOnUse" x1="106.567" y1="263.905" x2="106.567" y2="212.811"><stop offset="0" stop-color="#70aefe"/><stop offset=".16" stop-color="#83bcfe"/><stop offset=".527" stop-color="#abd7fe"/><stop offset=".82" stop-color="#c3e9fe"/><stop offset="1" stop-color="#cceffe"/></linearGradient><path d="M108.35 263.905a1.27 1.27 0 01-1.209-.897c-1.711-5.957.846-12.759 3.809-17.141 3.582-5.311 5.147-10.323 4.186-13.408-.874-2.802-2.827-4.223-5.808-4.223-1.133 0-2.394.213-3.746.634-4.875 1.518-7.476 5.057-7.949 10.82a1.25 1.25 0 01-1.24 1.146h-.12l-12.883-2.889a1.266 1.266 0 01-.979-1.327c.937-10.685 8.072-19.105 19.088-22.538 2.71-.844 5.426-1.271 8.073-1.271 3.043 0 6.091.565 9.06 1.68 5.556 2.089 9.332 6.24 11.227 12.339 2.621 8.413-1.22 15.29-4.307 20.815-2.272 4.069-4.236 7.584-3.366 10.754a1.232 1.232 0 01-.834 1.518l-12.772 3.977-.23.011z" fill="url(#q)"/><path d="M109.571 213.812c2.956 0 5.855.545 8.708 1.616 5.308 1.995 8.823 5.903 10.623 11.699 4.371 14.027-9.959 23.235-7.683 31.537a.239.239 0 01-.158.296l-12.636 3.934a.263.263 0 01-.327-.173c-1.596-5.556.867-12.135 3.679-16.294 2.852-4.227 5.615-10.087 4.313-14.266-1.019-3.265-3.426-4.925-6.763-4.925-1.229 0-2.585.226-4.043.679-5.239 1.631-8.146 5.569-8.649 11.693a.251.251 0 01-.243.229.213.213 0 01-.055-.007l-12.729-2.857a.262.262 0 01-.2-.274c.927-10.574 8.198-18.485 18.389-21.66 2.637-.823 5.226-1.227 7.774-1.227m0-2c-2.749 0-5.564.443-8.37 1.317-11.418 3.557-18.814 12.303-19.786 23.395a2.262 2.262 0 001.711 2.391l12.772 2.867a2.241 2.241 0 002.726-1.975c.44-5.345 2.812-8.599 7.254-9.981 1.256-.39 2.416-.588 3.448-.588 2.527 0 4.114 1.151 4.854 3.521.872 2.797-.646 7.489-4.062 12.552-3.088 4.567-5.746 11.687-3.942 17.964a2.281 2.281 0 002.173 1.633c.226 0 .448-.034.663-.1l12.644-3.937a2.222 2.222 0 001.49-2.742c-.759-2.768 1.111-6.116 3.277-9.993 3.18-5.693 7.138-12.777 4.388-21.602-1.989-6.407-5.97-10.774-11.828-12.977-3.083-1.159-6.249-1.745-9.412-1.745z" fill="#223948"/></g></g><g><image width="123" height="170" xlink:href="B2F7D7B5.png" transform="translate(131.156 196.795)" overflow="visible" opacity=".3"/><radialGradient id="r" cx="190.058" cy="278.443" r="66.754" gradientTransform="matrix(0 -1 .9399 0 -71.662 468.501)" gradientUnits="userSpaceOnUse"><stop offset="0" stop-color="#32b4ba"/><stop offset=".163" stop-color="#30abba"/><stop offset=".429" stop-color="#2b93ba"/><stop offset=".762" stop-color="#236bba"/><stop offset="1" stop-color="#1d4bba"/></radialGradient><path d="M138.537 355.761a2.581 2.581 0 01-2.575-2.58l.076-149.53a2.581 2.581 0 012.579-2.576l102.962.053c.688 0 1.335.269 1.821.755s.753 1.133.753 1.821l-.075 149.533a2.577 2.577 0 01-2.573 2.575l-102.968-.051z" fill="url(#r)"/><path d="M140.037 205.075l100.115.051-.073 146.685-100.116-.049.074-146.687m-1.42-8.001a6.577 6.577 0 00-6.579 6.574l-.076 149.531a6.577 6.577 0 006.573 6.581l102.964.051h.006a6.574 6.574 0 006.573-6.573l.075-149.533a6.573 6.573 0 00-6.572-6.578l-102.962-.053h-.002z" fill="#66c2e2"/><path d="M138.617 201.074l102.963.053c.688 0 1.334.269 1.82.755s.753 1.134.753 1.821l-.075 149.534a2.578 2.578 0 01-2.577 2.574l-102.963-.051a2.581 2.581 0 01-2.576-2.579l.076-149.531a2.582 2.582 0 012.579-2.576m0-4a6.577 6.577 0 00-6.579 6.574l-.076 149.531a6.577 6.577 0 006.573 6.581l102.964.051h.005a6.575 6.575 0 006.574-6.573l.075-149.533a6.573 6.573 0 00-6.572-6.578l-102.962-.053h-.002z" fill="#414042"/><g><image width="57" height="87" xlink:href="B2F7D7B6.png" transform="translate(162.156 232.795)" overflow="visible" opacity=".3"/><linearGradient id="s" gradientUnits="userSpaceOnUse" x1="188.869" y1="313.826" x2="188.869" y2="294.898"><stop offset="0" stop-color="#70aefe"/><stop offset=".16" stop-color="#83bcfe"/><stop offset=".527" stop-color="#abd7fe"/><stop offset=".82" stop-color="#c3e9fe"/><stop offset="1" stop-color="#cceffe"/></linearGradient><path d="M188.871 313.826a9.285 9.285 0 01-4.636-1.226c-3.007-1.734-4.802-4.814-4.801-8.24.002-3.427 1.8-6.508 4.811-8.24a9.257 9.257 0 014.624-1.222c1.642 0 3.244.424 4.635 1.226 3.006 1.733 4.8 4.813 4.799 8.238-.001 3.428-1.798 6.509-4.808 8.242a9.255 9.255 0 01-4.624 1.222z" fill="url(#s)"/><path d="M188.869 295.898c1.437 0 2.873.364 4.135 1.092 5.736 3.309 5.73 11.442-.008 14.748a8.265 8.265 0 01-4.125 1.088 8.289 8.289 0 01-4.136-1.092c-5.737-3.309-5.733-11.442.009-14.748a8.278 8.278 0 014.125-1.088m0-2c-1.813 0-3.585.469-5.123 1.354-3.324 1.914-5.31 5.318-5.312 9.107-.001 3.787 1.98 7.191 5.302 9.106a10.276 10.276 0 005.135 1.359c1.813 0 3.586-.469 5.124-1.355 3.322-1.914 5.307-5.318 5.308-9.107.001-3.787-1.98-7.19-5.3-9.105a10.286 10.286 0 00-5.134-1.359z" fill="#223948"/><g><linearGradient id="t" gradientUnits="userSpaceOnUse" x1="189.326" y1="285.526" x2="189.326" y2="235.861"><stop offset="0" stop-color="#70aefe"/><stop offset=".16" stop-color="#83bcfe"/><stop offset=".527" stop-color="#abd7fe"/><stop offset=".82" stop-color="#c3e9fe"/><stop offset="1" stop-color="#cceffe"/></linearGradient><path d="M182.278 285.519c-.338 0-.668-.14-.904-.382a1.263 1.263 0 01-.355-.908c.138-6.172 4.603-11.906 8.735-15.214 5.002-3.996 7.989-8.314 7.99-11.553.002-5.45-5.043-6.268-8.051-6.27-5.109 0-8.644 2.604-10.812 7.959a1.257 1.257 0 01-1.159.783c-.222 0-.439-.06-.63-.173l-11.29-6.513a1.262 1.262 0 01-.53-1.573c4.063-9.9 13.372-15.814 24.9-15.814 6.123.003 11.585 1.85 16.259 5.489 4.682 3.648 7.051 8.736 7.044 15.122-.002 8.814-5.718 14.235-10.311 18.591-3.382 3.207-6.303 5.978-6.418 9.263a1.228 1.228 0 01-1.235 1.2l-13.233-.007z" fill="url(#t)"/><path d="M190.173 236.861h.023c5.972.003 11.146 1.794 15.621 5.278 4.475 3.487 6.665 8.263 6.658 14.332-.004 14.694-16.426 19.216-16.728 27.819a.236.236 0 01-.236.235l-13.232-.008a.258.258 0 01-.261-.263c.129-5.777 4.44-11.323 8.36-14.46 3.983-3.183 8.363-7.957 8.365-12.334.002-4.678-3.379-7.266-9.05-7.27h-.009c-5.483 0-9.427 2.893-11.73 8.584a.254.254 0 01-.232.158.23.23 0 01-.118-.032l-11.302-6.52a.257.257 0 01-.107-.321c4.026-9.807 13.319-15.198 23.978-15.198m0-2c-11.948 0-21.604 6.146-25.828 16.441a2.262 2.262 0 00.949 2.807l11.312 6.525a2.25 2.25 0 003.192-1.08c2.009-4.963 5.239-7.362 9.888-7.362 3.225.002 7.061.918 7.059 5.269-.001 2.938-2.848 6.965-7.613 10.772-4.311 3.449-8.967 9.457-9.111 15.978a2.256 2.256 0 002.26 2.308l13.231.008a2.225 2.225 0 002.237-2.19c.1-2.851 2.883-5.49 6.105-8.547 4.73-4.487 10.619-10.072 10.622-19.316.008-6.709-2.492-12.063-7.429-15.91-4.854-3.78-10.523-5.698-16.85-5.701h-.024v-.002z" fill="#223948"/></g></g></g></g></svg>