<svg width="291.969" height="406.205" xmlns="http://www.w3.org/2000/svg" xmlns:xlink="http://www.w3.org/1999/xlink">
 <defs>
  <linearGradient y2="-0.00002" x2="0.49999" y1="1" x1="0.49999" id="b">
   <stop stop-color="#70aefe" offset="0"/>
   <stop stop-color="#83bcfe" offset="0.16"/>
   <stop stop-color="#abd7fe" offset="0.527"/>
   <stop stop-color="#c3e9fe" offset="0.82"/>
   <stop stop-color="#cceffe" offset="1"/>
  </linearGradient>
  <linearGradient y2="0" x2="0.50001" y1="1" x1="0.50001" id="c">
   <stop stop-color="#70aefe" offset="0"/>
   <stop stop-color="#83bcfe" offset="0.16"/>
   <stop stop-color="#abd7fe" offset="0.527"/>
   <stop stop-color="#c3e9fe" offset="0.82"/>
   <stop stop-color="#cceffe" offset="1"/>
  </linearGradient>
 </defs>
 <g>
  <title>Layer 1</title>
  <image id="svg_1" x="0.031" y="-0.205" opacity="0.3" overflow="visible" xlink:href="73EB37B6.png" height="407" width="292"/>
  <path id="svg_3" fill="#66c2e2" d="m265.964,20.357l0,360l-245.499,0l0,-360l245.499,0m3.83,-20l-253.159,0c-8.932,0 -16.17,7.238 -16.17,16.168l0,367.662c0,8.93 7.238,16.17 16.17,16.17l253.159,0c8.93,0 16.17,-7.24 16.17,-16.17l0,-367.662c0,-8.929 -7.24,-16.168 -16.17,-16.168z"/>
  <path id="svg_4" fill="#414042" d="m269.794,10.357a6.176,6.176 0 0 1 6.17,6.168l0,367.662a6.177,6.177 0 0 1 -6.17,6.17l-253.159,0a6.177,6.177 0 0 1 -6.17,-6.17l0,-367.662a6.176,6.176 0 0 1 6.17,-6.168l253.159,0m0,-10l-253.159,0c-8.932,0 -16.17,7.238 -16.17,16.168l0,367.662c0,8.93 7.238,16.17 16.17,16.17l253.159,0c8.93,0 16.17,-7.24 16.17,-16.17l0,-367.662c0,-8.929 -7.24,-16.168 -16.17,-16.168z"/>
  <g id="svg_5">
   <image id="svg_6" x="79.156" y="93" opacity="0.3" overflow="visible" xlink:href="73EB37BA.png" height="203" width="131"/>
   <path id="svg_7" fill="url(#b)" d="m140.323,287.399c-4.039,0 -7.983,-1.042 -11.405,-3.015c-7.408,-4.271 -11.831,-11.858 -11.831,-20.296s4.423,-16.025 11.831,-20.296c3.422,-1.973 7.366,-3.016 11.405,-3.016s7.983,1.043 11.405,3.017c7.407,4.271 11.83,11.858 11.83,20.296s-4.423,16.025 -11.83,20.296c-3.421,1.972 -7.366,3.014 -11.405,3.014z"/>
   <path id="svg_8" fill="#223948" d="m140.323,243.275c3.528,0 7.056,0.894 10.156,2.682c14.105,8.133 14.105,28.128 0,36.261c-3.101,1.788 -6.628,2.681 -10.156,2.681s-7.056,-0.894 -10.156,-2.681c-14.107,-8.133 -14.107,-28.128 0,-36.261c3.101,-1.788 6.628,-2.682 10.156,-2.682m0,-5c-4.478,0 -8.853,1.159 -12.654,3.351c-8.191,4.723 -13.083,13.12 -13.083,22.462s4.892,17.739 13.084,22.462c3.801,2.191 8.176,3.35 12.653,3.35s8.853,-1.158 12.653,-3.35c8.191,-4.723 13.082,-13.12 13.082,-22.462s-4.891,-17.739 -13.082,-22.462c-3.8,-2.192 -8.175,-3.351 -12.653,-3.351z"/>
   <g id="svg_9">
    <path id="svg_10" fill="url(#c)" d="m124.087,217.807a3.145,3.145 0 0 1 -3.138,-3.202c0.337,-15.215 11.316,-29.328 21.479,-37.462c12.281,-9.822 19.613,-20.433 19.613,-28.382c0,-13.366 -12.381,-15.361 -19.762,-15.361c-12.533,0 -21.213,6.397 -26.536,19.559a3.107,3.107 0 0 1 -2.885,1.951a3.084,3.084 0 0 1 -1.539,-0.413l-27.796,-16.021a3.14,3.14 0 0 1 -1.331,-3.908c10.001,-24.389 32.922,-38.953 61.312,-38.953c14.997,0 28.437,4.539 39.947,13.49c11.518,8.96 17.357,21.478 17.357,37.204c0,21.688 -14.053,35.03 -25.344,45.75c-8.305,7.885 -15.477,14.694 -15.754,22.755a3.081,3.081 0 0 1 -3.08,2.993l-32.543,0z"/>
    <path id="svg_11" fill="#223948" d="m143.505,98.115c14.676,0 27.402,4.401 38.412,12.964c11.008,8.563 16.393,20.307 16.393,35.23c0,36.129 -40.369,47.266 -41.096,68.419a0.586,0.586 0 0 1 -0.582,0.579l-32.545,0a0.644,0.644 0 0 1 -0.639,-0.646c0.314,-14.206 10.906,-27.854 20.543,-35.566c9.789,-7.829 20.551,-19.572 20.551,-30.334c0,-11.5 -8.316,-17.861 -22.262,-17.861c-13.49,0 -23.189,7.116 -28.854,21.121a0.619,0.619 0 0 1 -0.567,0.389a0.582,0.582 0 0 1 -0.29,-0.078l-27.797,-16.021a0.639,0.639 0 0 1 -0.268,-0.789c9.899,-24.141 32.763,-37.407 59.001,-37.407m0,-5c-14.038,0 -27.269,3.596 -38.259,10.399c-11.416,7.066 -20.188,17.478 -25.367,30.109c-1.069,2.594 -0.039,5.616 2.399,7.02l27.794,16.02a5.597,5.597 0 0 0 7.984,-2.754c4.902,-12.124 12.824,-18.01 24.224,-18.01c7.875,0 17.262,2.231 17.262,12.861c0,7.197 -6.98,17.078 -18.674,26.429c-10.605,8.488 -22.063,23.285 -22.419,39.36a5.662,5.662 0 0 0 1.606,4.058a5.671,5.671 0 0 0 4.031,1.699l32.545,0a5.572,5.572 0 0 0 5.579,-5.398c0.242,-7.048 7.07,-13.531 14.977,-21.037c11.638,-11.049 26.122,-24.801 26.122,-47.563c0,-16.538 -6.165,-29.719 -18.322,-39.177c-11.96,-9.3 -25.917,-14.016 -41.482,-14.016z"/>
   </g>
  </g>
 </g>
</svg>