<svg xmlns="http://www.w3.org/2000/svg" xmlns:xlink="http://www.w3.org/1999/xlink" width="291.969" height="406.205"><symbol id="b" viewBox="-146 -203 292 407"><image width="292" height="407" xlink:href="DA5D6274.png" transform="matrix(1 0 0 -1 -146 204)" overflow="visible" opacity=".3"/><radialGradient id="a" cx="-3.05" cy="3.04" r="163.894" gradientTransform="matrix(0 1 -1.0315 0 .085 6.09)" gradientUnits="userSpaceOnUse"><stop offset="0" stop-color="#c889ba"/><stop offset=".207" stop-color="#bf83ba"/><stop offset=".544" stop-color="#a774ba"/><stop offset=".967" stop-color="#7f5cba"/><stop offset="1" stop-color="#7c5aba"/></radialGradient><path d="M-129.63-186.96a6.177 6.177 0 00-6.17 6.17v367.661a6.177 6.177 0 006.17 6.169h253.16a6.176 6.176 0 006.169-6.169V-180.79a6.177 6.177 0 00-6.169-6.17h-253.16z" fill="url(#a)"/><path d="M119.7 183.04v-360h-245.5v360h245.5m3.83 20h-253.16c-8.931 0-16.17-7.238-16.17-16.169V-180.79c0-8.93 7.239-16.17 16.17-16.17h253.16c8.93 0 16.169 7.24 16.169 16.17v367.661c.001 8.931-7.239 16.169-16.169 16.169z" fill="#c99ee8"/><path d="M123.53 193.04a6.176 6.176 0 006.169-6.169V-180.79a6.177 6.177 0 00-6.169-6.17h-253.16a6.177 6.177 0 00-6.17 6.17v367.661a6.177 6.177 0 006.17 6.169h253.16m0 10h-253.16c-8.931 0-16.17-7.238-16.17-16.169V-180.79c0-8.93 7.239-16.17 16.17-16.17h253.16c8.93 0 16.169 7.24 16.169 16.17v367.661c.001 8.931-7.239 16.169-16.169 16.169z" fill="#414042"/></symbol><use xlink:href="#b" width="292" height="407" x="-146" y="-203" transform="matrix(1 0 0 -1 145.969 203.205)" overflow="visible"/><image width="64" height="194" xlink:href="DA5D6275.png" transform="translate(111.094 169.795)" overflow="visible" opacity=".3"/><path fill="#808285" d="M114.889 172.821h52.23v183.971h-52.23z"/><path d="M165.119 174.821v179.971h-48.23V174.821h48.23m4-4h-56.23v187.971h56.23V170.821z" fill="#414042"/><g fill="none" stroke="#58595b" stroke-width="3" stroke-miterlimit="10"><path d="M166.896 288.103s-33.788 4.167-33.78 19.945c-.57 19.854 33.78 19.854 33.78 19.854v-39.799zM131.488 238.086c17.012 0 30.804-6.798 30.804-15.184s-13.792-15.184-30.804-15.184c-5.098 0-16.227 1.377-16.227 1.377v26.795c.001.001 11.6 2.196 16.227 2.196zM120.797 340.203h-6.133l.566 15.256 25.779 1.186v-4.34c.001-6.683-9.048-12.102-20.212-12.102z"/></g><g fill="#a7a9ac"><path d="M130.621 336.929c0 11.09 17.304 17.679 17.304 17.679l16.837 1.134.359-37.575s-3.998-.441-6.087-.441c-15.692-.001-28.413 6.845-28.413 19.203zM136.743 247.423c-11.344 4.391-19.003 12.62-19.003 22.071 0 5.926 3.028 11.362 8.063 15.69-.512-.028-1.024-.06-1.546-.06-2.588 0-7.369.969-7.369.969v30.663s4.781.968 7.369.968c11.963 0 21.659-7.298 21.659-16.301 0-2.858-.985-5.544-2.704-7.88a54.352 54.352 0 0012.285 1.405c3.325 0 9.622-.834 9.622-.834V244.871s-6.297-.833-9.622-.833c-3.426 0-6.729.335-9.884.911 6.021-2.548 9.884-6.449 9.884-10.828 0-7.678-11.843-13.902-26.449-13.902-4.386 0-12.162 1.555-12.162 1.555l-.005 24.693s7.78 1.557 12.167 1.557c2.679 0 5.259-.214 7.695-.601z"/><ellipse cx="123.658" cy="326.36" rx="9.449" ry="5.956"/><path d="M161.473 304.178c-6.454 0-11.686 3.032-11.686 6.773s5.231 6.773 11.686 6.773 7.505-3.032 7.505-6.773-1.051-6.773-7.505-6.773zM120.463 211.587c0 4.77 5.631 8.633 12.578 8.633s12.578-3.863 12.578-8.633c0-4.769-5.631-8.633-12.578-8.633-2.117 0-4.109.361-5.86.998 3.751-3.486 7.089-7.969 7.089-12.876a24.1 24.1 0 00-.479-4.709c3.502 4.57 9.621 7.94 16.897 9.045-1.366 2.427-2.151 5.128-2.151 7.988 0 8.679 16.582 18.123 16.582 18.123l.013-46.702-34.213-.14s-.298 1.858-.298 2.818c0 .394.047.778.081 1.166-.98-1.514-4.548-3.983-4.548-3.983l-9.266.139v36.433s1.859-.964 4.357-2.646c-.497.932-.782 1.93-.782 2.979z"/></g><g fill="#c1c1c1"><path d="M116.895 234.588s6.991 1.711 11.309 1.711c9.618 0 17.416-3.2 17.416-7.146 0-3.945-7.798-7.146-17.416-7.146-4.318 0-11.314 1.714-11.314 1.714l.005 10.867zM157.859 247.929c-17.08 0-30.928 6.395-30.928 14.281 0 7.889 13.848 14.281 30.928 14.281 2.501 0 7.261-.395 7.261-.395l.001-27.771s-4.76-.396-7.262-.396zM121.058 288.103c-1.449 0-4.177.29-4.177.29v14.304s2.728.292 4.177.292c8.304 0 15.034-3.333 15.034-7.443s-6.731-7.443-15.034-7.443zM160.803 323.231c-13.647 0-24.711 3.8-24.711 8.487 0 8.484 10.914 11.534 24.563 11.534h4.467l-.094-15.352.043-4.542c-.001.001-2.813-.127-4.268-.127zM119.513 196.107c6.135 0 11.108-3.611 11.108-8.068 0-4.454-4.974-8.065-11.108-8.065-.894 0-2.593.221-2.593.221l-.039 15.684c0-.001 1.724.228 2.632.228zM152.02 188.039c5.087 0 13.102-2.569 13.102-2.569l-.002-10.648-29.999-.131s-2.005 2.648-2.005 4.134c-.001 5.089 8.464 9.214 18.904 9.214zM156.635 198.042c0 5.979 8.223 5.979 8.223 5.979l.271-11.988s-8.494.872-8.494 6.009z"/></g><g fill="#c1c1c1"><ellipse cx="132.375" cy="209.876" rx="8.625" ry="4.242"/><ellipse cx="122.415" cy="326.174" rx="8.206" ry="4.206"/><ellipse cx="160.207" cy="308.496" rx="7.814" ry="4.318"/></g><g><path d="M165.119 174.821v179.971h-48.23V174.821h48.23m4-4h-56.23v187.971h56.23V170.821z" fill="#414042"/></g><g><g opacity=".3"><path d="M113.543 141.343c-.32 0-.621-.153-.81-.413l-13.072-18.028-13.181 18.031a.999.999 0 01-.808.41H71.569a1 1 0 01-.807-1.591l20.611-28.175-19.491-26.608a1 1 0 01.807-1.591h13.992c.319 0 .62.153.809.411l12.063 16.574 12.063-16.574c.188-.258.489-.411.809-.411h14.104a1.001 1.001 0 01.808 1.59l-19.492 26.72 20.5 28.065a1 1 0 01-.808 1.59h-13.994z"/><path d="M126.527 84.378l-19.923 27.31 20.931 28.655h-13.992l-13.879-19.141-13.991 19.141H71.569l21.044-28.766-19.925-27.199H86.68l12.872 17.685 12.871-17.685h14.104m0-2h-14.104a2 2 0 00-1.617.823L99.553 98.664 88.298 83.201a2 2 0 00-1.617-.823H72.688a2 2 0 00-1.613 3.182l19.06 26.019-20.18 27.584a2.001 2.001 0 001.614 3.181h14.104a2 2 0 001.614-.819l12.37-16.923 12.267 16.916a2 2 0 001.619.826h13.992a2 2 0 001.615-3.18l-20.069-27.477 19.062-26.13a2 2 0 00-1.616-3.179zM147.186 141.343a1 1 0 01-1-1V128.36a1 1 0 01.286-.7l32.492-33.157c7.675-7.678 11.563-14.339 11.563-19.808 0-8.254-5.127-13.381-13.381-13.381-7.462 0-12.83 3.604-16.41 11.019a.999.999 0 01-1.407.427l-12.916-7.59a1.001 1.001 0 01-.397-1.29c5.859-12.38 17.157-19.48 30.998-19.48 8.568 0 15.873 2.686 21.711 7.982 6.048 5.359 9.118 12.69 9.118 21.781 0 9.634-5.427 20.083-16.131 31.058l-19.341 19.341h36.201a1 1 0 011 1v14.781a1 1 0 01-1 1h-61.386z"/><path d="M177.014 45.399c8.256 0 15.314 2.529 21.039 7.723 5.859 5.193 8.79 12.252 8.79 21.041 0 9.454-5.327 19.573-15.847 30.359l-21.039 21.039h38.615v14.781h-61.387v-11.983l32.492-33.157c7.855-7.857 11.85-14.781 11.85-20.508 0-9.054-5.857-14.381-14.381-14.381-7.855 0-13.582 3.862-17.311 11.584l-12.916-7.59c5.86-12.381 17.178-18.908 30.095-18.908m0-2c-14.243 0-25.871 7.309-31.901 20.053a2 2 0 00.794 2.58l12.916 7.59a2.006 2.006 0 001.595.189 2.002 2.002 0 001.22-1.044c3.396-7.035 8.47-10.454 15.51-10.454 7.637 0 12.381 4.744 12.381 12.381 0 5.12-3.895 11.723-11.264 19.094l-32.507 33.172a1.998 1.998 0 00-.571 1.399v11.983a2 2 0 002 2h61.387a2 2 0 002-2v-14.781a2 2 0 00-2-2h-33.787l17.625-17.625c10.91-11.186 16.433-21.87 16.433-31.773 0-9.39-3.184-16.972-9.464-22.538-6.013-5.453-13.543-8.226-22.367-8.226z"/></g><path d="M111.543 139.343c-.32 0-.621-.153-.81-.413l-13.072-18.028-13.181 18.031a.999.999 0 01-.808.41H69.569a1 1 0 01-.807-1.591l20.611-28.175-19.491-26.608a1 1 0 01.807-1.591h13.992c.319 0 .62.153.809.411l12.063 16.574 12.063-16.574c.188-.258.489-.411.809-.411h14.104a1.001 1.001 0 01.808 1.59l-19.492 26.72 20.5 28.065a1 1 0 01-.808 1.59h-13.994z" fill="#cceffe"/><path d="M124.527 82.378l-19.923 27.31 20.931 28.655h-13.992l-13.879-19.141-13.991 19.141H69.569l21.044-28.766-19.925-27.199H84.68l12.872 17.685 12.871-17.685h14.104m0-2h-14.104a2 2 0 00-1.617.823L97.553 96.664 86.298 81.201a2 2 0 00-1.617-.823H70.688a2 2 0 00-1.613 3.182l19.06 26.019-20.18 27.584a2.001 2.001 0 001.614 3.181h14.104a2 2 0 001.614-.819l12.37-16.923 12.267 16.916a2 2 0 001.619.826h13.992a2 2 0 001.615-3.18l-20.069-27.477 19.062-26.13a2 2 0 00-1.616-3.179z" fill="#223948"/><g><path d="M145.186 139.343a1 1 0 01-1-1V126.36a1 1 0 01.286-.7l32.492-33.157c7.675-7.678 11.563-14.339 11.563-19.808 0-8.254-5.127-13.381-13.381-13.381-7.462 0-12.83 3.604-16.41 11.019a.999.999 0 01-1.407.427l-12.916-7.59a1.001 1.001 0 01-.397-1.29c5.859-12.38 17.157-19.48 30.998-19.48 8.568 0 15.873 2.686 21.711 7.982 6.048 5.359 9.118 12.69 9.118 21.781 0 9.634-5.427 20.083-16.131 31.058l-19.341 19.341h36.201a1 1 0 011 1v14.781a1 1 0 01-1 1h-61.386z" fill="#cceffe"/><path d="M175.014 43.399c8.256 0 15.314 2.529 21.039 7.723 5.859 5.193 8.79 12.252 8.79 21.041 0 9.454-5.327 19.573-15.847 30.359l-21.039 21.039h38.615v14.781h-61.387v-11.983l32.492-33.157c7.855-7.857 11.85-14.781 11.85-20.508 0-9.054-5.857-14.381-14.381-14.381-7.855 0-13.582 3.862-17.311 11.584l-12.916-7.59c5.86-12.381 17.178-18.908 30.095-18.908m0-2c-14.243 0-25.871 7.309-31.901 20.053a2 2 0 00.794 2.58l12.916 7.59a2.006 2.006 0 001.595.189 2.002 2.002 0 001.22-1.044c3.396-7.035 8.47-10.454 15.51-10.454 7.637 0 12.381 4.744 12.381 12.381 0 5.12-3.895 11.723-11.264 19.094l-32.507 33.172a1.998 1.998 0 00-.571 1.399v11.983a2 2 0 002 2h61.387a2 2 0 002-2v-14.781a2 2 0 00-2-2h-33.787l17.625-17.625c10.91-11.186 16.433-21.87 16.433-31.773 0-9.39-3.184-16.972-9.464-22.538-6.013-5.453-13.543-8.226-22.367-8.226z" fill="#223948"/></g></g></svg>