<svg xmlns="http://www.w3.org/2000/svg" xmlns:xlink="http://www.w3.org/1999/xlink" width="291.969" height="406.205"><image width="292" height="407" xlink:href="4941ECB0.png" transform="translate(.031 -.205)" overflow="visible" opacity=".3"/><radialGradient id="a" cx="143.215" cy="200.357" r="163.894" gradientTransform="matrix(0 -1 1.0315 0 -63.458 343.572)" gradientUnits="userSpaceOnUse"><stop offset="0" stop-color="#d4b190"/><stop offset=".197" stop-color="#d3a889"/><stop offset=".519" stop-color="#cf9075"/><stop offset=".923" stop-color="#c86855"/><stop offset="1" stop-color="#c7604e"/></radialGradient><path d="M16.633 390.357a6.177 6.177 0 01-6.168-6.17V16.525a6.176 6.176 0 016.168-6.168h253.161a6.176 6.176 0 016.17 6.168v367.662a6.177 6.177 0 01-6.17 6.17H16.633z" fill="url(#a)"/><path d="M265.964 20.357v360H20.465v-360h245.499m3.83-20H16.633C7.703.357.465 7.595.465 16.525v367.662c0 8.932 7.238 16.17 16.168 16.17h253.161c8.93 0 16.17-7.238 16.17-16.17V16.525c0-8.929-7.24-16.168-16.17-16.168z" fill="#f79c94"/><path d="M269.794 10.357a6.176 6.176 0 016.17 6.168v367.662a6.177 6.177 0 01-6.17 6.17H16.633a6.177 6.177 0 01-6.168-6.17V16.525a6.176 6.176 0 016.168-6.168h253.161m0-10H16.633C7.703.357.465 7.595.465 16.525v367.662c0 8.932 7.238 16.17 16.168 16.17h253.161c8.93 0 16.17-7.238 16.17-16.17V16.525c0-8.929-7.24-16.168-16.17-16.168z" fill="#414042"/><g><image width="231" height="130" xlink:href="4941ECB1.png" transform="translate(31.094 133)" overflow="visible" opacity=".3"/><path d="M85.27 173.908c-4.965 0-9.004-4.04-9.004-9.005v-19.875c0-4.965 4.039-9.005 9.004-9.005h53.156c4.965 0 9.004 4.04 9.004 9.005v19.875c0 4.965-4.039 9.005-9.004 9.005H85.27z" fill="#ffd8c2"/><path d="M138.426 138.023c3.852 0 7.004 3.151 7.004 7.005v19.875c0 3.853-3.152 7.005-7.004 7.005H85.27c-3.852 0-7.004-3.152-7.004-7.005v-19.875c0-3.854 3.152-7.005 7.004-7.005h53.156m0-4H85.27c-6.067 0-11.004 4.937-11.004 11.005v19.875c0 6.068 4.937 11.005 11.004 11.005h53.156c6.067 0 11.004-4.937 11.004-11.005v-19.875c0-6.069-4.937-11.005-11.004-11.005z" fill="#935231"/><path d="M158.967 173.908c-4.965 0-9.005-4.04-9.005-9.005v-19.875c0-4.965 4.04-9.005 9.005-9.005h53.154c4.965 0 9.005 4.04 9.005 9.005v19.875c0 4.965-4.04 9.005-9.005 9.005h-53.154z" fill="#ffd8c2"/><path d="M212.121 138.023c3.854 0 7.005 3.151 7.005 7.005v19.875c0 3.853-3.151 7.005-7.005 7.005h-53.154c-3.854 0-7.005-3.152-7.005-7.005v-19.875c0-3.854 3.151-7.005 7.005-7.005h53.154m0-4h-53.154c-6.068 0-11.005 4.937-11.005 11.005v19.875c0 6.068 4.937 11.005 11.005 11.005h53.154c6.068 0 11.005-4.937 11.005-11.005v-19.875c0-6.069-4.937-11.005-11.005-11.005z" fill="#935231"/><path d="M85.27 255.977c-4.965 0-9.004-4.04-9.004-9.005v-19.876c0-4.965 4.039-9.004 9.004-9.004h53.156c4.965 0 9.004 4.039 9.004 9.004v19.876c0 4.965-4.039 9.005-9.004 9.005H85.27z" fill="#ffd8c2"/><path d="M138.426 220.092c3.852 0 7.004 3.151 7.004 7.004v19.876c0 3.853-3.152 7.005-7.004 7.005H85.27c-3.852 0-7.004-3.152-7.004-7.005v-19.876c0-3.853 3.152-7.004 7.004-7.004h53.156m0-4H85.27c-6.067 0-11.004 4.937-11.004 11.004v19.876c0 6.068 4.937 11.005 11.004 11.005h53.156c6.067 0 11.004-4.937 11.004-11.005v-19.876c0-6.067-4.937-11.004-11.004-11.004z" fill="#935231"/><path d="M158.967 255.977c-4.965 0-9.005-4.04-9.005-9.005v-19.876c0-4.965 4.04-9.004 9.005-9.004h53.154c4.965 0 9.005 4.039 9.005 9.004v19.876c0 4.965-4.04 9.005-9.005 9.005h-53.154z" fill="#ffd8c2"/><path d="M212.121 220.092c3.854 0 7.005 3.151 7.005 7.004v19.876c0 3.853-3.151 7.005-7.005 7.005h-53.154c-3.854 0-7.005-3.152-7.005-7.005v-19.876c0-3.853 3.151-7.004 7.005-7.004h53.154m0-4h-53.154c-6.068 0-11.005 4.937-11.005 11.004v19.876c0 6.068 4.937 11.005 11.005 11.005h53.154c6.068 0 11.005-4.937 11.005-11.005v-19.876c0-6.067-4.937-11.004-11.005-11.004z" fill="#935231"/><g><path d="M44.061 215.467c-4.965 0-9.004-4.04-9.004-9.005v-19.876c0-4.965 4.039-9.004 9.004-9.004h53.156c4.965 0 9.004 4.039 9.004 9.004v19.876c0 4.965-4.039 9.005-9.004 9.005H44.061z" fill="#ffd8c2"/><path d="M97.217 179.583c3.852 0 7.004 3.152 7.004 7.004v19.876c0 3.853-3.152 7.005-7.004 7.005H44.061c-3.852 0-7.004-3.152-7.004-7.005v-19.876c0-3.852 3.152-7.004 7.004-7.004h53.156m0-4H44.061c-6.067 0-11.004 4.937-11.004 11.004v19.876c0 6.068 4.937 11.005 11.004 11.005h53.156c6.067 0 11.004-4.937 11.004-11.005v-19.876c0-6.068-4.937-11.004-11.004-11.004z" fill="#935231"/></g><g><path d="M118.457 215.467c-4.965 0-9.004-4.04-9.004-9.005v-19.876c0-4.965 4.039-9.004 9.004-9.004h53.155c4.965 0 9.005 4.039 9.005 9.004v19.876c0 4.965-4.04 9.005-9.005 9.005h-53.155z" fill="#ffd8c2"/><path d="M171.612 179.583c3.853 0 7.005 3.152 7.005 7.004v19.876c0 3.853-3.152 7.005-7.005 7.005h-53.155c-3.854 0-7.004-3.152-7.004-7.005v-19.876c0-3.852 3.15-7.004 7.004-7.004h53.155m0-4h-53.155c-6.067 0-11.004 4.937-11.004 11.004v19.876c0 6.068 4.937 11.005 11.004 11.005h53.155c6.068 0 11.005-4.937 11.005-11.005v-19.876c0-6.068-4.936-11.004-11.005-11.004z" fill="#935231"/></g><g><path d="M192.502 215.467c-4.965 0-9.004-4.04-9.004-9.005v-19.876c0-4.965 4.039-9.004 9.004-9.004h53.156c4.965 0 9.004 4.039 9.004 9.004v19.876c0 4.965-4.039 9.005-9.004 9.005h-53.156z" fill="#ffd8c2"/><path d="M245.658 179.583c3.852 0 7.004 3.152 7.004 7.004v19.876c0 3.853-3.152 7.005-7.004 7.005h-53.156c-3.852 0-7.004-3.152-7.004-7.005v-19.876c0-3.852 3.152-7.004 7.004-7.004h53.156m0-4h-53.156c-6.067 0-11.004 4.937-11.004 11.004v19.876c0 6.068 4.937 11.005 11.004 11.005h53.156c6.067 0 11.004-4.937 11.004-11.005v-19.876c0-6.068-4.936-11.004-11.004-11.004z" fill="#935231"/></g><g><path d="M86.055 171.838h52.578c3.854 0 7.004-3.152 7.004-7.005v-19.876c0-3.852-4.52-6.827-4.623-6.135 1.975 7.347 2.494 16.91 1.039 29.697-.156 1.377-55.842.246-55.842.246l-6.74-.004c0 2.081 4.367 3.12 6.584 3.077zM159.863 171.838h52.58c3.852 0 7.004-3.152 7.004-7.005v-19.876c0-3.852-4.52-6.827-4.624-6.135 1.976 7.347 2.495 16.91 1.04 29.697-.157 1.377-55.844.246-55.844.246l-6.738-.004c0 2.081 4.365 3.12 6.582 3.077zM141.014 220.95c1.975 7.346 2.494 16.91 1.039 29.697-.156 1.377-55.842.245-55.842.245l-6.74-.003c0 2.079 4.367 3.119 6.584 3.075h52.578c3.854 0 7.004-3.151 7.004-7.005v-19.875c0-3.852-4.52-6.828-4.623-6.134zM214.823 220.95c1.976 7.346 2.495 16.91 1.04 29.697-.157 1.377-55.844.245-55.844.245l-6.738-.003c0 2.079 4.365 3.119 6.582 3.075h52.58c3.852 0 7.004-3.151 7.004-7.005v-19.875c0-3.852-4.519-6.828-4.624-6.134zM104.262 206.625v-19.876c0-3.853-4.52-6.828-4.623-6.135 1.975 7.347 2.494 16.91 1.039 29.697-.156 1.377-55.842.245-55.842.245l-6.74-.003c0 2.08 4.367 3.119 6.584 3.076h52.578c3.853 0 7.004-3.152 7.004-7.004zM119.061 210.141l-6.738-.003c0 2.079 4.365 3.118 6.582 3.075h52.579c3.853 0 7.005-3.152 7.005-7.005v-19.876c0-3.852-4.52-6.827-4.624-6.135 1.976 7.347 2.495 16.911 1.04 29.697-.158 1.378-55.844.247-55.844.247zM247.881 180.198c1.977 7.347 2.496 16.911 1.041 29.697-.158 1.377-55.844.246-55.844.246l-6.739-.003c0 2.079 4.366 3.118 6.583 3.075h52.58c3.852 0 7.004-3.152 7.004-7.005v-19.876c0-3.851-4.52-6.827-4.625-6.134z" fill="#d3977d"/></g></g></svg>