<svg xmlns="http://www.w3.org/2000/svg" xmlns:xlink="http://www.w3.org/1999/xlink" width="291.969" height="406.205"><image width="292" height="407" xlink:href="E0DB491B.png" transform="translate(.031 -.205)" overflow="visible" opacity=".3"/><radialGradient id="a" cx="143.214" cy="200.357" r="163.894" gradientTransform="matrix(0 -1 1.0315 0 -63.458 343.572)" gradientUnits="userSpaceOnUse"><stop offset="0" stop-color="#c2e1d8"/><stop offset=".213" stop-color="#b9dad0"/><stop offset=".56" stop-color="#a1c8bb"/><stop offset=".997" stop-color="#79aa98"/><stop offset="1" stop-color="#79aa98"/></radialGradient><path d="M16.633 390.357a6.177 6.177 0 01-6.168-6.17V16.525a6.176 6.176 0 016.168-6.168h253.162a6.176 6.176 0 016.169 6.168v367.662a6.177 6.177 0 01-6.169 6.17H16.633z" fill="url(#a)"/><path d="M265.964 20.357v360H20.465v-360h245.499m3.831-20H16.633C7.703.357.465 7.595.465 16.525v367.662c0 8.932 7.238 16.17 16.168 16.17h253.162c8.93 0 16.169-7.238 16.169-16.17V16.525c0-8.929-7.239-16.168-16.169-16.168z" fill="#c2e1d8"/><path d="M269.795 10.357a6.176 6.176 0 016.169 6.168v367.662a6.177 6.177 0 01-6.169 6.17H16.633a6.177 6.177 0 01-6.168-6.17V16.525a6.176 6.176 0 016.168-6.168h253.162m0-10H16.633C7.703.357.465 7.595.465 16.525v367.662c0 8.932 7.238 16.17 16.168 16.17h253.162c8.93 0 16.169-7.238 16.169-16.17V16.525c0-8.929-7.239-16.168-16.169-16.168z" fill="#414042"/><g><image width="208" height="138" xlink:href="E0DB4919.png" transform="translate(42.063 133)" overflow="visible" opacity=".3"/><path d="M120.146 223.733c-3.31 0-6.201-.471-8.837-1.439-3.758-1.381-6.979-3.84-9.366-5.828a81.84 81.84 0 01-17.699-20.585c-3.413-5.644-8.92-24.384-4.857-32.853 4.165-8.684 11.993-14.669 18.348-18.913 3.406-2.275 8.549-5.299 13.857-5.299 1.682 0 3.294.306 4.791.909 3.386 1.364 5.859 4.183 7.846 6.448l20.609 23.497c4.193 4.78 8.528 9.723 12.057 15.25 1.269 1.987 2.637 4.383 3.158 7.083.749 3.887-.286 8.294-2.993 12.744-5.962 9.807-17.643 16.752-31.244 18.578-2.051.275-3.906.408-5.67.408z" fill="#e7fff1"/><path d="M111.591 140.815c1.367 0 2.723.232 4.043.764 2.883 1.161 5.041 3.576 7.09 5.912l20.609 23.497c4.211 4.801 8.438 9.625 11.874 15.008 1.265 1.98 2.435 4.078 2.88 6.386.752 3.902-.672 7.93-2.737 11.325-6.201 10.199-17.972 16.047-29.802 17.635-1.784.239-3.597.391-5.403.391-2.782 0-5.544-.36-8.147-1.317-3.255-1.196-6.112-3.269-8.776-5.487a80.207 80.207 0 01-17.268-20.084c-3.152-5.213-8.458-23.257-4.766-30.952 3.691-7.696 10.557-13.374 17.655-18.115 3.819-2.549 8.341-4.963 12.748-4.963m0-4c-5.852 0-11.345 3.216-14.968 5.636-6.566 4.386-14.665 10.59-19.04 19.711-4.664 9.72 1.851 29.628 4.949 34.752a83.803 83.803 0 0018.131 21.088c2.51 2.09 5.91 4.681 9.956 6.168 2.861 1.052 5.978 1.563 9.527 1.563 1.854 0 3.795-.14 5.935-.427 14.194-1.905 26.414-9.203 32.688-19.521 2.969-4.88 4.092-9.777 3.247-14.16-.585-3.031-2.065-5.635-3.437-7.782-3.609-5.655-7.996-10.656-12.238-15.493l-20.609-23.497c-2.127-2.425-4.774-5.442-8.603-6.985a14.765 14.765 0 00-5.538-1.053z" fill="#5b7776"/><path d="M79.683 239.594c-2.553 0-5.054-.378-7.398-.766-4.636-.766-9.979-1.787-14.731-4.212-5.325-2.72-9.222-7.024-10.694-11.81-.964-3.135-.925-6.389-.792-9.725.19-4.733.496-9.762 1.931-14.648 1.134-3.861 3.505-9.227 8.354-12.862.311-.219 2.64-1.785 5.564-1.785.667 0 1.321.083 1.943.247 3.536.929 6.114 3.574 8.252 5.979 3.535 3.977 6.832 8.19 10.021 12.264l4.535 5.797c2.733 3.491 5.833 7.449 7.36 12.143 1.793 5.511.891 11.172-2.356 14.773-2.226 2.469-5.622 4.06-9.563 4.48-.773.083-1.589.125-2.426.125z" fill="#e7fff1"/><path d="M61.917 185.785c.467 0 .949.053 1.435.181 2.958.777 5.234 3.088 7.267 5.374 3.479 3.915 6.712 8.043 9.94 12.168l4.535 5.797c2.791 3.564 5.633 7.226 7.033 11.529s1.092 9.453-1.939 12.815c-2.084 2.312-5.193 3.501-8.289 3.831a20.77 20.77 0 01-2.215.113c-2.364 0-4.732-.353-7.072-.739-4.857-.803-9.764-1.782-14.147-4.021-4.384-2.239-8.245-5.911-9.692-10.616-.895-2.909-.826-6.017-.705-9.058.191-4.77.506-9.584 1.852-14.164s3.814-8.962 7.635-11.826c-.002.001 1.983-1.384 4.362-1.384m0-4c-3.462 0-6.15 1.753-6.653 2.105l-.056.039-.054.041c-4.186 3.138-7.324 7.944-9.073 13.899-1.5 5.104-1.815 10.274-2.01 15.131-.14 3.517-.178 6.958.878 10.394 1.63 5.299 5.893 10.039 11.696 13.002 5.007 2.557 10.531 3.614 15.315 4.405 2.426.401 5.02.793 7.724.793.907 0 1.795-.046 2.64-.136 4.431-.473 8.279-2.294 10.835-5.13 3.724-4.13 4.787-10.542 2.772-16.731-1.637-5.03-4.852-9.135-7.688-12.757l-4.534-5.795c-3.208-4.099-6.525-8.337-10.102-12.361-2.333-2.625-5.164-5.514-9.24-6.585a9.59 9.59 0 00-2.45-.314z" fill="#5b7776"/><path d="M179.251 263.262c-1.63 0-3.291-.209-4.938-.62-4.413-1.104-8.285-3.48-11.165-5.427a84.016 84.016 0 01-12.016-9.85c-6.773-6.7-9.785-13.225-8.953-19.393.655-4.847 3.84-9.522 8.74-12.828 4.184-2.824 8.909-4.363 13.485-5.842.889-.417 7.24-3.437 10.292-6.085a49.292 49.292 0 001.828-1.703c1.141-1.1 2.321-2.237 3.712-3.199 2.83-1.955 6.337-2.987 10.142-2.987 3.585 0 7.257.891 10.619 2.578 6.45 3.236 11.231 8.667 15.207 13.504 3.109 3.781 6.597 8.256 8.64 13.53 2.809 7.253 2.604 15.486-.562 22.59-.943 2.122-1.964 3.664-3.211 4.851-2.272 2.16-5.248 3.08-7.858 3.695a54.884 54.884 0 01-12.036 1.461h-2.559c-2.705 0-5.312.091-7.471 1.198-.661.338-1.307.788-1.991 1.264-.609.424-1.24.862-1.932 1.259-2.285 1.311-5.043 2.004-7.973 2.004z" fill="#e7fff1"/><path d="M190.379 197.33c3.334 0 6.739.869 9.722 2.365 5.856 2.938 10.398 7.925 14.559 12.986 3.279 3.988 6.455 8.169 8.32 12.982 2.602 6.719 2.409 14.472-.523 21.054-.688 1.546-1.539 3.051-2.764 4.217-1.868 1.775-4.43 2.605-6.938 3.196a52.851 52.851 0 01-11.598 1.408c-.265.003-.531.003-.798.003-.578 0-1.159-.004-1.74-.004-2.909 0-5.829.109-8.383 1.418-1.412.724-2.627 1.778-4.004 2.566-2.113 1.21-4.536 1.739-6.981 1.739-1.499 0-3.005-.198-4.453-.56-3.809-.953-7.277-2.945-10.53-5.144a81.919 81.919 0 01-11.729-9.614c-4.816-4.765-9.283-10.989-8.377-17.703.639-4.728 3.922-8.77 7.877-11.438 3.953-2.668 8.56-4.168 13.099-5.635 0 0 7.342-3.378 10.87-6.439 1.809-1.57 3.396-3.405 5.366-4.767 2.646-1.825 5.793-2.63 9.005-2.63m0-4c-4.213 0-8.113 1.155-11.278 3.341-1.526 1.054-2.766 2.249-3.964 3.405a46.678 46.678 0 01-1.751 1.633c-2.452 2.127-7.646 4.763-9.71 5.729-4.466 1.444-9.495 3.095-13.874 6.05-5.372 3.624-8.872 8.806-9.603 14.217-.921 6.824 2.284 13.917 9.528 21.083a86.025 86.025 0 0012.303 10.084c3.017 2.039 7.084 4.53 11.799 5.71 1.806.451 3.63.68 5.424.68 3.278 0 6.379-.784 8.969-2.268.768-.439 1.465-.924 2.08-1.352.627-.436 1.219-.848 1.76-1.125 1.763-.904 4.108-.979 6.559-.979l.858.002.882.002a56.934 56.934 0 0013.314-1.518c2.87-.676 6.158-1.703 8.774-4.19 1.446-1.376 2.609-3.121 3.663-5.491 3.379-7.584 3.598-16.378.599-24.124-2.151-5.551-5.753-10.177-8.96-14.079-4.407-5.361-9.378-10.771-15.854-14.021-3.64-1.825-7.623-2.789-11.518-2.789z" fill="#5b7776"/><g><path d="M223.241 204.842c-2.97 0-6.013-1.056-9.576-3.322a84.039 84.039 0 01-2.597-1.744c-1.802-1.244-3.504-2.419-5.358-3.258-.568-.258-1.158-.489-1.748-.722-2.023-.797-4.316-1.701-5.948-3.639-2.08-2.471-2.636-6.228-1.527-10.307 1.83-6.723 6.869-11.936 10.501-15.272l3.845-3.612.202-.116c1.688-.972 3.689-1.521 6.296-1.726a26.355 26.355 0 012.068-.082c7.113 0 13.957 2.898 18.307 7.753 5.309 5.925 6.722 14.762 3.437 21.49-.996 2.039-2.376 3.85-3.592 5.387-3.23 4.087-7.701 8.821-13.653 9.151-.219.013-.438.019-.657.019.001 0 .001 0 0 0z" fill="#e7fff1"/><path d="M219.399 163.042c6.286 0 12.633 2.418 16.817 7.088 4.609 5.145 6.159 13.07 3.129 19.277-.887 1.814-2.111 3.44-3.363 5.024-3.158 3.996-7.11 8.112-12.195 8.395-.183.01-.364.015-.545.015-3.028 0-5.932-1.374-8.503-3.009-2.725-1.733-5.26-3.805-8.203-5.137-2.445-1.107-5.262-1.773-6.99-3.826-1.914-2.274-1.906-5.627-1.127-8.494 1.546-5.682 5.588-10.341 9.924-14.324l3.691-3.468c1.646-.947 3.563-1.316 5.455-1.466.635-.05 1.272-.075 1.91-.075m0-4c-.742 0-1.49.03-2.226.087-2.914.23-5.181.861-7.136 1.987l-.404.232-.339.319-3.691 3.468c-3.782 3.474-9.08 8.968-11.045 16.189-1.284 4.723-.582 9.14 1.926 12.12 1.958 2.326 4.612 3.372 6.745 4.212.59.233 1.148.453 1.655.682 1.691.766 3.321 1.891 5.047 3.082.854.59 1.738 1.2 2.659 1.786 3.899 2.479 7.283 3.634 10.65 3.634.255 0 .51-.007.767-.021 6.75-.375 11.622-5.492 15.112-9.908 1.28-1.619 2.736-3.532 3.819-5.748 3.633-7.442 2.093-17.188-3.744-23.703-4.793-5.349-12.008-8.418-19.795-8.418z" fill="#5b7776"/></g><g><path d="M173.943 194.835c-5.613 0-8.717-2.997-10.385-4.606-1.233-1.192-2.192-2.527-3.12-3.819l-10.136-14.108c-2.411-3.354-4.903-6.823-6.632-10.778-2.013-4.6-2.601-9.16-1.7-13.187 1-4.474 4.586-8.301 4.739-8.462l.17-.18.21-.133c3.132-1.988 7.151-3.04 11.623-3.04l.383.002c3.852.05 7.562.801 11.664 1.703 6.181 1.36 11.687 2.752 16.482 6.017 2.416 1.644 4.526 3.718 6.388 5.547 1.276 1.255 2.865 2.816 3.696 4.894.856 2.135.759 4.371.681 6.167a332.306 332.306 0 01-.582 10.034c-.188 2.579-.405 4.902-1.16 7.217-.593 1.819-1.534 3.652-2.875 5.604-3.493 5.082-8.203 8.688-13.264 10.154-2.265.656-4.287.974-6.182.974z" fill="#e7fff1"/><path d="M158.711 138.521l.357.002c3.801.049 7.549.84 11.261 1.656 5.501 1.211 11.13 2.547 15.786 5.717 2.236 1.521 4.182 3.424 6.111 5.32 1.272 1.251 2.578 2.554 3.241 4.211.671 1.673.618 3.536.54 5.337a332.588 332.588 0 01-.578 9.975c-.166 2.275-.359 4.573-1.066 6.743-.594 1.821-1.537 3.513-2.622 5.091-2.958 4.304-7.157 7.913-12.173 9.366-2.176.63-4.027.895-5.625.895-4.455 0-6.942-2.063-8.996-4.045-1.098-1.061-1.994-2.307-2.885-3.547l-10.137-14.108c-2.385-3.318-4.787-6.668-6.424-10.412-1.638-3.743-2.473-7.962-1.581-11.949s4.239-7.523 4.239-7.523c3.11-1.974 6.865-2.729 10.552-2.729m0-4c-4.852 0-9.242 1.159-12.695 3.351l-.419.266-.342.361c-.42.444-4.138 4.479-5.238 9.4-.994 4.444-.364 9.433 1.82 14.426 1.813 4.148 4.369 7.704 6.84 11.143l10.136 14.108c.933 1.299 1.992 2.773 3.354 4.089 2.782 2.686 6.132 5.169 11.775 5.169 2.086 0 4.29-.344 6.738-1.053 5.504-1.595 10.603-5.481 14.357-10.943 1.452-2.112 2.476-4.113 3.129-6.117.891-2.735 1.1-5.6 1.252-7.692.244-3.334.441-6.731.585-10.094.082-1.881.194-4.46-.824-6.997-.986-2.464-2.74-4.189-4.149-5.575-1.922-1.889-4.101-4.03-6.666-5.775-5.089-3.464-10.79-4.91-17.176-6.316-4.212-.927-8.028-1.698-12.069-1.75l-.408-.001z" fill="#5b7776"/></g><g><path d="M155.339 203.663c2.064-3.396 3.489-7.423 2.737-11.326-.445-2.307-1.615-4.405-2.881-6.386-3.435-5.383-7.663-10.207-11.873-15.007-6.87-7.833 1.018 6.082-1.254 8.201-2.945 2.75-6.088 2.946-10.605 4.518-8.063 2.805-20.031.393-29.459 1.964-8.42 1.403-19.213 3.96-16.061 9.173a80.187 80.187 0 0017.268 20.084c2.664 2.219 5.521 4.291 8.776 5.487 4.292 1.577 9.018 1.535 13.55.927 11.83-1.59 23.601-7.437 29.802-17.635zM85.082 209.259l-4.535-5.796c-3.229-4.125-6.461-8.254-9.941-12.169-2.031-2.286 10.516 14.953 10.581 23.595.065 8.641-.46 12.254-4.909 15.188-4.684 3.087-10.213-.262-18.068-3.404s-10.207-15.609-10.344-12.568c-.327 7.266 1.605 14.429 10.587 18.685 6.435 3.049 9.29 3.219 14.147 4.021 3.07.508 6.191.956 9.287.626s6.205-1.519 8.289-3.831c3.031-3.361 3.34-8.511 1.939-12.814-1.4-4.307-4.242-7.968-7.033-11.533zM215.3 212.898c-4.199-5.062-5.927-6.389-8.306-8.483-4.942-4.354 14.56 22.462 9.117 26.186-1.988 1.361-6.631 4.584-8.456 6.154-3.56 3.062-23.388 4.844-23.388 4.844-4.581 1.467-14.139-1.309-23.256-6.546-4.164-2.393-16.217-11.322-16.859-6.596-.915 6.715 3.593 12.938 8.453 17.704a82.36 82.36 0 0011.838 9.613c3.283 2.199 6.783 4.191 10.627 5.144 3.846.952 8.101.774 11.539-1.178 1.389-.788 2.615-1.844 4.04-2.567 3.331-1.691 7.28-1.38 11.024-1.417a53.936 53.936 0 0011.704-1.408c2.53-.592 5.116-1.421 7-3.196 1.237-1.166 2.097-2.672 2.79-4.217 2.959-6.582 3.153-14.335.527-21.055-1.88-4.814-5.087-8.995-8.394-12.982zM237.122 170.602c-5.394-4.252-.269 3.789-2.429 7.029-1.053 1.58-4.713 5.695-8.15 4.418l-12.666-.687c-5.009 1.669-13.506-4.167-15.051 1.515-.781 2.867-1.424 5.483.49 7.757 1.729 2.054 5.803 3.312 8.248 4.419 2.943 1.332 5.426 3.668 8.15 5.4 2.727 1.734 5.451 2.366 8.676 2.188 5.086-.282 9.037-4.398 12.195-8.395 1.252-1.584 2.478-3.209 3.363-5.024 3.032-6.207 2.598-14.343-2.826-18.62zM151.913 171.088l10.138 14.109c.891 1.239 1.787 2.486 2.885 3.547 2.789 2.693 6.379 5.535 14.621 3.149 5.016-1.452 9.215-5.062 12.173-9.365 1.085-1.579 2.028-3.271 2.622-5.092.706-2.169.9-4.468 1.066-6.743.242-3.321.436-6.646.578-9.975.078-1.801.13-3.664-.54-5.337-.663-1.657-1.969-2.96-3.242-4.211-1.929-1.896-1.765-2.605-2.029.087-.509 5.173.884 4.222-1.964 5.629-3.408 1.685-4.777-.072-7.986 1.965 0 0-3.535 2.226-6.678 3.928-3.593 1.945-11.232 6.284-15.318 6.284-2.227.001-8.71-1.293-6.326 2.025z" fill="#94bfac"/></g></g></svg>