<svg xmlns="http://www.w3.org/2000/svg" xmlns:xlink="http://www.w3.org/1999/xlink" width="291.969" height="406.205"><image width="292" height="407" xlink:href="69701D3A.png" transform="translate(.031 -.205)" overflow="visible" opacity=".3"/><radialGradient id="a" cx="143.215" cy="200.357" r="163.894" gradientTransform="matrix(0 -1 1.0315 0 -63.458 343.572)" gradientUnits="userSpaceOnUse"><stop offset="0" stop-color="#f9e141"/><stop offset=".201" stop-color="#f6d83f"/><stop offset=".529" stop-color="#edc03b"/><stop offset=".94" stop-color="#de9834"/><stop offset="1" stop-color="#dc9233"/></radialGradient><path d="M16.633 390.357a6.177 6.177 0 01-6.168-6.17V16.525a6.176 6.176 0 016.168-6.168h253.161a6.176 6.176 0 016.17 6.168v367.662a6.177 6.177 0 01-6.17 6.17H16.633z" fill="url(#a)"/><path d="M265.964 20.357v360H20.465v-360h245.499m3.83-20H16.633C7.703.357.465 7.595.465 16.525v367.662c0 8.932 7.238 16.17 16.168 16.17h253.161c8.93 0 16.17-7.238 16.17-16.17V16.525c0-8.929-7.24-16.168-16.17-16.168z" fill="#f9e141"/><path d="M269.794 10.357a6.176 6.176 0 016.17 6.168v367.662a6.177 6.177 0 01-6.17 6.17H16.633a6.177 6.177 0 01-6.168-6.17V16.525a6.176 6.176 0 016.168-6.168h253.161m0-10H16.633C7.703.357.465 7.595.465 16.525v367.662c0 8.932 7.238 16.17 16.168 16.17h253.161c8.93 0 16.17-7.238 16.17-16.17V16.525c0-8.929-7.24-16.168-16.17-16.168z" fill="#414042"/><g><image width="208" height="227" xlink:href="69701D3E.png" transform="translate(43.125 85)" overflow="visible" opacity=".3"/><path d="M151.789 304.958a8.353 8.353 0 01-2.924-.509c-3.034-1.128-5.173-4.15-5.449-7.698-.222-2.858.646-5.483 1.633-8.144.499-1.343 1.209-3.076 2.296-4.631 6.295-11.128 16.56-19.725 26.717-27.358 6.981-5.247 12.517-9.033 17.945-12.274 7.79-4.653 42.097-13.273 48.469-13.273.573 0 2.097 0 2.758 1.325 1.104 2.218-1.499 3.76-5.44 6.094-3.083 1.826-7.487 4.246-12.15 6.807-11.271 6.192-25.296 13.898-30.837 18.716-7.186 6.248-13.454 13.583-19.517 20.676-4.2 4.914-8.543 9.996-13.191 14.728-1.545 1.572-3.232 3.199-5.377 4.3-1.582.811-3.288 1.241-4.933 1.241z" fill="#ffc55e"/><path d="M240.476 233.069c.559 0 .895.07.969.218.9 1.809-37.514 20.14-47.951 29.215-12.283 10.682-21.49 23.976-32.822 35.511-1.453 1.479-2.973 2.951-4.863 3.922-1.222.628-2.632 1.022-4.019 1.022a6.391 6.391 0 01-2.228-.383c-2.515-.936-3.958-3.494-4.151-5.979-.193-2.486.639-4.935 1.514-7.293.547-1.473 1.195-2.967 2.113-4.257 6.019-10.688 16.026-19.165 26.226-26.829 5.719-4.298 11.574-8.457 17.77-12.156 7.224-4.316 41.205-12.991 47.442-12.991m0-4c-6.847 0-41.388 8.714-49.495 13.557-5.491 3.279-11.08 7.101-18.121 12.393-10.307 7.745-20.73 16.482-27.21 27.891-1.185 1.718-1.943 3.567-2.476 5-1.025 2.765-2.005 5.735-1.752 8.996.337 4.322 2.984 8.019 6.745 9.418 1.133.421 2.352.634 3.622.634 1.961 0 3.982-.506 5.847-1.464 2.407-1.236 4.229-2.987 5.888-4.676 4.698-4.782 9.064-9.891 13.286-14.83 6.015-7.038 12.235-14.315 19.309-20.466 5.379-4.677 19.301-12.326 30.487-18.472 4.881-2.681 9.096-4.997 12.207-6.839 1.736-1.028 3.006-1.838 3.879-2.477 3.294-2.406 3.087-4.715 2.334-6.228-.556-1.114-1.795-2.437-4.55-2.437z" fill="#965f0f"/><path d="M126.27 301.989c-1.936 0-3.759-.695-4.948-1.277-5.206-2.547-9.104-6.608-12.872-10.535l-.637-.663a319.138 319.138 0 00-26.722-24.742c-4.624-3.816-9.676-7.775-15.283-10.882-3.035-1.682-8.982-2.213-12.918-2.564-4.492-.401-6.747-.603-6.562-3.014.104-1.313.232-2.943 11.815-2.943 3.611 0 10.36.234 14.997 1.802 6.84 2.313 13.856 5.748 22.084 10.813 3.607 2.22 6.515 4.171 9.148 6.138 6.363 4.75 11.998 10.291 17.447 15.649l3.865 3.801c2.681 2.634 7.67 7.54 6.6 13.345-.291 1.579-1.014 2.881-2.091 3.765-1.058.867-2.379 1.307-3.923 1.307z" fill="#ffc55e"/><path d="M58.144 247.37c4.942 0 10.654.445 14.356 1.696 7.703 2.604 14.857 6.424 21.676 10.621 3.088 1.9 6.117 3.884 9 6.037 6.24 4.658 11.752 10.074 17.242 15.473 1.289 1.266 2.578 2.533 3.865 3.8 3.297 3.241 6.842 7.182 6.035 11.557-.178.965-.598 1.929-1.393 2.582-.746.612-1.674.854-2.656.854-1.367 0-2.839-.471-4.068-1.073-5.172-2.531-9.066-6.754-12.947-10.789a319.986 319.986 0 00-26.891-24.897c-4.896-4.041-9.951-7.967-15.586-11.089-5.637-3.122-18.541-2.56-18.455-3.675.046-.579 4.485-1.097 9.822-1.097m0-4c-2.705 0-5.313.127-7.345.357-2.156.244-6.17.698-6.464 4.425-.073.943.052 4.054 4.691 4.773.972.151 2.229.263 3.686.393 3.538.316 9.461.845 12.127 2.322 5.465 3.028 10.429 6.92 14.979 10.675a317.242 317.242 0 0126.555 24.586l.634.66c3.89 4.053 7.912 8.244 13.438 10.947 1.378.675 3.508 1.48 5.826 1.48 1.991 0 3.786-.609 5.191-1.761 1.449-1.189 2.413-2.9 2.791-4.951 1.263-6.849-4.22-12.238-7.164-15.134-1.287-1.266-2.577-2.535-3.867-3.801-5.495-5.403-11.179-10.992-17.652-15.824-2.682-2.003-5.636-3.985-9.296-6.238-8.358-5.145-15.505-8.642-22.491-11.003-4.909-1.658-11.906-1.906-15.639-1.906z" fill="#965f0f"/><path d="M124.22 263.861l-.33-.078c-2.021-.532-3.935-3.139-7.142-7.701-1.112-1.581-2.262-3.216-3.257-4.435-1.826-2.239-3.715-4.554-5.805-6.602-2.57-2.516-5.462-4.669-8.523-6.948-2.302-1.714-4.682-3.485-6.893-5.415-6.451-5.629-9.944-11.76-10.102-17.729-.088-3.306 1.258-5.934 3.601-7.03.802-.376 1.701-.566 2.672-.566 1.181 0 2.445.272 3.866.832 6.751 2.659 11.287 8.372 14.112 12.438 1.206 1.737 2.559 3.825 3.447 6.134.539 1.401.885 2.815 1.219 4.183.106.437.214.874.326 1.309 1.498 5.769 7.148 15.013 10.888 21.13 4.111 6.726 4.853 7.938 4.032 9.398a2.124 2.124 0 01-1.854 1.078h-.257z" fill="#ffc55e"/><path d="M88.441 209.359c1.055 0 2.149.305 3.133.692 5.711 2.249 9.859 6.905 13.203 11.718 1.258 1.812 2.443 3.684 3.223 5.711.66 1.713 1.018 3.509 1.477 5.276 2.636 10.154 16.637 29.104 15.002 29.104a.317.317 0 01-.08-.012c-2.119-.558-6.238-7.645-9.357-11.466-1.895-2.322-3.795-4.649-5.955-6.766-4.699-4.6-10.523-8.097-15.5-12.44-4.979-4.344-9.252-9.967-9.418-16.274-.053-1.983.525-4.266 2.449-5.166.571-.267 1.191-.377 1.823-.377m0-4c-1.266 0-2.451.254-3.521.756-3.084 1.443-4.86 4.769-4.751 8.895.173 6.542 3.902 13.175 10.787 19.182 2.269 1.979 4.68 3.775 7.013 5.511 3.006 2.238 5.845 4.352 8.319 6.773 2.009 1.968 3.861 4.239 5.653 6.436.95 1.164 2.079 2.769 3.17 4.321 3.477 4.944 5.574 7.775 8.27 8.484.361.095.73.144 1.098.144a4.128 4.128 0 003.599-2.101c1.264-2.254.067-4.386-.988-6.267-.76-1.354-1.837-3.115-3.083-5.154-3.678-6.016-9.234-15.107-10.657-20.588-.111-.426-.215-.853-.319-1.28-.35-1.429-.71-2.907-1.297-4.429-.963-2.505-2.396-4.719-3.67-6.554-2.974-4.281-7.766-10.301-15.022-13.158-1.66-.654-3.164-.971-4.601-.971z" fill="#965f0f"/><path d="M103.157 215.089l-.183-.313c-2.422-4.161-6.224-7.734-10.705-10.061a59.844 59.844 0 00-2.379-1.146c-1.334-.619-2.713-1.258-4.028-2.059-1.995-1.215-3.69-2.708-5.086-4.009-1.649-1.539-3.748-3.618-5.344-6.061-2.309-3.531-3.503-7.75-3.363-11.88.125-3.625 1.386-6.44 3.646-8.14 1.544-1.161 3.455-1.75 5.68-1.75 2.125 0 4.531.572 6.774 1.61 5.961 2.757 11.042 7.719 15.535 15.169 1.329 2.204 2.271 4.057 2.966 5.831 2.946 7.54 2.207 15.71 1.556 22.919l-.34 3.75-4.729-3.86z" fill="#ffc55e"/><path d="M81.396 171.67c2.01 0 4.125.587 5.935 1.425 6.482 2.999 11.143 8.551 14.662 14.387 1.074 1.781 2.066 3.611 2.816 5.527 2.725 6.973 2.094 14.625 1.426 22.01l-1.531-1.25c-2.625-4.51-6.666-8.313-11.512-10.829-2.078-1.079-4.299-1.927-6.289-3.138-1.748-1.064-3.289-2.391-4.762-3.764-1.871-1.745-3.66-3.59-5.033-5.691-2.098-3.208-3.166-6.977-3.039-10.719.084-2.443.791-5.062 2.85-6.609 1.275-.96 2.841-1.349 4.477-1.349m0-4c-2.631 0-5.011.745-6.883 2.153-2.76 2.075-4.296 5.418-4.442 9.668-.153 4.54 1.156 9.171 3.689 13.045 1.712 2.621 3.92 4.812 5.652 6.428 1.47 1.37 3.261 2.946 5.41 4.255 1.412.859 2.843 1.523 4.228 2.165a57.34 57.34 0 012.298 1.106c4.149 2.154 7.665 5.454 9.898 9.292l.365.627.563.459 1.531 1.25 5.835 4.763.678-7.501c.672-7.429 1.434-15.848-1.684-23.826-.737-1.885-1.728-3.834-3.116-6.137-4.706-7.803-10.073-13.02-16.408-15.951-1.77-.82-4.527-1.796-7.614-1.796z" fill="#965f0f"/><path d="M108.306 186.721c-1.35-4.662-4.403-8.849-8.599-11.79-1.502-1.053-3.155-1.966-4.905-2.933-3.806-2.101-7.74-4.273-10.114-8.036-1.343-2.127-1.968-4.5-2.363-6.33-.526-2.443-.894-5.299.382-7.96 1.4-2.927 4.681-4.894 8.162-4.894.387 0 .775.025 1.153.075 3.659.483 6.428 3.027 8.431 5.189 2.972 3.207 4.961 6.059 6.261 8.973 1.29 2.892 1.916 5.912 2.521 8.832l3.833 18.53-3.901 3.312-.861-2.968z" fill="#ffc55e"/><path d="M90.868 146.778c.298 0 .596.019.892.058 2.961.391 5.287 2.474 7.225 4.565 2.367 2.555 4.518 5.324 5.902 8.429 1.199 2.689 1.797 5.567 2.389 8.423l3.592 17.367-.641.544c-1.471-5.08-4.824-9.684-9.371-12.871-4.918-3.447-11.373-5.48-14.477-10.398-1.098-1.739-1.674-3.713-2.1-5.685-.479-2.219-.762-4.604.23-6.674 1.076-2.245 3.705-3.758 6.359-3.758m0-4c-4.235 0-8.24 2.424-9.967 6.032-1.544 3.222-1.096 6.632-.532 9.244.43 1.992 1.117 4.584 2.627 6.976 2.649 4.198 7 6.6 10.839 8.72 1.702.94 3.31 1.828 4.725 2.819 3.822 2.68 6.602 6.483 7.825 10.708l1.719 5.938 4.712-4.001.641-.544 1.809-1.536-.48-2.323-3.592-17.367c-.627-3.026-1.275-6.153-2.652-9.242-1.393-3.121-3.496-6.146-6.622-9.519-2.23-2.408-5.342-5.246-9.635-5.813-.467-.06-.943-.092-1.417-.092z" fill="#965f0f"/><path d="M118.648 148.531l2.281-.403c.164-.042.265-.066.366-.085l3.708-.709-1.737 4.024-2.082 4.798-2.536-7.625z" fill="#ffc55e"/><path d="M121.672 150.007l-.24.555-.154-.464c.132-.023.261-.065.394-.091m6.664-5.346l-7.415 1.417c-.14.026-.277.059-.415.094l-4.486.792 1.462 4.396.154.464 3.302 9.925 4.164-9.596.243-.562 2.991-6.93z" fill="#965f0f"/><path d="M120.303 136.554c.029-1.593-.715-3.35-2.274-5.37-.617-.8-1.291-1.564-2.004-2.374-.95-1.078-1.932-2.191-2.795-3.422a19.864 19.864 0 01-3.165-7.171c-.696-3.179-.197-5.82 1.442-7.638 1.302-1.441 3.246-2.235 5.475-2.235 1.835 0 3.654.538 5.124 1.515 2.379 1.579 4.104 4.159 5.275 7.888 2.343 7.462 1.429 14.669-2.508 19.773l-.396.513-4.223 1.246.049-2.725z" fill="#ffc55e"/><path d="M116.981 110.345c1.414 0 2.872.419 4.017 1.18 2.387 1.584 3.658 4.221 4.475 6.821 1.879 5.985 1.736 12.87-2.184 17.952l-.986.291c.043-2.398-1.182-4.672-2.691-6.628-1.51-1.957-3.33-3.705-4.744-5.722a18.003 18.003 0 01-2.85-6.451c-.439-2.008-.447-4.293.975-5.869.977-1.083 2.457-1.574 3.988-1.574m0-4c-2.802 0-5.272 1.028-6.958 2.894-1.459 1.617-2.974 4.56-1.913 9.405a21.868 21.868 0 003.48 7.891c.928 1.323 1.947 2.479 2.933 3.598.691.784 1.344 1.525 1.921 2.272 1.254 1.624 1.879 3.008 1.859 4.113l-.098 5.451 5.229-1.543.986-.291 1.243-.367.792-1.027c4.342-5.628 5.374-13.499 2.833-21.593-1.313-4.183-3.302-7.113-6.079-8.956-1.791-1.191-4.004-1.847-6.228-1.847z" fill="#965f0f"/><path d="M129.839 121.63l.003-.512c.016-2.962-.865-5.896-1.798-9.002-.264-.879-.527-1.758-.771-2.638-1.074-3.885-2.039-8.942.048-13.597.87-1.938 2.103-3.328 3.665-4.133a6.305 6.305 0 012.87-.688c1.38 0 2.648.46 3.571 1.295.999.904 1.439 2.091 1.684 2.905 1.23 4.096.547 8.295-.375 12.222a96.69 96.69 0 01-4.801 14.866l-1.61 3.877-2.486-4.595z" fill="#ffc55e"/><path d="M133.856 93.061c.829 0 1.641.245 2.229.778.586.53.891 1.268 1.109 1.997 1.092 3.634.459 7.505-.406 11.19a94.22 94.22 0 01-4.701 14.557l-.246-.455c.021-4.154-1.527-8.157-2.641-12.184s-1.777-8.404-.055-12.245c.572-1.275 1.447-2.499 2.756-3.173a4.35 4.35 0 011.955-.465m0-4a8.299 8.299 0 00-3.783.909c-1.95 1.004-3.531 2.765-4.576 5.092-2.376 5.297-1.224 11.068-.151 14.949.247.894.515 1.787.783 2.68.888 2.959 1.727 5.754 1.713 8.417l-.005 1.023.486.9.246.455 3.994 7.385 3.219-7.754a98.492 98.492 0 004.9-15.175c.986-4.199 1.71-8.71.344-13.257-.313-1.042-.887-2.573-2.257-3.812-1.29-1.168-3.036-1.812-4.913-1.812z" fill="#965f0f"/><path d="M140.218 105.63l.004-.111a35.348 35.348 0 012.62-12.103c.496-1.214 1.116-2.467 2.283-3.416a5.201 5.201 0 013.223-1.159c.768 0 1.505.193 2.132.559 1.428.833 2.182 2.36 2.245 4.54.088 3.204-.709 6.284-2.304 8.912a15.425 15.425 0 01-7.324 6.25l-2.544 1.033-.335-4.505z" fill="#ffc55e"/><path d="M148.348 90.841c.396 0 .785.088 1.126.287.986.576 1.221 1.795 1.252 2.869.074 2.708-.578 5.449-2.015 7.815a13.426 13.426 0 01-6.367 5.435l-.123-1.655a33.482 33.482 0 012.473-11.42c.393-.96.857-1.94 1.693-2.62a3.204 3.204 0 011.961-.711m0-4c-1.594 0-3.229.586-4.484 1.607-1.52 1.235-2.305 2.821-2.872 4.209a37.342 37.342 0 00-2.768 12.788l-.009.222.017.221.123 1.655.407 5.476 5.087-2.066a17.428 17.428 0 008.282-7.066c1.795-2.956 2.691-6.414 2.593-10-.105-3.638-1.816-5.386-3.232-6.214a6.258 6.258 0 00-3.144-.832z" fill="#965f0f"/><path d="M138.991 121.75l-1.465-1.01.005-1.055c.015-3.46 1.774-6.786 4.709-8.896.719-.518 1.462-.933 2.18-1.333.605-.338 1.177-.657 1.684-1.01 1.128-.784 2.07-1.816 3.185-3.084.823-.936 1.755-1.993 3.09-2.72a6.255 6.255 0 012.931-.762c.87 0 1.703.21 2.408.608 1.552.877 2.489 2.648 2.507 4.738.031 3.197-1.876 6.494-5.101 8.816-2.675 1.924-5.758 2.989-8.739 4.02l-6.532 2.254-.862-.566z" fill="#ffc55e"/><path d="M155.309 103.879c.502 0 .994.107 1.425.35 1.068.604 1.48 1.86 1.49 3.014.027 2.825-1.852 5.435-4.27 7.176-2.42 1.741-5.349 2.759-8.224 3.752l-5.604 1.934-.596-.411c.012-2.797 1.482-5.559 3.877-7.281 1.207-.869 2.615-1.475 3.838-2.325 1.367-.95 2.468-2.181 3.544-3.405.75-.852 1.52-1.726 2.545-2.284a4.213 4.213 0 011.975-.52m0-4a8.182 8.182 0 00-3.882 1.002c-1.651.899-2.753 2.15-3.638 3.155-1.026 1.168-1.884 2.111-2.826 2.766-.428.298-.957.594-1.518.907-.732.409-1.562.872-2.374 1.457-3.451 2.483-5.522 6.412-5.54 10.511l-.009 2.11 1.736 1.199.596.411 1.665 1.149 1.912-.66 5.603-1.934c2.976-1.027 6.345-2.191 9.256-4.286 3.81-2.743 5.972-6.556 5.934-10.461-.024-2.81-1.341-5.225-3.522-6.458a6.911 6.911 0 00-3.393-.868z" fill="#965f0f"/><path d="M141.495 273.743l-1.028-.134-.568-.792c-1.496-2.207 1.275-19.074 2.3-23.1 1.725-6.772 3.226-13.926 1.044-20.393-.73-2.165-1.859-4.226-3.055-6.407-1.68-3.064-3.416-6.234-4.039-9.829a16.883 16.883 0 011.192-9.69c1.021-2.324 2.44-3.994 4.217-4.963 1.182-.645 2.574-.987 4.027-.987 2.185 0 4.447.762 6.208 2.089 2.3 1.734 3.967 4.377 4.954 7.854 1.387 4.879 1.182 9.877.88 14.179-.393 5.622-1.114 11.576-3.711 17.03-.596 1.253-1.279 2.453-1.939 3.613-.752 1.319-1.462 2.566-2.039 3.86-.795 1.788-1.355 3.734-1.898 5.617-.953 3.298-1.881 8.417-2.626 12.531-1.527 8.431-1.725 9.521-3.784 9.521l-.135.001z" fill="#ffc55e"/><path d="M145.585 199.448c1.781 0 3.61.635 5.004 1.686 2.234 1.686 3.504 4.232 4.234 6.804 1.244 4.378 1.125 8.978.809 13.493-.389 5.561-1.092 11.206-3.521 16.311-1.217 2.557-2.848 4.936-3.999 7.518-.846 1.901-1.422 3.893-1.994 5.878-1.985 6.871-3.716 20.606-4.491 20.606h-.009c-.77-.101.717-14.451 2.52-21.531s3.344-14.581 1-21.526c-1.852-5.492-6.033-10.26-7.018-15.938a14.961 14.961 0 011.053-8.544c.699-1.591 1.74-3.137 3.344-4.012.934-.513 1.993-.745 3.068-.745m0-4c-1.787 0-3.512.426-4.987 1.232-2.172 1.185-3.885 3.175-5.088 5.913a18.861 18.861 0 00-1.332 10.836c.681 3.924 2.498 7.241 4.256 10.45 1.151 2.102 2.239 4.087 2.913 6.084 2.008 5.951.564 12.779-1.086 19.262-.829 3.255-1.68 8.304-2.276 13.507-1.062 9.261-.479 10.12.259 11.208a4.097 4.097 0 002.855 1.769l.258.034h.27c3.493 0 4.229-3.417 4.67-5.459.321-1.489.676-3.442 1.085-5.705.737-4.068 1.655-9.132 2.579-12.331.524-1.82 1.066-3.7 1.806-5.363.536-1.201 1.223-2.406 1.948-3.682.679-1.191 1.381-2.423 2.009-3.743 2.738-5.755 3.493-11.932 3.899-17.75.313-4.47.524-9.675-.951-14.865-1.109-3.905-3.019-6.901-5.673-8.904-2.103-1.584-4.804-2.493-7.414-2.493z" fill="#965f0f"/><path d="M155.69 237.915l.129-.256c2.7-5.338 6.061-11.982 11.369-17.009 1.315-1.245 3.13-2.765 5.508-3.478a8.982 8.982 0 012.592-.375c4.549 0 8.708 3.158 9.468 7.19.54 2.868-.464 5.974-2.754 8.521-2.129 2.37-5.021 3.89-7.011 4.827-5.396 2.542-11.443 4.115-17.489 4.549l-2.582.186.77-4.155z" fill="#ffc55e"/><path d="M175.288 218.796c3.448 0 6.903 2.382 7.502 5.561.455 2.415-.576 4.924-2.275 6.813-1.697 1.89-4.002 3.237-6.375 4.354-5.207 2.453-10.947 3.945-16.781 4.364l.246-1.328c2.965-5.862 6.061-11.821 10.959-16.46 1.346-1.273 2.871-2.464 4.707-3.015a7.047 7.047 0 012.017-.289m0-4c-1.088 0-2.153.154-3.167.459-2.813.843-4.946 2.653-6.307 3.94-5.563 5.267-9.01 12.083-11.779 17.56l-.259.512-.104.564-.246 1.329-.943 5.089 5.162-.371c6.289-.452 12.583-2.089 18.2-4.735 2.146-1.01 5.273-2.659 7.646-5.3 2.71-3.013 3.888-6.741 3.23-10.227-.932-4.945-5.953-8.82-11.433-8.82z" fill="#965f0f"/><path d="M159.353 218.913c.421-3.622-.631-7.268-1.745-11.128-.427-1.481-.869-3.014-1.224-4.551-1.834-7.944-.777-15.182 2.977-20.379.452-.628 1.833-2.543 4.165-2.683.086-.005.175-.008.263-.008 1.267 0 2.54.556 3.683 1.608 3.626 3.33 3.733 8.316 3.55 12.728-.185 4.381-.376 8.911-1.416 13.354-1.209 5.166-3.406 9.408-6.532 12.609l-.39.399-3.667.946.336-2.895z" fill="#ffc55e"/><path d="M163.788 182.164c.883 0 1.698.5 2.328 1.08 3.037 2.79 3.07 7.229 2.906 11.174-.184 4.35-.369 8.726-1.365 12.981s-2.854 8.429-6.016 11.667l-.303.078c.643-5.529-1.752-10.92-3.006-16.359-1.463-6.336-1.248-13.363 2.648-18.759.639-.886 1.51-1.788 2.664-1.857.049-.003.096-.005.144-.005m0-4c-.129 0-.258.004-.388.012-2.171.13-4.078 1.312-5.663 3.511-4.095 5.669-5.268 13.483-3.302 21.998.366 1.588.815 3.147 1.25 4.654 1.057 3.662 2.055 7.121 1.68 10.343l-.673 5.792 5.646-1.457.303-.078 1.082-.279.781-.799c3.383-3.465 5.755-8.024 7.048-13.55 1.083-4.627 1.278-9.252 1.467-13.725.146-3.513.418-10.049-4.196-14.288-1.516-1.395-3.258-2.134-5.035-2.134z" fill="#965f0f"/><path d="M172.548 206.394l.074-.589c.502-3.455.134-6.923-.256-10.595-.141-1.32-.28-2.641-.379-3.959-.326-4.33-.345-10.678 3.239-15.792 1.17-1.669 2.536-2.9 4.063-3.66a8.26 8.26 0 013.652-.872c.884 0 1.728.153 2.507.454 2.077.802 3.697 2.693 4.334 5.06.52 1.932.364 3.822.161 5.592-.385 3.385-1.053 7.313-3.085 10.758-1.334 2.258-3.164 4.186-4.933 6.05-2.513 2.648-4.887 5.149-5.425 8.156l-3.952-.603z" fill="#ffc55e"/><path d="M182.941 172.927c.612 0 1.22.101 1.786.319 1.627.628 2.699 2.138 3.123 3.714s.291 3.229.105 4.844c-.391 3.438-1.027 6.932-2.82 9.97-3.111 5.266-9.545 8.958-10.604 14.87l.074-.589c.721-4.956-.25-9.967-.625-14.954s-.063-10.291 2.883-14.494c.852-1.215 1.934-2.329 3.316-3.018a6.3 6.3 0 012.762-.662m0-4c-1.55 0-3.12.374-4.541 1.081-1.83.911-3.448 2.358-4.812 4.303-3.951 5.639-3.944 12.454-3.597 17.09.103 1.36.246 2.712.385 4.021.377 3.543.731 6.89.271 10.058l-.006.038-.005.038-.074.589 7.906 1.205c.433-2.418 2.605-4.708 4.906-7.132 1.846-1.945 3.755-3.957 5.203-6.409 2.225-3.77 2.942-7.955 3.352-11.553.215-1.871.394-4.062-.218-6.334-.801-2.981-2.874-5.376-5.545-6.407a8.904 8.904 0 00-3.225-.588z" fill="#965f0f"/><g><path d="M116.232 239.281l.431-1.219c.453-1.285-.121-2.928-.729-4.667l-.138-.395a48.89 48.89 0 01-2.441-10.982c-.241-2.323-.398-5.373.533-8.352 1.007-3.212 3.179-5.794 5.96-7.084 1.668-.774 3.657-1.15 6.082-1.15h.155c1.034.007 2.394.071 3.741.514 3.574 1.177 6.028 4.612 6.91 9.671.397 2.279.478 4.177.25 5.973-.511 4.04-2.731 8.06-6.423 11.626-3.148 3.042-6.894 5.375-10.516 7.631l-1.317.82-2.498-2.386z" fill="#ffc55e"/><path d="M125.93 207.432h.143c1.059.007 2.131.086 3.129.414 3.439 1.133 4.986 4.797 5.564 8.114.311 1.777.463 3.59.236 5.378-.5 3.954-2.844 7.556-5.828 10.439s-6.6 5.14-10.184 7.372l-.441-.422c.732-2.076-.143-4.303-.863-6.383a46.873 46.873 0 01-2.342-10.533c-.262-2.524-.309-5.113.453-7.549.764-2.438 2.43-4.725 4.893-5.867 1.605-.744 3.439-.963 5.24-.963m0-4c-2.722 0-4.985.437-6.924 1.336-3.291 1.527-5.852 4.552-7.026 8.3-1.041 3.329-.875 6.643-.614 9.157a50.94 50.94 0 002.541 11.431l.139.399c.424 1.212.951 2.72.731 3.343l-.859 2.437 1.868 1.785.441.422 2.244 2.145 2.635-1.641c3.71-2.311 7.547-4.701 10.848-7.891 4.022-3.886 6.448-8.317 7.018-12.814.249-1.972.163-4.12-.265-6.568-1.015-5.819-3.945-9.806-8.254-11.225-1.613-.53-3.174-.607-4.354-.615l-.169-.001z" fill="#965f0f"/></g><g><path d="M111.429 207.734l.155-.964c.301-1.87.063-3.84-.187-5.926a66.073 66.073 0 01-.253-2.326c-.375-4.296.138-7.882 1.566-10.959 1.809-3.887 5.198-6.804 9.07-7.804a11.691 11.691 0 012.927-.366c3.727 0 7.137 1.674 8.901 4.37 1.348 2.059 1.652 4.395 1.782 6.613.054.903.093 1.962-.117 3.055-.645 3.35-3.296 5.64-5.407 6.971-1.424.897-2.932 1.597-4.39 2.274-.91.423-1.771.823-2.607 1.265a25.7 25.7 0 00-7.004 5.392l-1.463 1.604-2.973-3.199z" fill="#ffc55e"/><path d="M124.708 181.388c2.872 0 5.756 1.216 7.228 3.465 1.094 1.671 1.346 3.687 1.459 5.634.051.854.078 1.718-.084 2.562-.455 2.364-2.355 4.298-4.51 5.656-2.154 1.357-4.6 2.266-6.865 3.463-2.859 1.512-5.428 3.489-7.547 5.813l-.83-.893c.465-2.894-.17-5.826-.422-8.742-.293-3.364-.053-6.84 1.389-9.944 1.443-3.104 4.221-5.797 7.756-6.71a9.67 9.67 0 012.426-.304m0-4c-1.171 0-2.325.145-3.429.43-4.442 1.147-8.324 4.473-10.381 8.896-1.581 3.406-2.152 7.323-1.747 11.979.071.816.167 1.616.26 2.39.233 1.943.454 3.778.198 5.371l-.31 1.928 1.33 1.43.83.893 2.957 3.18 2.927-3.208a23.698 23.698 0 016.461-4.972 56.182 56.182 0 012.516-1.219c1.515-.704 3.081-1.431 4.613-2.396 3.508-2.212 5.688-5.076 6.305-8.285.242-1.259.215-2.452.149-3.555-.138-2.37-.496-5.129-2.105-7.587-2.129-3.254-6.18-5.275-10.574-5.275z" fill="#965f0f"/></g><g><path d="M116.635 180.084c-1.422 0-2.787-.894-3.396-2.225-.555-1.217-.425-2.412-.26-3.436a48.734 48.734 0 012.394-9.104c1.445-3.917 3.122-6.835 5.274-9.185 2.791-3.043 6.371-4.984 10.083-5.464.483-.063.948-.094 1.381-.094 1.165 0 2.199.229 3.073.678.989.509 1.833 1.322 2.576 2.484 2.879 4.523 2.121 10.977-1.841 15.698-2.959 3.525-7.458 6.222-13.755 8.245l-.55.175c-.604.191-1.193.377-1.747.585l.412.56-2.549.897a3.301 3.301 0 01-1.095.186z" fill="#ffc55e"/><path d="M132.11 152.576c.756 0 1.504.12 2.157.457.781.401 1.354 1.074 1.807 1.783 2.609 4.099 1.469 9.574-1.688 13.335s-7.957 6.06-12.834 7.626c-1.629.523-3.318.994-4.699 1.945l.213.289c-.142.05-.287.073-.432.073-.659 0-1.311-.475-1.578-1.058-.324-.712-.227-1.521-.104-2.284a46.641 46.641 0 012.295-8.729c1.129-3.059 2.609-6.057 4.873-8.527 2.264-2.469 5.387-4.382 8.865-4.832.37-.048.749-.078 1.125-.078m0-4c-.519 0-1.069.037-1.637.11-4.18.541-8.192 2.706-11.301 6.096-2.335 2.548-4.139 5.676-5.678 9.845a50.68 50.68 0 00-2.491 9.477c-.142.881-.438 2.714.412 4.579.934 2.037 3.029 3.4 5.219 3.4.603 0 1.194-.101 1.76-.3l5.098-1.794-.379-.514c6.49-2.13 11.184-4.996 14.337-8.754 4.59-5.468 5.393-12.723 1.998-18.054-.942-1.475-2.038-2.518-3.353-3.193-1.157-.595-2.498-.898-3.985-.898z" fill="#965f0f"/></g><g><path d="M112.542 159.234c-.673-2.804-3.461-4.88-6.411-7.078a99.867 99.867 0 01-1.846-1.397c-6.175-4.833-9.568-10.897-9.311-16.639.132-2.906 1.262-5.288 3.182-6.708 1.283-.949 2.902-1.45 4.684-1.45 1.691 0 3.441.46 4.928 1.296 2.729 1.535 4.477 3.98 5.826 6.169 2.629 4.267 4.23 8.275 4.896 12.252.805 4.805.171 9.414-1.833 13.328l-2.953 5.07-1.162-4.843z" fill="#ffc55e"/><path d="M102.84 127.962c1.369 0 2.775.381 3.947 1.04 2.254 1.268 3.801 3.361 5.104 5.476 2.209 3.585 3.945 7.461 4.627 11.533s.268 8.358-1.641 12.087l-.391.67c-1.008-4.199-5.406-6.796-8.969-9.583-4.834-3.783-8.807-9.142-8.545-14.974.088-1.934.732-3.977 2.373-5.19.991-.733 2.227-1.059 3.495-1.059m0-4c-2.212 0-4.242.637-5.872 1.842-2.414 1.786-3.831 4.707-3.991 8.225-.393 8.759 6.145 15.229 10.076 18.305.611.479 1.245.951 1.883 1.426 2.652 1.976 5.157 3.841 5.661 5.94l2.325 9.69 5.02-8.609.391-.67.056-.095.05-.098c2.201-4.3 2.901-9.338 2.025-14.569-.709-4.237-2.399-8.48-5.167-12.971-1.396-2.267-3.402-5.095-6.548-6.864-1.782-1-3.88-1.552-5.909-1.552z" fill="#965f0f"/></g><g><path d="M189.916 184.974c.158-.349.345-.684.534-1.016l4.809-8.62-1.108 11.298-1.347.854-5.616 3.532 2.728-6.048z" fill="#ffc55e"/><path d="M192.331 184.694l-.076.778-.516.324c.172-.38.389-.738.592-1.102m5.856-18.713l-9.349 16.764-.126.223c-.183.321-.41.72-.618 1.183l-5.459 12.095 11.233-7.063.516-.324 1.661-1.044.191-1.953.075-.777 1.876-19.104z" fill="#965f0f"/></g><g><path d="M190.522 192.554l.63-1.125c1.434-2.563 3.839-4.321 6.181-5.902a152.596 152.596 0 017.836-4.948c1.01-.594 2.391-1.406 4.029-1.677a6.283 6.283 0 011.022-.083c2.64 0 5.588 1.716 5.952 4.588.185 1.47-.243 3.709-3.334 6.037-4.008 3.021-9.063 4.742-14.232 4.843a28.23 28.23 0 01-.582.005c-.372 0-.745-.006-1.117-.011-.353-.005-.704-.011-1.056-.011-.761 0-1.652.023-2.496.19l-1.246.247-1.587-2.153z" fill="#ffc55e"/><path d="M210.221 180.819c1.854 0 3.755 1.154 3.968 2.839.209 1.66-1.146 3.129-2.553 4.188-3.658 2.758-8.338 4.348-13.068 4.44-.181.003-.361.005-.543.005-.724 0-1.45-.022-2.173-.022-.972 0-1.938.041-2.886.229l-.068-.093c1.223-2.186 3.4-3.767 5.555-5.222a149.81 149.81 0 017.732-4.882c1.041-.612 2.123-1.226 3.34-1.427.229-.037.461-.055.696-.055m0-4a8.31 8.31 0 00-1.351.11c-2.004.332-3.635 1.291-4.714 1.925a154.285 154.285 0 00-7.942 5.014c-2.541 1.717-5.159 3.638-6.808 6.584l-1.259 2.25 1.53 2.076.068.093 1.507 2.045 2.492-.495c.673-.134 1.442-.152 2.106-.152.341 0 .683.006 1.024.011.383.006.766.012 1.148.012.207 0 .413-.001.62-.005 5.589-.11 11.058-1.973 15.399-5.246 3.854-2.904 4.364-5.889 4.113-7.882-.455-3.616-3.867-6.34-7.933-6.34z" fill="#965f0f"/></g><g><path d="M205.693 174.905l1.341-1.272c3.29-3.122 7.23-5.425 10.999-7.449 3.024-1.625 6.578-3.359 10.479-3.359.333 0 .668.013 1.003.039 2.815.221 5.864 1.771 6.327 4.733.385 2.465-1.316 4.915-4.439 6.396-2.771 1.313-5.76 1.872-8.584 2.331a168.801 168.801 0 01-13.535 1.634l-1.051.084-2.54-3.137z" fill="#ffc55e"/><path d="M228.512 164.825c.28 0 .563.01.847.033 2.01.158 4.221 1.214 4.508 3.049.289 1.854-1.51 3.421-3.32 4.279-2.494 1.183-5.285 1.715-8.049 2.164-4.43.719-8.893 1.257-13.373 1.614l-.713-.881c3.051-2.895 6.781-5.104 10.568-7.138 2.946-1.582 6.157-3.12 9.532-3.12m0-4c-4.365 0-8.187 1.856-11.426 3.597-3.89 2.089-7.967 4.476-11.428 7.759l-2.682 2.544 2.325 2.874.713.881 1.326 1.638 2.102-.167a170.4 170.4 0 0013.695-1.653c2.837-.461 6.115-1.072 9.122-2.498 3.955-1.875 6.085-5.136 5.559-8.51-.633-4.042-4.547-6.137-8.146-6.42-.383-.03-.774-.045-1.16-.045z" fill="#965f0f"/></g><g><path d="M126.362 138.824c1.538-3.543 3.127-7.206 5.525-10.508 1.129-1.553 2.95-3.711 5.729-4.518a7.764 7.764 0 012.172-.305c3.131 0 6.245 1.816 7.75 4.518 1.631 2.931 1.52 6.676-.297 10.018-1.341 2.47-3.473 4.65-6.708 6.861-4.773 3.259-10.405 5.558-16.286 6.648l-3.695.685 5.81-13.399z" fill="#ffc55e"/><path d="M139.788 125.493c2.437 0 4.867 1.452 6.003 3.491 1.387 2.492 1.055 5.585-.307 8.09-1.361 2.506-3.637 4.495-6.08 6.165-4.582 3.129-9.926 5.296-15.521 6.333 1.439-3.317 2.877-6.635 4.314-9.953 1.514-3.487 3.041-7.005 5.309-10.128 1.174-1.615 2.654-3.188 4.668-3.772a5.761 5.761 0 011.614-.226m0-4c-.933 0-1.852.129-2.729.384-3.368.979-5.487 3.472-6.788 5.262-2.528 3.481-4.162 7.246-5.742 10.887-1.438 3.32-2.876 6.637-4.315 9.954l-2.991 6.895 7.39-1.37c6.152-1.14 12.048-3.548 17.049-6.963 3.46-2.365 5.86-4.837 7.339-7.559 2.146-3.947 2.253-8.413.287-11.944-1.85-3.318-5.667-5.546-9.5-5.546z" fill="#965f0f"/></g><g><path d="M205.045 169.64c.892-6.917 3.613-13.611 7.87-19.358.455-.615 1.843-2.489 4.062-2.489.069 0 .141.002.211.006 1.723.092 3.249 1.396 3.709 3.17.35 1.354.049 2.651-.15 3.509-.624 2.701-1.283 4.938-2.47 7.071-2.251 4.048-6.09 6.971-9.476 9.55l-4.332 3.005.576-4.464z" fill="#ffc55e"/><path d="M216.977 149.792l.103.003c.934.05 1.664.838 1.881 1.675.217.838.033 1.714-.162 2.556-.52 2.248-1.131 4.504-2.27 6.551-2.018 3.629-5.525 6.331-8.939 8.931l-.561.389c.848-6.574 3.441-12.952 7.494-18.424.597-.808 1.408-1.681 2.454-1.681m0-4c-2.142 0-4.049 1.11-5.669 3.3-4.459 6.02-7.312 13.037-8.246 20.292l-1.151 8.928 7.397-5.129.561-.389.073-.051.07-.054c3.543-2.698 7.559-5.755 10.013-10.169 1.377-2.475 2.098-5.113 2.671-7.594.228-.982.61-2.63.137-4.458-.676-2.61-2.954-4.529-5.54-4.667a5.53 5.53 0 00-.316-.009z" fill="#965f0f"/></g><g><path d="M222.896 162.383c.014-.036.029-.094.042-.153l-3.92-.789.229-1.267.994-.498.04-.015 3.862-1.933-1.117 4.27c-.035.133-.081.26-.13.385z" fill="#ffc55e"/><path d="M221.091 161.493c-.027.104-.082.198-.105.304l.051-.281c.017-.01.036-.015.054-.023m6.103-7.527l-7.704 3.854-.018.006-.226.11-1.791.896-.356 1.971-.051.281 7.842 1.579a3.226 3.226 0 01-.145.478c.069-.174.146-.376.215-.637l2.234-8.538z" fill="#965f0f"/></g><g><path d="M191.897 168.492c.153-1.584.345-3.556 1.297-5.346 1.041-1.953 2.882-3.213 4.805-3.292l.201-.004c2.452 0 4.275 1.766 5.164 3.417 1.489 2.769 1.47 6.307-.054 9.708-1.266 2.818-3.348 5.209-5.184 7.319-1.546 1.773-3.018 3.518-4.048 5.372l-4.671 8.408 2.49-25.582z" fill="#ffc55e"/><path d="M198.2 161.85c1.485 0 2.738 1.13 3.402 2.365 1.316 2.447 1.014 5.418-.117 7.942-1.133 2.523-3.012 4.692-4.867 6.823-1.576 1.809-3.145 3.657-4.287 5.714l1.557-16.008c.152-1.571.318-3.184 1.072-4.601.609-1.143 1.738-2.177 3.121-2.233l.119-.002m0-4c-.094 0-.188.002-.282.006-2.669.109-5.094 1.734-6.487 4.348-1.142 2.145-1.354 4.336-1.524 6.097l-.778 8.003-.778 8.003-1.864 19.146 9.343-16.815c.937-1.687 2.277-3.275 3.806-5.028 1.929-2.215 4.114-4.725 5.501-7.813 1.78-3.974 1.776-8.156-.01-11.476-1.484-2.758-4.138-4.471-6.927-4.471z" fill="#965f0f"/></g><g><path d="M177.316 216.694c-1.109 0-2.215-.046-3.285-.138l-3.577-.307 3.425-4.602c2.244-4.322 5.47-8.286 9.336-11.474 1.492-1.232 3.534-2.744 6.094-3.507a10.985 10.985 0 013.139-.462c1.74 0 3.354.436 4.668 1.262 2.73 1.712 4.103 5.184 3.337 8.443-.629 2.673-2.529 5.097-5.353 6.825-2.58 1.579-5.504 2.341-7.762 2.83-3.474.749-6.845 1.13-10.022 1.13z" fill="#ffc55e"/><path d="M192.447 198.205c1.283 0 2.551.293 3.604.955 2.125 1.333 2.996 3.981 2.453 6.292s-2.309 4.267-4.449 5.577c-2.141 1.31-4.637 2.039-7.141 2.58-3.144.679-6.372 1.085-9.599 1.085a36.38 36.38 0 01-3.114-.131l1.379-1.853c2.135-4.16 5.182-7.923 8.906-10.994 1.594-1.315 3.354-2.525 5.393-3.133a9.099 9.099 0 012.568-.378m0-4c-1.246 0-2.493.184-3.709.545-2.938.875-5.286 2.634-6.797 3.881-4.027 3.321-7.397 7.447-9.762 11.95l-1.187 1.594-4.288 5.761 7.155.613c1.127.097 2.29.146 3.456.146 3.318 0 6.832-.396 10.443-1.175 2.413-.521 5.547-1.342 8.383-3.078 3.284-2.01 5.505-4.877 6.256-8.074.959-4.078-.777-8.435-4.221-10.596-1.629-1.025-3.612-1.567-5.729-1.567z" fill="#965f0f"/></g><g><path d="M219.159 160.974c.64-2.379 2.241-4.311 3.878-6.043 2.664-2.82 5.979-5.747 10.362-6.083.202-.015.405-.024.608-.024.77 0 1.434.129 2.029.396 1.377.615 2.345 1.995 2.525 3.603.292 2.607-1.404 5.218-4.321 6.652-1.656.815-3.399 1.172-5.084 1.517-.473.097-.945.193-1.412.3a28.46 28.46 0 00-5.799 2.01l-3.909 1.85 1.123-4.178z" fill="#ffc55e"/><path d="M234.008 150.823c.42 0 .839.054 1.214.222.803.358 1.262 1.185 1.354 2 .217 1.935-1.352 3.717-3.217 4.634-1.865.918-4.01 1.192-6.061 1.663a30.473 30.473 0 00-6.207 2.151c.529-1.97 1.945-3.648 3.4-5.189 2.432-2.573 5.365-5.179 9.061-5.462.151-.012.303-.019.456-.019m0-4c-.254 0-.508.011-.759.03-5.064.388-8.738 3.606-11.665 6.704-1.817 1.924-3.602 4.091-4.356 6.898l-2.244 8.354 7.818-3.7a26.427 26.427 0 015.391-1.868c.452-.104.909-.197 1.366-.291 1.725-.354 3.679-.754 5.566-1.683 3.683-1.811 5.813-5.213 5.426-8.668-.261-2.311-1.678-4.305-3.698-5.207-.858-.383-1.789-.569-2.845-.569z" fill="#965f0f"/></g><g><path d="M85.355 198.85c4.174 2.63 8.543 4.391 12.496 7.293 3.311 2.429 6.477 7.695 8.529 9.002.377-5.868 1.604-10.027.158-15.754-.607-2.405-1.295-8.104-3.316-9.728-4.436 2.916-12.695 5.137-17.842 3.48s-9.807-5.918-11.297-10.74l.631 3.412c1.55 6.19 4.942 9.445 10.641 13.035zM85.186 159.71l-.375-.023c.154.031.285.107.428.162-.016-.047-.04-.092-.053-.139z" fill="#bf812e"/><path d="M103.328 176.48c1.451 1.25 2.721 2.666 3.945 4.106 1.949 2.298 2.232 3.249 3.416 5.953.314-2.614-.529-4.497-1.152-7.567-.756-3.716-.889-7.59-2.445-11.088-.107-.238-.225-.482-.43-.659-.32-.276-.787-.34-1.223-.394-2.604-.319-5.184-.768-7.764-1.215-3.596-.625-7.438-1.367-9.979-3.79-.764-.728-1.477-1.598-2.459-1.978a17.211 17.211 0 004.092 6.746c3.944 4.032 9.696 6.178 13.999 9.886zM109.762 153.544c2.275 1.942 4.297 4.407 4.516 7.254l.258.414c1.93-4.715 3.354-10.301 1.717-15.107-2.92 1.041-7.508 1.369-10.463.417-2.957-.952-5.52-2.9-7.094-5.39 1.145 2.348 2.377 4.696 4.178 6.664 1.999 2.184 4.614 3.806 6.888 5.748zM122.699 137.591a40.406 40.406 0 002.783-4.934c1.113-2.357 1.953-5.197.504-7.396-1.686 1.757-4.691 2.072-7.051 1.185-2.357-.888-4.133-2.76-5.395-4.796.625 3.042 3.021 5.469 5.164 7.857 2.097 2.338 4.116 5.073 3.995 8.084zM122.703 137.787c.004-.066-.006-.13-.004-.195-.072.11-.135.227-.209.338l.213-.143zM131.891 121.028l-.021.458c2.83-5.218 4.514-10.958 4.92-16.777a10.993 10.993 0 01-2.611 2.898c-.775.604-1.674 1.126-2.68 1.241-1.008.115-2.133-.267-2.6-1.095.107 4.555 3.712 8.767 2.992 13.275zM147.516 103.474c1.354-1.632 2.302-3.599 2.384-5.649.008-.214-.084-.507-.314-.478-.135.017-.213.145-.273.258-1.302 2.403-4.069 3.777-6.671 5.001l-.096 4.586.047.419c1.825-1.18 3.569-2.504 4.923-4.137zM149.776 114.661c-2.692.591-5.595.61-8.165-.335a10.29 10.29 0 00-1.689 5.321l-.131.73c6.695-.786 12.335-4.809 17.608-8.683-2.416 1.243-4.929 2.376-7.623 2.967zM123.688 149.725l.443.845a575.052 575.052 0 008.775-3.914c2.611-1.193 5.232-2.416 7.525-4.074 2.291-1.657 4.258-3.797 5.172-6.343.609-1.693.734-3.499 1.178-5.234-1.365 3.319-4.256 5.879-7.059 8.319-.934.812-1.879 1.633-2.992 2.221-2.564 1.354-5.678 1.33-8.629 1.514-.422.027-.885.076-1.176.357-.129.127-.211.287-.291.445l-2.946 5.864zM137.215 161.979c-.256-.08-.52.084-.734.236-5.344 3.794-11.875 5.876-17.611 9.151-1.332.761-2.664 1.629-3.443 2.881-.777 1.252-.848 2.984.23 4.031l1.227.495c1.201-.118 1.08-.387 2.197-.811 3.926-1.491 7.811-3.187 11.145-5.608 3.332-2.422 6.107-5.641 7.246-9.404.106-.355.124-.853-.257-.971zM119.385 203.556c2.213-1.291 4.621-2.27 6.961-3.355 2.607-1.21 5.393-2.863 5.988-5.493-2.471 2.754-5.818 4.987-9.646 5.588-3.826.6-8.117-.691-10.262-3.667a42.54 42.54 0 011.066 12.006l.371-.039c1.27-2.109 3.309-3.75 5.522-5.04zM110.205 236.099c-.348-.291-.842-.369-1.307-.442-8.936-1.414-17.238-5.981-22.82-12.552l.156.184c1.553 3.272 4.607 5.701 7.549 8.031 6.998 5.543 13.951 11.229 19.559 17.977 3.42 4.115 6.322 8.607 10.143 12.412.445.443.965.905 1.619.955a168.654 168.654 0 00-6.168-10.712c-2.98-4.776-5.887-9.963-8.199-15.043-.135-.292-.276-.595-.532-.81zM127.064 226.514c-4.072.964-8.791-.538-11.072-3.788-.492 5.712 3.613 11.207 2.76 16.882l-.396.46c4.791-1.637 9.041-4.586 12.064-8.373s4.809-8.398 5.07-13.09c-1.097 3.733-4.351 6.946-8.426 7.909zM180.108 227.656c-5.025 3.527-11.885 3.558-17.906 5.327-.611.179-1.238.39-1.695.804-.395.358-.627.836-.85 1.302l-2.32 4.835 1.225-.287c3.174-.171 5.975-.995 8.859-1.623s5.92-2.188 8.529-3.484c2.607-1.297 4.758-2.74 5.527-5.372.113-.393-.369-1.682-.807-1.725-.208-.021-.394.106-.562.223zM152.575 236.416c.529-1.535 1.457-4.218 1.738-5.808.939-5.313.826-9.877 1.264-15.245-4.85 1.85-12.075 1.706-16.226-1.25.541 1.303.826 2.695.836 4.09.004.614-.043 1.242.148 1.831.176.541.541 1.01.877 1.481 2.244 3.156 3.416 6.849 4.316 10.528.578 2.362.162 5.728.254 8.147.223 5.766-1.582 9.847-3.316 15.391-1.732 5.545-1.896 11.6-.789 17.278l.947-5.372c.947-3.484 1.422-4.791 1.738-9.873.338-5.445 3.24-10.795 5.528-15.826.699-1.536 2.14-3.785 2.685-5.372zM161.368 220.281a20.178 20.178 0 005.158-9.129c.98-3.859 1.848-7.854 2.105-11.809-.539 2.531-2.631 4.821-4.441 6.792-.736.8-1.625 1.563-2.74 1.775s-2.021-.91-2.242-1.938l.369 1.791c1.899 4.03 2.326 8.154 1.791 12.518zM178.19 209.186a16.39 16.39 0 01-3.625 5.347l.412.51c3.453-.559 7.152-.427 10.605-.986 3.07-.498 5.994-1.724 8.582-3.323 2.586-1.601 4.439-4.575 3.592-7.333-1.494 2.341-4.336 3.662-7.146 4.493a34.538 34.538 0 01-12.42 1.292zM175.132 204.522c.197-.403.324-.825.439-1.249l-1.008 1.315.569-.066zM178.163 199.886c1.43-1.869 3.066-2.482 4.104-4.561.486-.973 1.6-3.66 2.053-4.646 1.041-2.259 1.484-3.984 2.389-6.293.902-2.309 1.328-4.891.441-7.205-.449 5.818-4.842 11.225-10.783 13.27-.41.141-.855.288-1.1.622-.172.235-.217.528-.242.811-.201 2.123.313 4.239.633 6.35.254 1.673.35 3.418-.086 5.04.863-1.13 1.726-2.259 2.591-3.388zM208.241 185.294c-2.34 2.139-5.59 3.201-8.797 3.924-1.143.258-2.314.487-3.348 1.008s-1.93 1.395-2.111 2.465l.094-.161c1.27-.357 2.631-.142 3.959-.11 3.867.091 7.568-1.411 10.918-3.191 1.15-.611 2.318-1.297 3.014-2.338.338-.509.553-1.109.471-1.701s-.5-1.164-1.117-1.352c-1.161-.356-2.216.663-3.083 1.456zM198.472 177.155c1.682-2.332 3.32-4.878 3.363-7.675-1.477 2.607-4.066 4.666-7.086 5.631-.174.056-.357.112-.477.24-.121.129-.154.308-.184.476l-1.348 7.837.254-.011c2.077-1.972 3.827-4.212 5.478-6.498zM213.536 164.544c.721-.662 1.443-1.914 1.887-2.757.441-.843.549-1.895.012-2.69a23.917 23.917 0 01-5.211 3.773c-.203.109-.412.219-.566.382-.148.156-.238.351-.326.542a45.732 45.732 0 00-2.123 5.701l.127.174c2.063-1.898 4.136-3.225 6.2-5.125zM232.089 170.62c.631-.743 1.063-1.805.533-2.613-1.588 1.972-4.283 2.869-6.859 3.508a67.041 67.041 0 01-11.029 1.773c-1.102.085-2.23.147-3.25.543-1.018.396-1.924 1.206-2.049 2.216l-.563.133c5.938-1.353 12.268-.956 18.096-2.667 1.937-.57 3.869-1.42 5.121-2.893zM225.147 159.831c1.467-.376 2.994-.55 4.436-.999 2.02-.631 4.74-1.316 6.064-2.854.791-.919 1.334-2.86.789-3.92-.838 2.01-3.535 3.756-5.68 4.622-2.143.866-4.533 1.105-6.873 1.04-.215-.006-.443-.012-.631.085-.17.088-.279.247-.381.4a17.204 17.204 0 00-1.439 2.709l-.133 1.034c.917-1.117 2.384-1.741 3.848-2.117zM145.77 297.048c.045-.143.107-.267.154-.405.018-.182.021-.367.045-.547l-.199.952zM195.112 255.097c-10.727 6.207-19.676 12.334-26.953 17.715-5.18 3.828-9.371 9.002-14.004 13.454-3.529 3.393-6.704 5.985-8.231 10.377-.152 1.615-.008 3.308 1.031 4.595 1.393 1.723 4.065 2.242 6.335 1.734 2.268-.508 4.197-1.859 5.916-3.313 3.816-3.226 6.516-6.527 9.689-10.296 8.01-9.513 14.771-17.968 24.426-26.231 6.107-5.228 38.113-20.183 46.695-28.652-11.41 5.807-30.119 12.062-44.904 20.617zM82.527 258.852c-3.557-2.209-7.154-4.42-11.129-5.906-3.977-1.485-5.633-2.494-10.107-3.56 0 0-4.422 0-4.633.291-.209.29 9.578 2.845 12.973 4.807 11.947 6.906 22.879 17.004 32.195 26.749 5.75 6.014 10.896 10.954 17.688 15.968 1.873 1.381 3.938 2.672 6.301 3.061.477.078 1.016.105 1.398-.166.223-.156.359-.393.459-.633.768-1.861-.459-3.875-1.703-5.502-11.158-14.583-27.371-25.129-43.442-35.109z" fill="#bf812e"/></g></g></svg>