<svg xmlns="http://www.w3.org/2000/svg" xmlns:xlink="http://www.w3.org/1999/xlink" width="291.969" height="406.205"><image width="292" height="407" xlink:href="42485526.png" overflow="visible" opacity=".3"/><radialGradient id="a" cx="143.214" cy="200.357" r="163.894" gradientTransform="matrix(0 -1 1.0315 0 -63.458 343.572)" gradientUnits="userSpaceOnUse"><stop offset="0" stop-color="#55ec36"/><stop offset=".281" stop-color="#4ee330"/><stop offset=".739" stop-color="#3ccb1f"/><stop offset="1" stop-color="#30ba13"/></radialGradient><path d="M16.635 390.357a6.177 6.177 0 01-6.17-6.17V16.525a6.176 6.176 0 016.17-6.168h253.16a6.176 6.176 0 016.169 6.168v367.662a6.177 6.177 0 01-6.169 6.17H16.635z" fill="url(#a)"/><path d="M265.964 20.357v360H20.465v-360h245.499m3.831-20H16.635C7.703.357.465 7.595.465 16.525v367.662c0 8.932 7.238 16.17 16.17 16.17h253.16c8.93 0 16.169-7.238 16.169-16.17V16.525c0-8.929-7.239-16.168-16.169-16.168z" fill="#55ec36"/><path d="M269.795 10.357a6.176 6.176 0 016.169 6.168v367.662a6.177 6.177 0 01-6.169 6.17H16.635a6.177 6.177 0 01-6.17-6.17V16.525a6.176 6.176 0 016.17-6.168h253.16m0-10H16.635C7.703.357.465 7.595.465 16.525v367.662c0 8.932 7.238 16.17 16.17 16.17h253.16c8.93 0 16.169-7.238 16.169-16.17V16.525c0-8.929-7.239-16.168-16.169-16.168z" fill="#414042"/><g><image width="209" height="216" xlink:href="4248552A.png" transform="translate(41 90)" overflow="visible" opacity=".3"/><path d="M131.54 297.612c-3.854 0-6.99-3.292-6.99-7.339v-31.126l-71.59.801c-3.386-.016-6.961-.403-8.106-3.164-1.118-2.695 1.054-5.38 3.07-7.419l.137-.139.157-.116c.293-.216 29.45-21.724 42.899-34.044l.008-.007-23.114.312c-2.472-.014-5.834-.332-7.045-2.916-1.217-2.598.638-5.373 2.39-7.499l.221-.268.286-.198c.311-.215 31.191-21.639 42.285-33.839 1.879-2.066 4.127-5.195 6.704-9.329l-19.953.262c-2.777-.015-4.556-.874-5.333-2.553-.799-1.728-.242-3.748 1.655-6.004l.236-.281.307-.201c.199-.13 19.965-13.123 27.019-20.726 6.984-7.528 19.058-34.252 19.179-34.521l.143-.316.224-.266c1.145-1.361 3.411-2.085 4.426-2.271l-.002-.014.214-.038.558-.004.298.074c.676.169 2.975.83 4.171 2.252l.224.266.143.316c.121.269 12.195 26.993 19.179 34.521 7.058 7.606 26.82 20.595 27.019 20.726l.307.201.236.281c1.897 2.257 2.454 4.277 1.655 6.004-.777 1.679-2.556 2.538-5.287 2.553l-16.211-.213c2.564 4.11 4.801 7.223 6.672 9.28 11.098 12.204 41.975 33.625 42.285 33.839l.286.198.221.268c1.752 2.126 3.607 4.901 2.39 7.499-1.21 2.584-4.572 2.902-6.996 2.916l-23.163-.312.008.008c13.453 12.322 42.606 33.828 42.899 34.044l.157.116.137.139c2.017 2.039 4.188 4.724 3.07 7.419-1.144 2.76-4.72 3.147-8.066 3.163l-72.315-.809v31.134c0 4.047-3.135 7.339-6.989 7.339H131.54z" fill="#3b6d1f"/><path d="M141.216 96.889s2.095.522 2.862 1.436c0 0 12.279 27.276 19.626 35.195 7.347 7.918 27.48 21.116 27.48 21.116 2.354 2.801 1.775 4.43-1.731 4.448l-20.665-.271c3.293 5.608 6.518 10.473 9.289 13.521 11.418 12.556 42.712 34.213 42.712 34.213 3.659 4.441 2.759 6.294-2.69 6.325l-29.243-.394c1.603 1.718 3.091 3.221 4.413 4.433 13.707 12.556 43.105 34.214 43.105 34.214 4.393 4.44 3.313 6.294-3.23 6.324l-74.804-.837v33.662c0 2.661-2.021 4.839-4.489 4.839H131.54c-2.47 0-4.49-2.178-4.49-4.839V256.62l-74.118.829c-6.542-.03-7.623-1.884-3.23-6.324 0 0 29.399-21.658 43.105-34.214 1.323-1.212 2.811-2.715 4.414-4.433l-29.243.394c-5.45-.031-6.351-1.884-2.691-6.325 0 0 31.294-21.657 42.712-34.213 2.78-3.058 6.016-7.94 9.319-13.57l-24.451.321c-3.507-.019-4.086-1.647-1.731-4.448 0 0 20.135-13.198 27.48-21.116 7.347-7.919 19.626-35.195 19.626-35.195.767-.912 2.896-1.429 2.919-1.429.017-.002.034-.008.055-.008m.614-5h-1.051l-.463.08.003.017c-1.587.281-4.322 1.239-5.905 3.122l-.447.531-.285.633c-3.324 7.38-13.167 27.849-18.732 33.847-6.852 7.385-26.36 20.206-26.556 20.335l-.614.402-.472.562c-3.208 3.816-2.864 6.817-2.01 8.662.838 1.813 2.828 3.979 7.542 4.003h.092l15.273-.201c-1.451 2.122-2.756 3.822-3.906 5.086-10.901 11.987-41.55 33.252-41.858 33.465l-.571.396-.442.537c-1.304 1.583-4.768 5.787-2.725 10.148 2.02 4.314 7.459 4.346 9.246 4.356h.096l16.353-.22c-14.486 12.353-37.403 29.257-37.663 29.448l-.314.231-.275.278c-1.504 1.521-5.5 5.559-3.602 10.135 1.935 4.667 7.842 4.694 10.364 4.706h.079l69.063-.772v28.598c0 5.425 4.257 9.839 9.49 9.839h22.311c5.232 0 9.489-4.414 9.489-9.839v-28.606l69.748.78h.079c2.522-.012 8.43-.039 10.365-4.706 1.897-4.575-2.099-8.614-3.603-10.135l-.274-.278-.314-.231c-.259-.191-23.178-17.098-37.663-29.448l16.354.22h.096c1.787-.01 7.225-.042 9.246-4.355 2.042-4.362-1.421-8.566-2.725-10.149l-.442-.537-.571-.396c-.309-.213-30.957-21.478-41.858-33.465-1.141-1.254-2.435-2.938-3.871-5.037l11.482.151h.092c4.715-.025 6.704-2.191 7.542-4.003.854-1.845 1.198-4.846-2.01-8.662l-.472-.562-.614-.403c-.196-.128-19.71-12.957-26.557-20.335-5.564-5.998-15.408-26.466-18.732-33.847l-.285-.633-.447-.532c-1.576-1.875-4.109-2.728-5.479-3.07l-.597-.146z" fill="#113a09"/><g><path d="M49.704 251.123l59.973-.266 17.105-.006 68.23.701c8.485.444 15.287-4.175-2.67-16.859 0 0-21.199-17.138-33.701-27.652-1.206-1.015-2.563-2.273-4.025-3.711l26.673.329c4.971-.025 5.793-1.578 2.455-5.297 0 0-24.922-24.786-35.336-35.301-2.528-2.552-4.547-5.257-7.551-9.954l21.427-.054c1.649-.008-15.151-22.765-17.447-27.604-3.892-8.201-6.527-26.945-6.53-26.944-1.051.04-12.889 27.095-20.235 35.014-7.347 7.918-27.48 21.116-27.48 21.116-2.354 2.801-1.775 4.43 1.73 4.448l24.452-.321c-3.304 5.63-6.539 10.513-9.319 13.57-11.418 12.556-42.712 34.213-42.712 34.213-3.659 4.441-2.759 6.294 2.69 6.325l29.244-.394c-1.604 1.718-3.091 3.221-4.414 4.433-13.707 12.556-43.105 34.214-43.105 34.214-4.393 4.44-3.312 6.294 3.23 6.324l.401-.005c-6.406-.058-7.443-1.914-3.085-6.319z" fill="#53ae31"/></g></g></svg>