<svg xmlns="http://www.w3.org/2000/svg" width="200" height="200"><path d="M100 198c-27 0-48-13-48-29 0-21 20-37 48-37s48 16 48 37c0 16-21 29-48 29z" fill="#bababa"/><path d="M100 134c27 0 47 15 47 35 0 14-20 28-47 28-28 0-47-14-47-28 0-19 19-35 47-35m0-3c-28 0-50 16-50 38 0 8 5 16 15 22 9 5 21 9 35 9 13 0 26-4 35-9 9-6 15-14 15-22 0-11-5-21-15-28-9-6-21-10-35-10z" fill="#414042"/><path d="M146 163c1 7 3 16-17 28-1 0 6-3 6-11-1-5-3-8-5-8-4 1-14 7-30 7-22 0-39-9-39-21s17-20 39-20 44 9 46 25z" fill="#7a7a7a"/><path d="M100 170c-13 0-31-4-37-13-8-10-11-24-11-45 0-19 5-33 16-43 9-8 20-12 32-12 9 0 22 1 32 9 11 9 16 24 16 46s-5 39-13 47c-7 7-20 11-35 11z" fill="#bababa"/><path d="M100 58c21 0 47 6 47 54 0 20-5 38-13 46-7 6-20 10-34 10s-30-4-36-12c-7-9-11-24-11-44 0-40 27-54 47-54m0-3c-12 0-24 5-33 13a57 57 0 00-17 44c0 21 4 36 11 46 7 9 25 13 39 13 15 0 29-4 36-11 9-8 14-26 14-48s-6-38-17-47c-10-9-24-10-33-10z" fill="#414042"/><path d="M147 112c1 32-13 46-13 46s7-24 7-38c0-16-8-35-13-31-14 10-30 8-41 6-12-1-24-17-23-20 12-18 16-17 36-17 21 0 45 3 47 54z" fill="#7a7a7a"/><g><path d="M100 88c-30 0-41-25-41-41 0-21 7-45 41-45 27 0 41 15 41 45 0 15-9 41-41 41z" fill="#bababa"/><path d="M100 3c22 0 39 10 39 44 0 16-10 39-39 39-30 0-39-25-39-39 0-33 17-44 39-44m0-3C81 0 58 8 58 47c0 16 11 42 42 42 14 0 25-5 33-15 6-7 9-17 9-27 0-31-14-47-42-47z" fill="#414042"/></g><path d="M139 47c0 9-3 20-11 28-6 7 17-27-3-50-22-25-54-11-54-11s8-11 29-11c22 0 39 10 39 44z" fill="#7a7a7a"/></svg>